<svg width="331" height="51" viewBox="0 0 331 51" fill="none" xmlns="http://www.w3.org/2000/svg">
<g clip-path="url(#clip0)">
<path d="M107.314 23.2691V37.6742C107.314 39.0143 106.667 40.2996 105.515 41.2472C104.363 42.1948 102.801 42.7272 101.171 42.7272H74.1429C72.5137 42.7272 70.9512 42.1948 69.7992 41.2472C68.6472 40.2996 68 39.0143 68 37.6742V23.2691L87.033 32.4817C87.2221 32.5735 87.4376 32.6218 87.6571 32.6218C87.8767 32.6218 88.0922 32.5735 88.2813 32.4817L107.314 23.2691ZM101.171 16.4516C102.683 16.4514 104.141 16.9096 105.268 17.7386C106.395 18.5675 107.11 19.709 107.277 20.9447L87.6571 30.4383L68.0369 20.9447C68.2043 19.709 68.9198 18.5675 70.0463 17.7386C71.1728 16.9096 72.6314 16.4514 74.1429 16.4516H101.171Z" fill="#FF005C"/>
<path d="M113.898 37.6484C113.711 40.6328 112.531 43 110.359 44.75C108.203 46.5 105.359 47.375 101.828 47.375C98.0312 47.375 95.0391 46.2188 92.8516 43.9062C90.6797 41.5781 89.5625 38.375 89.5 34.2969V32.75C89.5 28.6719 90.6016 25.4141 92.8047 22.9766C95.0234 20.5391 98.0156 19.3203 101.781 19.3203C105.312 19.3203 108.141 20.2031 110.266 21.9688C112.391 23.7344 113.609 26.1719 113.922 29.2812H107.148C106.992 26.2812 105.203 24.7812 101.781 24.7812C98.2188 24.7812 96.3828 27.2734 96.2734 32.2578V33.9922C96.2734 36.7891 96.7031 38.8125 97.5625 40.0625C98.4375 41.3125 99.8594 41.9375 101.828 41.9375C103.531 41.9375 104.812 41.5938 105.672 40.9062C106.547 40.2188 107.023 39.1328 107.102 37.6484H113.898ZM142.047 33.8984C142.047 36.5703 141.523 38.9297 140.477 40.9766C139.43 43.0234 137.93 44.6016 135.977 45.7109C134.039 46.8203 131.836 47.375 129.367 47.375C126.883 47.375 124.664 46.8281 122.711 45.7344C120.773 44.6406 119.273 43.0859 118.211 41.0703C117.148 39.0391 116.609 36.7031 116.594 34.0625V32.8438C116.594 30.1562 117.117 27.7891 118.164 25.7422C119.211 23.6953 120.703 22.1172 122.641 21.0078C124.578 19.8828 126.805 19.3203 129.32 19.3203C131.789 19.3203 133.984 19.8672 135.906 20.9609C137.844 22.0547 139.344 23.625 140.406 25.6719C141.484 27.7031 142.031 30.0469 142.047 32.7031V33.8984ZM135.25 32.8203C135.25 30.2266 134.727 28.2344 133.68 26.8438C132.648 25.4531 131.195 24.7578 129.32 24.7578C127.383 24.7578 125.906 25.4531 124.891 26.8438C123.891 28.2344 123.391 30.2266 123.391 32.8203V33.8984C123.391 36.4453 123.906 38.4297 124.938 39.8516C125.969 41.2734 127.445 41.9844 129.367 41.9844C131.18 41.9844 132.609 41.2812 133.656 39.875C134.719 38.4688 135.25 36.4531 135.25 33.8281V32.8203ZM170.266 47H163.492L152.711 29.9844V47H145.914V19.6953H152.711L163.492 36.7344V19.6953H170.266V47ZM197.711 25.1797H188.852V47H182.055V25.1797H173.359V19.6953H197.711V25.1797ZM217.797 41.7969H207.227L205.305 47H198.508L209.312 19.6953H215.688L226.586 47H219.742L217.797 41.7969ZM209.055 36.8281H215.922L212.477 27.5938L209.055 36.8281ZM252.461 37.6484C252.273 40.6328 251.094 43 248.922 44.75C246.766 46.5 243.922 47.375 240.391 47.375C236.594 47.375 233.602 46.2188 231.414 43.9062C229.242 41.5781 228.125 38.375 228.062 34.2969V32.75C228.062 28.6719 229.164 25.4141 231.367 22.9766C233.586 20.5391 236.578 19.3203 240.344 19.3203C243.875 19.3203 246.703 20.2031 248.828 21.9688C250.953 23.7344 252.172 26.1719 252.484 29.2812H245.711C245.555 26.2812 243.766 24.7812 240.344 24.7812C236.781 24.7812 234.945 27.2734 234.836 32.2578V33.9922C234.836 36.7891 235.266 38.8125 236.125 40.0625C237 41.3125 238.422 41.9375 240.391 41.9375C242.094 41.9375 243.375 41.5938 244.234 40.9062C245.109 40.2188 245.586 39.1328 245.664 37.6484H252.461ZM278.758 25.1797H269.898V47H263.102V25.1797H254.406V19.6953H278.758V25.1797Z" fill="#41E0EA"/>
<path d="M298.656 39.3359C299.906 39.3359 300.945 39.7109 301.773 40.4609C302.602 41.1953 303.016 42.1406 303.016 43.2969C303.016 44.4531 302.602 45.4062 301.773 46.1562C300.945 46.8906 299.906 47.2578 298.656 47.2578C297.391 47.2578 296.344 46.8828 295.516 46.1328C294.703 45.3828 294.297 44.4375 294.297 43.2969C294.297 42.1562 294.703 41.2109 295.516 40.4609C296.344 39.7109 297.391 39.3359 298.656 39.3359ZM298.656 20.6328C299.906 20.6328 300.945 21.0078 301.773 21.7578C302.602 22.4922 303.016 23.4375 303.016 24.5938C303.016 25.75 302.602 26.7031 301.773 27.4531C300.945 28.1875 299.906 28.5547 298.656 28.5547C297.391 28.5547 296.344 28.1797 295.516 27.4297C294.703 26.6797 294.297 25.7344 294.297 24.5938C294.297 23.4531 294.703 22.5078 295.516 21.7578C296.344 21.0078 297.391 20.6328 298.656 20.6328Z" fill="#FF005C"/>
</g>
<defs>
<clipPath id="clip0">
<rect width="331" height="51" fill="white"/>
</clipPath>
</defs>
</svg>
