<svg width="900" height="62" viewBox="0 0 900 62" fill="none" xmlns="http://www.w3.org/2000/svg">
<path d="M102 23V51H114V23H102ZM116 23V33H128V23H116ZM130 23V41H142V23H130ZM116 35V51H128V35H116ZM130 43V51H142V43H130Z" fill="#FF005C"/>
<path d="M170.32 50V22.6953H179.648C182.211 22.6953 184.523 23.2422 186.586 24.3359C188.648 25.4297 190.258 26.9688 191.414 28.9531C192.586 30.9219 193.188 33.1406 193.219 35.6094V36.8984C193.219 39.3828 192.641 41.6328 191.484 43.6484C190.344 45.6484 188.742 47.2109 186.68 48.3359C184.633 49.4453 182.312 50 179.719 50H170.32ZM177.117 28.1797V44.5625H179.719C182.031 44.5625 183.711 43.9766 184.758 42.8047C185.82 41.6172 186.367 39.75 186.398 37.2031V35.7969C186.398 33.1875 185.875 31.2812 184.828 30.0781C183.797 28.8594 182.172 28.2266 179.953 28.1797H177.117ZM214.031 44.7969H203.461L201.539 50H194.742L205.547 22.6953H211.922L222.82 50H215.977L214.031 44.7969ZM205.289 39.8281H212.156L208.711 30.5938L205.289 39.8281ZM240.305 42.6641C240.305 41.7578 239.922 41.0312 239.156 40.4844C238.391 39.9375 237.086 39.4453 235.242 39.0078C233.398 38.5703 231.844 38.1094 230.578 37.625C229.328 37.125 228.297 36.5391 227.484 35.8672C226.672 35.1953 226.07 34.4219 225.68 33.5469C225.289 32.6562 225.094 31.6016 225.094 30.3828C225.094 28.0391 226.07 26.1094 228.023 24.5938C229.977 23.0781 232.492 22.3203 235.57 22.3203C238.93 22.3203 241.641 23.0859 243.703 24.6172C245.781 26.1328 246.82 28.2109 246.82 30.8516H240.047C240.047 29.8516 239.641 29.0156 238.828 28.3438C238.031 27.6719 236.953 27.3359 235.594 27.3359C234.391 27.3359 233.414 27.6016 232.664 28.1328C231.914 28.6641 231.539 29.3281 231.539 30.125C231.539 30.9219 231.93 31.5703 232.711 32.0703C233.492 32.5547 234.789 33.0234 236.602 33.4766C240.242 34.2734 242.844 35.375 244.406 36.7812C245.984 38.1875 246.773 40.0859 246.773 42.4766C246.773 44.9141 245.812 46.8438 243.891 48.2656C241.969 49.6719 239.344 50.375 236.016 50.375C233.75 50.375 231.703 50.0078 229.875 49.2734C228.047 48.5391 226.633 47.4922 225.633 46.1328C224.648 44.7734 224.156 43.1641 224.156 41.3047H230.953C230.953 42.7578 231.398 43.8047 232.289 44.4453C233.195 45.0859 234.547 45.4062 236.344 45.4062C237.562 45.4062 238.523 45.1562 239.227 44.6562C239.945 44.1562 240.305 43.4922 240.305 42.6641ZM275.227 50H268.453V39.3594H257.648V50H250.852V22.6953H257.648V33.8984H268.453V22.6953H275.227V50ZM279.914 50V22.6953H290.461C294.102 22.6953 296.898 23.3438 298.852 24.6406C300.805 25.9219 301.781 27.7891 301.781 30.2422C301.781 31.6172 301.422 32.8281 300.703 33.875C300 34.9062 298.984 35.6641 297.656 36.1484C299.188 36.5391 300.359 37.2812 301.172 38.375C301.984 39.4688 302.391 40.7344 302.391 42.1719C302.391 44.875 301.461 46.8594 299.602 48.125C297.742 49.375 295.039 50 291.492 50H279.914ZM286.711 38.6328V44.5625H291.492C292.805 44.5625 293.82 44.3047 294.539 43.7891C295.258 43.2578 295.617 42.5625 295.617 41.7031C295.617 39.7188 294.422 38.6953 292.031 38.6328H286.711ZM286.711 34.0625H290.883C293.617 34.0625 294.984 33.1094 294.984 31.2031C294.984 30.1094 294.648 29.3359 293.977 28.8828C293.32 28.4141 292.312 28.1797 290.953 28.1797H286.711V34.0625ZM331.125 36.8984C331.125 39.5703 330.602 41.9297 329.555 43.9766C328.508 46.0234 327.008 47.6016 325.055 48.7109C323.117 49.8203 320.914 50.375 318.445 50.375C315.961 50.375 313.742 49.8281 311.789 48.7344C309.852 47.6406 308.352 46.0859 307.289 44.0703C306.227 42.0391 305.688 39.7031 305.672 37.0625V35.8438C305.672 33.1562 306.195 30.7891 307.242 28.7422C308.289 26.6953 309.781 25.1172 311.719 24.0078C313.656 22.8828 315.883 22.3203 318.398 22.3203C320.867 22.3203 323.062 22.8672 324.984 23.9609C326.922 25.0547 328.422 26.625 329.484 28.6719C330.562 30.7031 331.109 33.0469 331.125 35.7031V36.8984ZM324.328 35.8203C324.328 33.2266 323.805 31.2344 322.758 29.8438C321.727 28.4531 320.273 27.7578 318.398 27.7578C316.461 27.7578 314.984 28.4531 313.969 29.8438C312.969 31.2344 312.469 33.2266 312.469 35.8203V36.8984C312.469 39.4453 312.984 41.4297 314.016 42.8516C315.047 44.2734 316.523 44.9844 318.445 44.9844C320.258 44.9844 321.688 44.2812 322.734 42.875C323.797 41.4688 324.328 39.4531 324.328 36.8281V35.8203ZM351.938 44.7969H341.367L339.445 50H332.648L343.453 22.6953H349.828L360.727 50H353.883L351.938 44.7969ZM343.195 39.8281H350.062L346.617 30.5938L343.195 39.8281ZM374.062 40.5781H369.82V50H363.023V22.6953H374.414C377.883 22.6953 380.586 23.4141 382.523 24.8516C384.461 26.2734 385.43 28.2891 385.43 30.8984C385.43 32.8359 385.023 34.4375 384.211 35.7031C383.414 36.9531 382.109 37.9766 380.297 38.7734L386.484 49.7188V50H379.172L374.062 40.5781ZM369.82 35.1172H374.414C377.242 35.1172 378.656 33.9531 378.656 31.625C378.656 29.3281 377.18 28.1797 374.227 28.1797H369.82V35.1172ZM389.789 50V22.6953H399.117C401.68 22.6953 403.992 23.2422 406.055 24.3359C408.117 25.4297 409.727 26.9688 410.883 28.9531C412.055 30.9219 412.656 33.1406 412.688 35.6094V36.8984C412.688 39.3828 412.109 41.6328 410.953 43.6484C409.812 45.6484 408.211 47.2109 406.148 48.3359C404.102 49.4453 401.781 50 399.188 50H389.789ZM396.586 28.1797V44.5625H399.188C401.5 44.5625 403.18 43.9766 404.227 42.8047C405.289 41.6172 405.836 39.75 405.867 37.2031V35.7969C405.867 33.1875 405.344 31.2812 404.297 30.0781C403.266 28.8594 401.641 28.2266 399.422 28.1797H396.586ZM431.742 42.6641C431.742 41.7578 431.359 41.0312 430.594 40.4844C429.828 39.9375 428.523 39.4453 426.68 39.0078C424.836 38.5703 423.281 38.1094 422.016 37.625C420.766 37.125 419.734 36.5391 418.922 35.8672C418.109 35.1953 417.508 34.4219 417.117 33.5469C416.727 32.6562 416.531 31.6016 416.531 30.3828C416.531 28.0391 417.508 26.1094 419.461 24.5938C421.414 23.0781 423.93 22.3203 427.008 22.3203C430.367 22.3203 433.078 23.0859 435.141 24.6172C437.219 26.1328 438.258 28.2109 438.258 30.8516H431.484C431.484 29.8516 431.078 29.0156 430.266 28.3438C429.469 27.6719 428.391 27.3359 427.031 27.3359C425.828 27.3359 424.852 27.6016 424.102 28.1328C423.352 28.6641 422.977 29.3281 422.977 30.125C422.977 30.9219 423.367 31.5703 424.148 32.0703C424.93 32.5547 426.227 33.0234 428.039 33.4766C431.68 34.2734 434.281 35.375 435.844 36.7812C437.422 38.1875 438.211 40.0859 438.211 42.4766C438.211 44.9141 437.25 46.8438 435.328 48.2656C433.406 49.6719 430.781 50.375 427.453 50.375C425.188 50.375 423.141 50.0078 421.312 49.2734C419.484 48.5391 418.07 47.4922 417.07 46.1328C416.086 44.7734 415.594 43.1641 415.594 41.3047H422.391C422.391 42.7578 422.836 43.8047 423.727 44.4453C424.633 45.0859 425.984 45.4062 427.781 45.4062C429 45.4062 429.961 45.1562 430.664 44.6562C431.383 44.1562 431.742 43.4922 431.742 42.6641Z" fill="#41E0EA"/>
<path d="M259 37H574" stroke="#FF005C" stroke-width="4" stroke-linecap="round"/>
<path d="M313 46H628" stroke="#FF005C" stroke-width="4" stroke-linecap="round"/>
</svg>
