<svg width="900" height="350" viewBox="0 0 900 350" fill="none" xmlns="http://www.w3.org/2000/svg">
<ellipse cx="709" cy="264.5" rx="86" ry="78.5" fill="#FF005C"/>
<path d="M61.1172 112.562H73.5625V118H54.3203V90.6953H61.1172V112.562ZM93.625 112.797H83.0547L81.1328 118H74.3359L85.1406 90.6953H91.5156L102.414 118H95.5703L93.625 112.797ZM84.8828 107.828H91.75L88.3047 98.5938L84.8828 107.828ZM129.062 118H122.289L111.508 100.984V118H104.711V90.6953H111.508L122.289 107.734V90.6953H129.062V118ZM157.539 114.695C156.477 115.805 154.922 116.695 152.875 117.367C150.844 118.039 148.547 118.375 145.984 118.375C142.078 118.375 138.977 117.234 136.68 114.953C134.383 112.656 133.195 109.5 133.117 105.484V103.656C133.117 99.5312 134.242 96.2812 136.492 93.9062C138.742 91.5156 141.773 90.3203 145.586 90.3203C149.18 90.3203 151.977 91.1094 153.977 92.6875C155.977 94.2656 157.156 96.6328 157.516 99.7891H150.977C150.758 98.4609 150.258 97.4609 149.477 96.7891C148.711 96.1172 147.492 95.7812 145.82 95.7812C143.945 95.7812 142.492 96.4297 141.461 97.7266C140.445 99.0234 139.93 100.945 139.914 103.492V105.086C139.914 107.758 140.453 109.734 141.531 111.016C142.609 112.297 144.242 112.938 146.43 112.938C148.398 112.938 149.828 112.609 150.719 111.953V108.062H145.469V103.258H157.539V114.695ZM162.133 114.672C162.133 113.594 162.492 112.719 163.211 112.047C163.945 111.375 164.859 111.039 165.953 111.039C167.062 111.039 167.977 111.375 168.695 112.047C169.43 112.719 169.797 113.594 169.797 114.672C169.797 115.734 169.438 116.602 168.719 117.273C168 117.93 167.078 118.258 165.953 118.258C164.844 118.258 163.93 117.93 163.211 117.273C162.492 116.602 162.133 115.734 162.133 114.672ZM162.133 95.4766C162.133 94.3984 162.492 93.5234 163.211 92.8516C163.945 92.1797 164.859 91.8438 165.953 91.8438C167.062 91.8438 167.977 92.1797 168.695 92.8516C169.43 93.5234 169.797 94.3984 169.797 95.4766C169.797 96.5391 169.438 97.4062 168.719 98.0781C168 98.7344 167.078 99.0625 165.953 99.0625C164.844 99.0625 163.93 98.7344 163.211 98.0781C162.492 97.4062 162.133 96.5391 162.133 95.4766Z" fill="#FF005C"/>
<path d="M222.346 106.98V117H218.971V91.4062H228.41C231.211 91.4062 233.402 92.1211 234.984 93.5508C236.578 94.9805 237.375 96.873 237.375 99.2285C237.375 101.713 236.596 103.629 235.037 104.977C233.49 106.312 231.27 106.98 228.375 106.98H222.346ZM222.346 104.221H228.41C230.215 104.221 231.598 103.799 232.559 102.955C233.52 102.1 234 100.869 234 99.2637C234 97.7402 233.52 96.5215 232.559 95.6074C231.598 94.6934 230.279 94.2188 228.604 94.1836H222.346V104.221ZM247.676 112.236L252.105 97.9805H255.586L247.939 119.936C246.756 123.1 244.875 124.682 242.297 124.682L241.682 124.629L240.469 124.4V121.764L241.348 121.834C242.449 121.834 243.305 121.611 243.914 121.166C244.535 120.721 245.045 119.906 245.443 118.723L246.164 116.789L239.379 97.9805H242.93L247.676 112.236ZM262.916 93.375V97.9805H266.467V100.494H262.916V112.289C262.916 113.051 263.074 113.625 263.391 114.012C263.707 114.387 264.246 114.574 265.008 114.574C265.383 114.574 265.898 114.504 266.555 114.363V117C265.699 117.234 264.867 117.352 264.059 117.352C262.605 117.352 261.51 116.912 260.771 116.033C260.033 115.154 259.664 113.906 259.664 112.289V100.494H256.201V97.9805H259.664V93.375H262.916ZM273.533 100.283C274.975 98.5137 276.85 97.6289 279.158 97.6289C283.178 97.6289 285.205 99.8965 285.24 104.432V117H281.988V104.414C281.977 103.043 281.66 102.029 281.039 101.373C280.43 100.717 279.475 100.389 278.174 100.389C277.119 100.389 276.193 100.67 275.396 101.232C274.6 101.795 273.979 102.533 273.533 103.447V117H270.281V90H273.533V100.283ZM289.248 107.314C289.248 105.451 289.611 103.775 290.338 102.287C291.076 100.799 292.096 99.6504 293.396 98.8418C294.709 98.0332 296.203 97.6289 297.879 97.6289C300.469 97.6289 302.561 98.5254 304.154 100.318C305.76 102.111 306.562 104.496 306.562 107.473V107.701C306.562 109.553 306.205 111.217 305.49 112.693C304.787 114.158 303.773 115.301 302.449 116.121C301.137 116.941 299.625 117.352 297.914 117.352C295.336 117.352 293.244 116.455 291.639 114.662C290.045 112.869 289.248 110.496 289.248 107.543V107.314ZM292.518 107.701C292.518 109.811 293.004 111.504 293.977 112.781C294.961 114.059 296.273 114.697 297.914 114.697C299.566 114.697 300.879 114.053 301.852 112.764C302.824 111.463 303.311 109.646 303.311 107.314C303.311 105.229 302.812 103.541 301.816 102.252C300.832 100.951 299.52 100.301 297.879 100.301C296.273 100.301 294.979 100.939 293.994 102.217C293.01 103.494 292.518 105.322 292.518 107.701ZM313.717 97.9805L313.822 100.371C315.275 98.543 317.174 97.6289 319.518 97.6289C323.537 97.6289 325.564 99.8965 325.6 104.432V117H322.348V104.414C322.336 103.043 322.02 102.029 321.398 101.373C320.789 100.717 319.834 100.389 318.533 100.389C317.479 100.389 316.553 100.67 315.756 101.232C314.959 101.795 314.338 102.533 313.893 103.447V117H310.641V97.9805H313.717ZM330.398 122.098L328.553 120.832C329.654 119.297 330.229 117.715 330.275 116.086V113.15H333.457V115.699C333.457 116.883 333.164 118.066 332.578 119.25C332.004 120.434 331.277 121.383 330.398 122.098ZM357.732 91.4062H361.125V109.529C361.125 111.979 360.387 113.895 358.91 115.277C357.445 116.66 355.488 117.352 353.039 117.352C350.496 117.352 348.516 116.701 347.098 115.4C345.68 114.1 344.971 112.277 344.971 109.934H348.346C348.346 111.398 348.744 112.541 349.541 113.361C350.35 114.182 351.516 114.592 353.039 114.592C354.434 114.592 355.559 114.152 356.414 113.273C357.281 112.395 357.721 111.164 357.732 109.582V91.4062ZM377.438 111.955C377.438 111.076 377.104 110.396 376.436 109.916C375.779 109.424 374.625 109.002 372.973 108.65C371.332 108.299 370.025 107.877 369.053 107.385C368.092 106.893 367.377 106.307 366.908 105.627C366.451 104.947 366.223 104.139 366.223 103.201C366.223 101.643 366.879 100.324 368.191 99.2461C369.516 98.168 371.203 97.6289 373.254 97.6289C375.41 97.6289 377.156 98.1855 378.492 99.2988C379.84 100.412 380.514 101.836 380.514 103.57H377.244C377.244 102.68 376.863 101.912 376.102 101.268C375.352 100.623 374.402 100.301 373.254 100.301C372.07 100.301 371.145 100.559 370.477 101.074C369.809 101.59 369.475 102.264 369.475 103.096C369.475 103.881 369.785 104.473 370.406 104.871C371.027 105.27 372.146 105.65 373.764 106.014C375.393 106.377 376.711 106.811 377.719 107.314C378.727 107.818 379.471 108.428 379.951 109.143C380.443 109.846 380.689 110.707 380.689 111.727C380.689 113.426 380.01 114.791 378.65 115.822C377.291 116.842 375.527 117.352 373.359 117.352C371.836 117.352 370.488 117.082 369.316 116.543C368.145 116.004 367.225 115.254 366.557 114.293C365.9 113.32 365.572 112.271 365.572 111.146H368.824C368.883 112.236 369.316 113.104 370.125 113.748C370.945 114.381 372.023 114.697 373.359 114.697C374.59 114.697 375.574 114.451 376.312 113.959C377.062 113.455 377.438 112.787 377.438 111.955Z" fill="#00FF85"/>
<path d="M78.9531 263.898C78.9531 266.57 78.4297 268.93 77.3828 270.977C76.3359 273.023 74.8359 274.602 72.8828 275.711C70.9453 276.82 68.7422 277.375 66.2734 277.375C63.7891 277.375 61.5703 276.828 59.6172 275.734C57.6797 274.641 56.1797 273.086 55.1172 271.07C54.0547 269.039 53.5156 266.703 53.5 264.062V262.844C53.5 260.156 54.0234 257.789 55.0703 255.742C56.1172 253.695 57.6094 252.117 59.5469 251.008C61.4844 249.883 63.7109 249.32 66.2266 249.32C68.6953 249.32 70.8906 249.867 72.8125 250.961C74.75 252.055 76.25 253.625 77.3125 255.672C78.3906 257.703 78.9375 260.047 78.9531 262.703V263.898ZM72.1562 262.82C72.1562 260.227 71.6328 258.234 70.5859 256.844C69.5547 255.453 68.1016 254.758 66.2266 254.758C64.2891 254.758 62.8125 255.453 61.7969 256.844C60.7969 258.234 60.2969 260.227 60.2969 262.82V263.898C60.2969 266.445 60.8125 268.43 61.8438 269.852C62.875 271.273 64.3516 271.984 66.2734 271.984C68.0859 271.984 69.5156 271.281 70.5625 269.875C71.625 268.469 72.1562 266.453 72.1562 263.828V262.82ZM98.0078 269.664C98.0078 268.758 97.625 268.031 96.8594 267.484C96.0938 266.938 94.7891 266.445 92.9453 266.008C91.1016 265.57 89.5469 265.109 88.2812 264.625C87.0312 264.125 86 263.539 85.1875 262.867C84.375 262.195 83.7734 261.422 83.3828 260.547C82.9922 259.656 82.7969 258.602 82.7969 257.383C82.7969 255.039 83.7734 253.109 85.7266 251.594C87.6797 250.078 90.1953 249.32 93.2734 249.32C96.6328 249.32 99.3438 250.086 101.406 251.617C103.484 253.133 104.523 255.211 104.523 257.852H97.75C97.75 256.852 97.3438 256.016 96.5312 255.344C95.7344 254.672 94.6562 254.336 93.2969 254.336C92.0938 254.336 91.1172 254.602 90.3672 255.133C89.6172 255.664 89.2422 256.328 89.2422 257.125C89.2422 257.922 89.6328 258.57 90.4141 259.07C91.1953 259.555 92.4922 260.023 94.3047 260.477C97.9453 261.273 100.547 262.375 102.109 263.781C103.688 265.188 104.477 267.086 104.477 269.477C104.477 271.914 103.516 273.844 101.594 275.266C99.6719 276.672 97.0469 277.375 93.7188 277.375C91.4531 277.375 89.4062 277.008 87.5781 276.273C85.75 275.539 84.3359 274.492 83.3359 273.133C82.3516 271.773 81.8594 270.164 81.8594 268.305H88.6562C88.6562 269.758 89.1016 270.805 89.9922 271.445C90.8984 272.086 92.25 272.406 94.0469 272.406C95.2656 272.406 96.2266 272.156 96.9297 271.656C97.6484 271.156 98.0078 270.492 98.0078 269.664ZM109.164 273.672C109.164 272.594 109.523 271.719 110.242 271.047C110.977 270.375 111.891 270.039 112.984 270.039C114.094 270.039 115.008 270.375 115.727 271.047C116.461 271.719 116.828 272.594 116.828 273.672C116.828 274.734 116.469 275.602 115.75 276.273C115.031 276.93 114.109 277.258 112.984 277.258C111.875 277.258 110.961 276.93 110.242 276.273C109.523 275.602 109.164 274.734 109.164 273.672ZM109.164 254.477C109.164 253.398 109.523 252.523 110.242 251.852C110.977 251.18 111.891 250.844 112.984 250.844C114.094 250.844 115.008 251.18 115.727 251.852C116.461 252.523 116.828 253.398 116.828 254.477C116.828 255.539 116.469 256.406 115.75 257.078C115.031 257.734 114.109 258.062 112.984 258.062C111.875 258.062 110.961 257.734 110.242 257.078C109.523 256.406 109.164 255.539 109.164 254.477Z" fill="#FF005C"/>
<path d="M233.086 260.697H222.346V272H218.971V246.406H234.826V249.184H222.346V257.938H233.086V260.697ZM237.111 262.314C237.111 260.451 237.475 258.775 238.201 257.287C238.939 255.799 239.959 254.65 241.26 253.842C242.572 253.033 244.066 252.629 245.742 252.629C248.332 252.629 250.424 253.525 252.018 255.318C253.623 257.111 254.426 259.496 254.426 262.473V262.701C254.426 264.553 254.068 266.217 253.354 267.693C252.65 269.158 251.637 270.301 250.312 271.121C249 271.941 247.488 272.352 245.777 272.352C243.199 272.352 241.107 271.455 239.502 269.662C237.908 267.869 237.111 265.496 237.111 262.543V262.314ZM240.381 262.701C240.381 264.811 240.867 266.504 241.84 267.781C242.824 269.059 244.137 269.697 245.777 269.697C247.43 269.697 248.742 269.053 249.715 267.764C250.688 266.463 251.174 264.646 251.174 262.314C251.174 260.229 250.676 258.541 249.68 257.252C248.695 255.951 247.383 255.301 245.742 255.301C244.137 255.301 242.842 255.939 241.857 257.217C240.873 258.494 240.381 260.322 240.381 262.701ZM267.697 255.898C267.205 255.816 266.672 255.775 266.098 255.775C263.965 255.775 262.518 256.684 261.756 258.5V272H258.504V252.98H261.668L261.721 255.178C262.787 253.479 264.299 252.629 266.256 252.629C266.889 252.629 267.369 252.711 267.697 252.875V255.898ZM296.473 267.518L300.129 252.98H303.381L297.844 272H295.207L290.584 257.586L286.084 272H283.447L277.928 252.98H281.162L284.906 267.219L289.336 252.98H291.955L296.473 267.518ZM305.842 262.314C305.842 260.451 306.205 258.775 306.932 257.287C307.67 255.799 308.689 254.65 309.99 253.842C311.303 253.033 312.797 252.629 314.473 252.629C317.062 252.629 319.154 253.525 320.748 255.318C322.354 257.111 323.156 259.496 323.156 262.473V262.701C323.156 264.553 322.799 266.217 322.084 267.693C321.381 269.158 320.367 270.301 319.043 271.121C317.73 271.941 316.219 272.352 314.508 272.352C311.93 272.352 309.838 271.455 308.232 269.662C306.639 267.869 305.842 265.496 305.842 262.543V262.314ZM309.111 262.701C309.111 264.811 309.598 266.504 310.57 267.781C311.555 269.059 312.867 269.697 314.508 269.697C316.16 269.697 317.473 269.053 318.445 267.764C319.418 266.463 319.904 264.646 319.904 262.314C319.904 260.229 319.406 258.541 318.41 257.252C317.426 255.951 316.113 255.301 314.473 255.301C312.867 255.301 311.572 255.939 310.588 257.217C309.604 258.494 309.111 260.322 309.111 262.701ZM336.428 255.898C335.936 255.816 335.402 255.775 334.828 255.775C332.695 255.775 331.248 256.684 330.486 258.5V272H327.234V252.98H330.398L330.451 255.178C331.518 253.479 333.029 252.629 334.986 252.629C335.619 252.629 336.1 252.711 336.428 252.875V255.898ZM344.742 263.193L342.703 265.32V272H339.451V245H342.703V261.33L344.443 259.238L350.367 252.98H354.322L346.922 260.926L355.184 272H351.369L344.742 263.193ZM373.377 262.455H364.799V259.801H373.377V262.455ZM391.518 263.932L392.01 267.307L392.73 264.266L397.793 246.406H400.641L405.58 264.266L406.283 267.359L406.828 263.914L410.801 246.406H414.193L407.988 272H404.912L399.639 253.35L399.234 251.398L398.83 253.35L393.363 272H390.287L384.1 246.406H387.475L391.518 263.932ZM420.979 272H417.727V252.98H420.979V272ZM417.463 247.936C417.463 247.408 417.621 246.963 417.938 246.6C418.266 246.236 418.746 246.055 419.379 246.055C420.012 246.055 420.492 246.236 420.82 246.6C421.148 246.963 421.312 247.408 421.312 247.936C421.312 248.463 421.148 248.902 420.82 249.254C420.492 249.605 420.012 249.781 419.379 249.781C418.746 249.781 418.266 249.605 417.938 249.254C417.621 248.902 417.463 248.463 417.463 247.936ZM429.275 252.98L429.381 255.371C430.834 253.543 432.732 252.629 435.076 252.629C439.096 252.629 441.123 254.896 441.158 259.432V272H437.906V259.414C437.895 258.043 437.578 257.029 436.957 256.373C436.348 255.717 435.393 255.389 434.092 255.389C433.037 255.389 432.111 255.67 431.314 256.232C430.518 256.795 429.896 257.533 429.451 258.447V272H426.199V252.98H429.275ZM456.416 272H453.146V250.326L446.59 252.734V249.781L455.906 246.283H456.416V272ZM476.631 272H473.361V250.326L466.805 252.734V249.781L476.121 246.283H476.631V272ZM495.932 272V246.406H503.156C505.383 246.406 507.352 246.898 509.062 247.883C510.773 248.867 512.092 250.268 513.018 252.084C513.955 253.9 514.43 255.986 514.441 258.342V259.977C514.441 262.391 513.973 264.506 513.035 266.322C512.109 268.139 510.779 269.533 509.045 270.506C507.322 271.479 505.312 271.977 503.016 272H495.932ZM499.307 249.184V269.24H502.857C505.459 269.24 507.48 268.432 508.922 266.814C510.375 265.197 511.102 262.895 511.102 259.906V258.412C511.102 255.506 510.416 253.25 509.045 251.645C507.686 250.027 505.752 249.207 503.244 249.184H499.307ZM526.939 272.352C524.361 272.352 522.264 271.508 520.646 269.82C519.029 268.121 518.221 265.854 518.221 263.018V262.42C518.221 260.533 518.578 258.852 519.293 257.375C520.02 255.887 521.027 254.727 522.316 253.895C523.617 253.051 525.023 252.629 526.535 252.629C529.008 252.629 530.93 253.443 532.301 255.072C533.672 256.701 534.357 259.033 534.357 262.068V263.422H521.473C521.52 265.297 522.064 266.814 523.107 267.975C524.162 269.123 525.498 269.697 527.115 269.697C528.264 269.697 529.236 269.463 530.033 268.994C530.83 268.525 531.527 267.904 532.125 267.131L534.111 268.678C532.518 271.127 530.127 272.352 526.939 272.352ZM526.535 255.301C525.223 255.301 524.121 255.781 523.23 256.742C522.34 257.691 521.789 259.027 521.578 260.75H531.105V260.504C531.012 258.852 530.566 257.574 529.77 256.672C528.973 255.758 527.895 255.301 526.535 255.301ZM544.166 267.588L548.877 252.98H552.199L545.379 272H542.9L536.01 252.98H539.332L544.166 267.588ZM553.324 277.098L551.479 275.832C552.58 274.297 553.154 272.715 553.201 271.086V268.15H556.383V270.699C556.383 271.883 556.09 273.066 555.504 274.25C554.93 275.434 554.203 276.383 553.324 277.098ZM574.295 246.406L582.662 267.289L591.029 246.406H595.406V272H592.031V262.033L592.348 251.275L583.945 272H581.361L572.977 251.328L573.311 262.033V272H569.936V246.406H574.295ZM612.598 272C612.41 271.625 612.258 270.957 612.141 269.996C610.629 271.566 608.824 272.352 606.727 272.352C604.852 272.352 603.311 271.824 602.104 270.77C600.908 269.703 600.311 268.355 600.311 266.727C600.311 264.746 601.061 263.211 602.561 262.121C604.072 261.02 606.193 260.469 608.924 260.469H612.088V258.975C612.088 257.838 611.748 256.936 611.068 256.268C610.389 255.588 609.387 255.248 608.062 255.248C606.902 255.248 605.93 255.541 605.145 256.127C604.359 256.713 603.967 257.422 603.967 258.254H600.697C600.697 257.305 601.031 256.391 601.699 255.512C602.379 254.621 603.293 253.918 604.441 253.402C605.602 252.887 606.873 252.629 608.256 252.629C610.447 252.629 612.164 253.18 613.406 254.281C614.648 255.371 615.293 256.877 615.34 258.799V267.553C615.34 269.299 615.562 270.688 616.008 271.719V272H612.598ZM607.201 269.521C608.221 269.521 609.188 269.258 610.102 268.73C611.016 268.203 611.678 267.518 612.088 266.674V262.771H609.539C605.555 262.771 603.562 263.938 603.562 266.27C603.562 267.289 603.902 268.086 604.582 268.66C605.262 269.234 606.135 269.521 607.201 269.521ZM623.514 252.98L623.619 255.371C625.072 253.543 626.971 252.629 629.314 252.629C633.334 252.629 635.361 254.896 635.396 259.432V272H632.145V259.414C632.133 258.043 631.816 257.029 631.195 256.373C630.586 255.717 629.631 255.389 628.33 255.389C627.275 255.389 626.35 255.67 625.553 256.232C624.756 256.795 624.135 257.533 623.689 258.447V272H620.438V252.98H623.514ZM643.658 252.98V274.197C643.658 277.854 642 279.682 638.684 279.682C637.969 279.682 637.307 279.576 636.697 279.365V276.764C637.072 276.857 637.564 276.904 638.174 276.904C638.9 276.904 639.451 276.705 639.826 276.307C640.213 275.92 640.406 275.24 640.406 274.268V252.98H643.658ZM640.072 247.936C640.072 247.42 640.23 246.98 640.547 246.617C640.875 246.242 641.35 246.055 641.971 246.055C642.604 246.055 643.084 246.236 643.412 246.6C643.74 246.963 643.904 247.408 643.904 247.936C643.904 248.463 643.74 248.902 643.412 249.254C643.084 249.605 642.604 249.781 641.971 249.781C641.338 249.781 640.863 249.605 640.547 249.254C640.23 248.902 640.072 248.463 640.072 247.936ZM660.656 272C660.469 271.625 660.316 270.957 660.199 269.996C658.688 271.566 656.883 272.352 654.785 272.352C652.91 272.352 651.369 271.824 650.162 270.77C648.967 269.703 648.369 268.355 648.369 266.727C648.369 264.746 649.119 263.211 650.619 262.121C652.131 261.02 654.252 260.469 656.982 260.469H660.146V258.975C660.146 257.838 659.807 256.936 659.127 256.268C658.447 255.588 657.445 255.248 656.121 255.248C654.961 255.248 653.988 255.541 653.203 256.127C652.418 256.713 652.025 257.422 652.025 258.254H648.756C648.756 257.305 649.09 256.391 649.758 255.512C650.438 254.621 651.352 253.918 652.5 253.402C653.66 252.887 654.932 252.629 656.314 252.629C658.506 252.629 660.223 253.18 661.465 254.281C662.707 255.371 663.352 256.877 663.398 258.799V267.553C663.398 269.299 663.621 270.688 664.066 271.719V272H660.656ZM655.26 269.521C656.279 269.521 657.246 269.258 658.16 268.73C659.074 268.203 659.736 267.518 660.146 266.674V262.771H657.598C653.613 262.771 651.621 263.938 651.621 266.27C651.621 267.289 651.961 268.086 652.641 268.66C653.32 269.234 654.193 269.521 655.26 269.521ZM677.689 255.898C677.197 255.816 676.664 255.775 676.09 255.775C673.957 255.775 672.51 256.684 671.748 258.5V272H668.496V252.98H671.66L671.713 255.178C672.779 253.479 674.291 252.629 676.248 252.629C676.881 252.629 677.361 252.711 677.689 252.875V255.898ZM679.482 262.314C679.482 260.451 679.846 258.775 680.572 257.287C681.311 255.799 682.33 254.65 683.631 253.842C684.943 253.033 686.438 252.629 688.113 252.629C690.703 252.629 692.795 253.525 694.389 255.318C695.994 257.111 696.797 259.496 696.797 262.473V262.701C696.797 264.553 696.439 266.217 695.725 267.693C695.021 269.158 694.008 270.301 692.684 271.121C691.371 271.941 689.859 272.352 688.148 272.352C685.57 272.352 683.479 271.455 681.873 269.662C680.279 267.869 679.482 265.496 679.482 262.543V262.314ZM682.752 262.701C682.752 264.811 683.238 266.504 684.211 267.781C685.195 269.059 686.508 269.697 688.148 269.697C689.801 269.697 691.113 269.053 692.086 267.764C693.059 266.463 693.545 264.646 693.545 262.314C693.545 260.229 693.047 258.541 692.051 257.252C691.066 255.951 689.754 255.301 688.113 255.301C686.508 255.301 685.213 255.939 684.229 257.217C683.244 258.494 682.752 260.322 682.752 262.701ZM729.211 268.643C728.344 269.885 727.131 270.816 725.572 271.438C724.025 272.047 722.221 272.352 720.158 272.352C718.072 272.352 716.221 271.865 714.604 270.893C712.986 269.908 711.732 268.514 710.842 266.709C709.963 264.904 709.512 262.812 709.488 260.434V258.201C709.488 254.346 710.385 251.357 712.178 249.236C713.982 247.115 716.514 246.055 719.771 246.055C722.443 246.055 724.594 246.74 726.223 248.111C727.852 249.471 728.848 251.404 729.211 253.912H725.836C725.203 250.525 723.188 248.832 719.789 248.832C717.527 248.832 715.811 249.629 714.639 251.223C713.479 252.805 712.893 255.102 712.881 258.113V260.205C712.881 263.076 713.537 265.361 714.85 267.061C716.162 268.748 717.938 269.592 720.176 269.592C721.441 269.592 722.549 269.451 723.498 269.17C724.447 268.889 725.232 268.414 725.854 267.746V261.998H719.93V259.256H729.211V268.643ZM737.42 252.98L737.525 255.371C738.979 253.543 740.877 252.629 743.221 252.629C747.24 252.629 749.268 254.896 749.303 259.432V272H746.051V259.414C746.039 258.043 745.723 257.029 745.102 256.373C744.492 255.717 743.537 255.389 742.236 255.389C741.182 255.389 740.256 255.67 739.459 256.232C738.662 256.795 738.041 257.533 737.596 258.447V272H734.344V252.98H737.42ZM753.346 262.314C753.346 260.451 753.709 258.775 754.436 257.287C755.174 255.799 756.193 254.65 757.494 253.842C758.807 253.033 760.301 252.629 761.977 252.629C764.566 252.629 766.658 253.525 768.252 255.318C769.857 257.111 770.66 259.496 770.66 262.473V262.701C770.66 264.553 770.303 266.217 769.588 267.693C768.885 269.158 767.871 270.301 766.547 271.121C765.234 271.941 763.723 272.352 762.012 272.352C759.434 272.352 757.342 271.455 755.736 269.662C754.143 267.869 753.346 265.496 753.346 262.543V262.314ZM756.615 262.701C756.615 264.811 757.102 266.504 758.074 267.781C759.059 269.059 760.371 269.697 762.012 269.697C763.664 269.697 764.977 269.053 765.949 267.764C766.922 266.463 767.408 264.646 767.408 262.314C767.408 260.229 766.91 258.541 765.914 257.252C764.93 255.951 763.617 255.301 761.977 255.301C760.371 255.301 759.076 255.939 758.092 257.217C757.107 258.494 756.615 260.322 756.615 262.701ZM777.797 252.98L777.885 255.09C779.279 253.449 781.16 252.629 783.527 252.629C786.188 252.629 787.998 253.648 788.959 255.688C789.592 254.773 790.412 254.035 791.42 253.473C792.439 252.91 793.641 252.629 795.023 252.629C799.195 252.629 801.316 254.838 801.387 259.256V272H798.135V259.449C798.135 258.09 797.824 257.076 797.203 256.408C796.582 255.729 795.539 255.389 794.074 255.389C792.867 255.389 791.865 255.752 791.068 256.479C790.271 257.193 789.809 258.16 789.68 259.379V272H786.41V259.537C786.41 256.771 785.057 255.389 782.35 255.389C780.217 255.389 778.758 256.297 777.973 258.113V272H774.721V252.98H777.797ZM814.201 272.352C811.623 272.352 809.525 271.508 807.908 269.82C806.291 268.121 805.482 265.854 805.482 263.018V262.42C805.482 260.533 805.84 258.852 806.555 257.375C807.281 255.887 808.289 254.727 809.578 253.895C810.879 253.051 812.285 252.629 813.797 252.629C816.27 252.629 818.191 253.443 819.562 255.072C820.934 256.701 821.619 259.033 821.619 262.068V263.422H808.734C808.781 265.297 809.326 266.814 810.369 267.975C811.424 269.123 812.76 269.697 814.377 269.697C815.525 269.697 816.498 269.463 817.295 268.994C818.092 268.525 818.789 267.904 819.387 267.131L821.373 268.678C819.779 271.127 817.389 272.352 814.201 272.352ZM813.797 255.301C812.484 255.301 811.383 255.781 810.492 256.742C809.602 257.691 809.051 259.027 808.84 260.75H818.367V260.504C818.273 258.852 817.828 257.574 817.031 256.672C816.234 255.758 815.156 255.301 813.797 255.301Z" fill="#00FF85"/>
<path d="M233.086 305.697H222.346V317H218.971V291.406H234.826V294.184H222.346V302.938H233.086V305.697ZM237.111 307.314C237.111 305.451 237.475 303.775 238.201 302.287C238.939 300.799 239.959 299.65 241.26 298.842C242.572 298.033 244.066 297.629 245.742 297.629C248.332 297.629 250.424 298.525 252.018 300.318C253.623 302.111 254.426 304.496 254.426 307.473V307.701C254.426 309.553 254.068 311.217 253.354 312.693C252.65 314.158 251.637 315.301 250.312 316.121C249 316.941 247.488 317.352 245.777 317.352C243.199 317.352 241.107 316.455 239.502 314.662C237.908 312.869 237.111 310.496 237.111 307.543V307.314ZM240.381 307.701C240.381 309.811 240.867 311.504 241.84 312.781C242.824 314.059 244.137 314.697 245.777 314.697C247.43 314.697 248.742 314.053 249.715 312.764C250.688 311.463 251.174 309.646 251.174 307.314C251.174 305.229 250.676 303.541 249.68 302.252C248.695 300.951 247.383 300.301 245.742 300.301C244.137 300.301 242.842 300.939 241.857 302.217C240.873 303.494 240.381 305.322 240.381 307.701ZM267.697 300.898C267.205 300.816 266.672 300.775 266.098 300.775C263.965 300.775 262.518 301.684 261.756 303.5V317H258.504V297.98H261.668L261.721 300.178C262.787 298.479 264.299 297.629 266.256 297.629C266.889 297.629 267.369 297.711 267.697 297.875V300.898ZM290.707 311.955C290.707 311.076 290.373 310.396 289.705 309.916C289.049 309.424 287.895 309.002 286.242 308.65C284.602 308.299 283.295 307.877 282.322 307.385C281.361 306.893 280.646 306.307 280.178 305.627C279.721 304.947 279.492 304.139 279.492 303.201C279.492 301.643 280.148 300.324 281.461 299.246C282.785 298.168 284.473 297.629 286.523 297.629C288.68 297.629 290.426 298.186 291.762 299.299C293.109 300.412 293.783 301.836 293.783 303.57H290.514C290.514 302.68 290.133 301.912 289.371 301.268C288.621 300.623 287.672 300.301 286.523 300.301C285.34 300.301 284.414 300.559 283.746 301.074C283.078 301.59 282.744 302.264 282.744 303.096C282.744 303.881 283.055 304.473 283.676 304.871C284.297 305.27 285.416 305.65 287.033 306.014C288.662 306.377 289.98 306.811 290.988 307.314C291.996 307.818 292.74 308.428 293.221 309.143C293.713 309.846 293.959 310.707 293.959 311.727C293.959 313.426 293.279 314.791 291.92 315.822C290.561 316.842 288.797 317.352 286.629 317.352C285.105 317.352 283.758 317.082 282.586 316.543C281.414 316.004 280.494 315.254 279.826 314.293C279.17 313.32 278.842 312.271 278.842 311.146H282.094C282.152 312.236 282.586 313.104 283.395 313.748C284.215 314.381 285.293 314.697 286.629 314.697C287.859 314.697 288.844 314.451 289.582 313.959C290.332 313.455 290.707 312.787 290.707 311.955ZM306.088 317.352C303.51 317.352 301.412 316.508 299.795 314.82C298.178 313.121 297.369 310.854 297.369 308.018V307.42C297.369 305.533 297.727 303.852 298.441 302.375C299.168 300.887 300.176 299.727 301.465 298.895C302.766 298.051 304.172 297.629 305.684 297.629C308.156 297.629 310.078 298.443 311.449 300.072C312.82 301.701 313.506 304.033 313.506 307.068V308.422H300.621C300.668 310.297 301.213 311.814 302.256 312.975C303.311 314.123 304.646 314.697 306.264 314.697C307.412 314.697 308.385 314.463 309.182 313.994C309.979 313.525 310.676 312.904 311.273 312.131L313.26 313.678C311.666 316.127 309.275 317.352 306.088 317.352ZM305.684 300.301C304.371 300.301 303.27 300.781 302.379 301.742C301.488 302.691 300.938 304.027 300.727 305.75H310.254V305.504C310.16 303.852 309.715 302.574 308.918 301.672C308.121 300.758 307.043 300.301 305.684 300.301ZM326.479 300.898C325.986 300.816 325.453 300.775 324.879 300.775C322.746 300.775 321.299 301.684 320.537 303.5V317H317.285V297.98H320.449L320.502 300.178C321.568 298.479 323.08 297.629 325.037 297.629C325.67 297.629 326.15 297.711 326.479 297.875V300.898ZM336.076 312.588L340.787 297.98H344.109L337.289 317H334.811L327.92 297.98H331.242L336.076 312.588ZM354.885 317.352C352.307 317.352 350.209 316.508 348.592 314.82C346.975 313.121 346.166 310.854 346.166 308.018V307.42C346.166 305.533 346.523 303.852 347.238 302.375C347.965 300.887 348.973 299.727 350.262 298.895C351.562 298.051 352.969 297.629 354.48 297.629C356.953 297.629 358.875 298.443 360.246 300.072C361.617 301.701 362.303 304.033 362.303 307.068V308.422H349.418C349.465 310.297 350.01 311.814 351.053 312.975C352.107 314.123 353.443 314.697 355.061 314.697C356.209 314.697 357.182 314.463 357.979 313.994C358.775 313.525 359.473 312.904 360.07 312.131L362.057 313.678C360.463 316.127 358.072 317.352 354.885 317.352ZM354.48 300.301C353.168 300.301 352.066 300.781 351.176 301.742C350.285 302.691 349.734 304.027 349.523 305.75H359.051V305.504C358.957 303.852 358.512 302.574 357.715 301.672C356.918 300.758 355.84 300.301 354.48 300.301ZM375.275 300.898C374.783 300.816 374.25 300.775 373.676 300.775C371.543 300.775 370.096 301.684 369.334 303.5V317H366.082V297.98H369.246L369.299 300.178C370.365 298.479 371.877 297.629 373.834 297.629C374.467 297.629 374.947 297.711 375.275 297.875V300.898ZM389.355 311.955C389.355 311.076 389.021 310.396 388.354 309.916C387.697 309.424 386.543 309.002 384.891 308.65C383.25 308.299 381.943 307.877 380.971 307.385C380.01 306.893 379.295 306.307 378.826 305.627C378.369 304.947 378.141 304.139 378.141 303.201C378.141 301.643 378.797 300.324 380.109 299.246C381.434 298.168 383.121 297.629 385.172 297.629C387.328 297.629 389.074 298.186 390.41 299.299C391.758 300.412 392.432 301.836 392.432 303.57H389.162C389.162 302.68 388.781 301.912 388.02 301.268C387.27 300.623 386.32 300.301 385.172 300.301C383.988 300.301 383.062 300.559 382.395 301.074C381.727 301.59 381.393 302.264 381.393 303.096C381.393 303.881 381.703 304.473 382.324 304.871C382.945 305.27 384.064 305.65 385.682 306.014C387.311 306.377 388.629 306.811 389.637 307.314C390.645 307.818 391.389 308.428 391.869 309.143C392.361 309.846 392.607 310.707 392.607 311.727C392.607 313.426 391.928 314.791 390.568 315.822C389.209 316.842 387.445 317.352 385.277 317.352C383.754 317.352 382.406 317.082 381.234 316.543C380.062 316.004 379.143 315.254 378.475 314.293C377.818 313.32 377.49 312.271 377.49 311.146H380.742C380.801 312.236 381.234 313.104 382.043 313.748C382.863 314.381 383.941 314.697 385.277 314.697C386.508 314.697 387.492 314.451 388.23 313.959C388.98 313.455 389.355 312.787 389.355 311.955ZM412.541 307.455H403.963V304.801H412.541V307.455ZM452.109 291.406V308.809C452.098 311.223 451.336 313.197 449.824 314.732C448.324 316.268 446.285 317.129 443.707 317.316L442.811 317.352C440.01 317.352 437.777 316.596 436.113 315.084C434.449 313.572 433.605 311.492 433.582 308.844V291.406H436.922V308.738C436.922 310.59 437.432 312.031 438.451 313.062C439.471 314.082 440.924 314.592 442.811 314.592C444.721 314.592 446.18 314.082 447.188 313.062C448.207 312.043 448.717 310.607 448.717 308.756V291.406H452.109ZM473.027 307.701C473.027 310.607 472.359 312.945 471.023 314.715C469.688 316.473 467.895 317.352 465.645 317.352C463.242 317.352 461.385 316.502 460.072 314.803L459.914 317H456.926V290H460.178V300.072C461.49 298.443 463.301 297.629 465.609 297.629C467.918 297.629 469.729 298.502 471.041 300.248C472.365 301.994 473.027 304.385 473.027 307.42V307.701ZM469.775 307.332C469.775 305.117 469.348 303.406 468.492 302.199C467.637 300.992 466.406 300.389 464.801 300.389C462.656 300.389 461.115 301.385 460.178 303.377V311.604C461.174 313.596 462.727 314.592 464.836 314.592C466.395 314.592 467.607 313.988 468.475 312.781C469.342 311.574 469.775 309.758 469.775 307.332ZM488.883 315.119C487.617 316.607 485.76 317.352 483.311 317.352C481.283 317.352 479.736 316.766 478.67 315.594C477.615 314.41 477.082 312.664 477.07 310.355V297.98H480.322V310.268C480.322 313.15 481.494 314.592 483.838 314.592C486.322 314.592 487.975 313.666 488.795 311.814V297.98H492.047V317H488.953L488.883 315.119ZM500.08 297.98L500.186 300.371C501.639 298.543 503.537 297.629 505.881 297.629C509.9 297.629 511.928 299.896 511.963 304.432V317H508.711V304.414C508.699 303.043 508.383 302.029 507.762 301.373C507.152 300.717 506.197 300.389 504.896 300.389C503.842 300.389 502.916 300.67 502.119 301.232C501.322 301.795 500.701 302.533 500.256 303.447V317H497.004V297.98H500.08ZM521.279 293.375V297.98H524.83V300.494H521.279V312.289C521.279 313.051 521.438 313.625 521.754 314.012C522.07 314.387 522.609 314.574 523.371 314.574C523.746 314.574 524.262 314.504 524.918 314.363V317C524.062 317.234 523.23 317.352 522.422 317.352C520.969 317.352 519.873 316.912 519.135 316.033C518.396 315.154 518.027 313.906 518.027 312.289V300.494H514.564V297.98H518.027V293.375H521.279ZM540.387 315.119C539.121 316.607 537.264 317.352 534.814 317.352C532.787 317.352 531.24 316.766 530.174 315.594C529.119 314.41 528.586 312.664 528.574 310.355V297.98H531.826V310.268C531.826 313.15 532.998 314.592 535.342 314.592C537.826 314.592 539.479 313.666 540.299 311.814V297.98H543.551V317H540.457L540.387 315.119ZM573.873 317H557.104V314.662L565.963 304.818C567.275 303.33 568.178 302.123 568.67 301.197C569.174 300.26 569.426 299.293 569.426 298.297C569.426 296.961 569.021 295.865 568.213 295.01C567.404 294.154 566.326 293.727 564.979 293.727C563.361 293.727 562.102 294.189 561.199 295.115C560.309 296.029 559.863 297.307 559.863 298.947H556.611C556.611 296.592 557.367 294.688 558.879 293.234C560.402 291.781 562.436 291.055 564.979 291.055C567.357 291.055 569.238 291.682 570.621 292.936C572.004 294.178 572.695 295.836 572.695 297.91C572.695 300.43 571.09 303.43 567.879 306.91L561.023 314.346H573.873V317ZM593.367 306.084C593.367 309.893 592.717 312.723 591.416 314.574C590.115 316.426 588.082 317.352 585.316 317.352C582.586 317.352 580.564 316.449 579.252 314.645C577.939 312.828 577.26 310.121 577.213 306.523V302.182C577.213 298.42 577.863 295.625 579.164 293.797C580.465 291.969 582.504 291.055 585.281 291.055C588.035 291.055 590.062 291.939 591.363 293.709C592.664 295.467 593.332 298.186 593.367 301.865V306.084ZM590.115 301.637C590.115 298.883 589.729 296.879 588.955 295.625C588.182 294.359 586.957 293.727 585.281 293.727C583.617 293.727 582.404 294.354 581.643 295.607C580.881 296.861 580.488 298.789 580.465 301.391V306.594C580.465 309.359 580.863 311.404 581.66 312.729C582.469 314.041 583.688 314.697 585.316 314.697C586.922 314.697 588.111 314.076 588.885 312.834C589.67 311.592 590.08 309.635 590.115 306.963V301.637ZM597.938 315.295C597.938 314.732 598.102 314.264 598.43 313.889C598.77 313.514 599.273 313.326 599.941 313.326C600.609 313.326 601.113 313.514 601.453 313.889C601.805 314.264 601.98 314.732 601.98 315.295C601.98 315.834 601.805 316.285 601.453 316.648C601.113 317.012 600.609 317.193 599.941 317.193C599.273 317.193 598.77 317.012 598.43 316.648C598.102 316.285 597.938 315.834 597.938 315.295ZM623.074 306.084C623.074 309.893 622.424 312.723 621.123 314.574C619.822 316.426 617.789 317.352 615.023 317.352C612.293 317.352 610.271 316.449 608.959 314.645C607.646 312.828 606.967 310.121 606.92 306.523V302.182C606.92 298.42 607.57 295.625 608.871 293.797C610.172 291.969 612.211 291.055 614.988 291.055C617.742 291.055 619.77 291.939 621.07 293.709C622.371 295.467 623.039 298.186 623.074 301.865V306.084ZM619.822 301.637C619.822 298.883 619.436 296.879 618.662 295.625C617.889 294.359 616.664 293.727 614.988 293.727C613.324 293.727 612.111 294.354 611.35 295.607C610.588 296.861 610.195 298.789 610.172 301.391V306.594C610.172 309.359 610.57 311.404 611.367 312.729C612.176 314.041 613.395 314.697 615.023 314.697C616.629 314.697 617.818 314.076 618.592 312.834C619.377 311.592 619.787 309.635 619.822 306.963V301.637ZM640.969 308.404H644.52V311.059H640.969V317H637.699V311.059H626.045V309.143L637.506 291.406H640.969V308.404ZM629.736 308.404H637.699V295.854L637.312 296.557L629.736 308.404ZM661.588 291.406L669.955 312.289L678.322 291.406H682.699V317H679.324V307.033L679.641 296.275L671.238 317H668.654L660.27 296.328L660.604 307.033V317H657.229V291.406H661.588ZM691.682 317H688.43V297.98H691.682V317ZM688.166 292.936C688.166 292.408 688.324 291.963 688.641 291.6C688.969 291.236 689.449 291.055 690.082 291.055C690.715 291.055 691.195 291.236 691.523 291.6C691.852 291.963 692.016 292.408 692.016 292.936C692.016 293.463 691.852 293.902 691.523 294.254C691.195 294.605 690.715 294.781 690.082 294.781C689.449 294.781 688.969 294.605 688.641 294.254C688.324 293.902 688.166 293.463 688.166 292.936ZM699.979 297.98L700.084 300.371C701.537 298.543 703.436 297.629 705.779 297.629C709.799 297.629 711.826 299.896 711.861 304.432V317H708.609V304.414C708.598 303.043 708.281 302.029 707.66 301.373C707.051 300.717 706.096 300.389 704.795 300.389C703.74 300.389 702.814 300.67 702.018 301.232C701.221 301.795 700.6 302.533 700.154 303.447V317H696.902V297.98H699.979ZM720.299 317H717.047V297.98H720.299V317ZM716.783 292.936C716.783 292.408 716.941 291.963 717.258 291.6C717.586 291.236 718.066 291.055 718.699 291.055C719.332 291.055 719.812 291.236 720.141 291.6C720.469 291.963 720.633 292.408 720.633 292.936C720.633 293.463 720.469 293.902 720.141 294.254C719.812 294.605 719.332 294.781 718.699 294.781C718.066 294.781 717.586 294.605 717.258 294.254C716.941 293.902 716.783 293.463 716.783 292.936ZM728.578 297.98L728.666 300.09C730.061 298.449 731.941 297.629 734.309 297.629C736.969 297.629 738.779 298.648 739.74 300.688C740.373 299.773 741.193 299.035 742.201 298.473C743.221 297.91 744.422 297.629 745.805 297.629C749.977 297.629 752.098 299.838 752.168 304.256V317H748.916V304.449C748.916 303.09 748.605 302.076 747.984 301.408C747.363 300.729 746.32 300.389 744.855 300.389C743.648 300.389 742.646 300.752 741.85 301.479C741.053 302.193 740.59 303.16 740.461 304.379V317H737.191V304.537C737.191 301.771 735.838 300.389 733.131 300.389C730.998 300.389 729.539 301.297 728.754 303.113V317H725.502V297.98H728.578ZM768.832 317C768.645 316.625 768.492 315.957 768.375 314.996C766.863 316.566 765.059 317.352 762.961 317.352C761.086 317.352 759.545 316.824 758.338 315.77C757.143 314.703 756.545 313.355 756.545 311.727C756.545 309.746 757.295 308.211 758.795 307.121C760.307 306.02 762.428 305.469 765.158 305.469H768.322V303.975C768.322 302.838 767.982 301.936 767.303 301.268C766.623 300.588 765.621 300.248 764.297 300.248C763.137 300.248 762.164 300.541 761.379 301.127C760.594 301.713 760.201 302.422 760.201 303.254H756.932C756.932 302.305 757.266 301.391 757.934 300.512C758.613 299.621 759.527 298.918 760.676 298.402C761.836 297.887 763.107 297.629 764.49 297.629C766.682 297.629 768.398 298.18 769.641 299.281C770.883 300.371 771.527 301.877 771.574 303.799V312.553C771.574 314.299 771.797 315.688 772.242 316.719V317H768.832ZM763.436 314.521C764.455 314.521 765.422 314.258 766.336 313.73C767.25 313.203 767.912 312.518 768.322 311.674V307.771H765.773C761.789 307.771 759.797 308.938 759.797 311.27C759.797 312.289 760.137 313.086 760.816 313.66C761.496 314.234 762.369 314.521 763.436 314.521ZM780.205 317H776.953V290H780.205V317Z" fill="#00FF85"/>
<path d="M77.1016 152.18H68.2422V174H61.4453V152.18H52.75V146.695H77.1016V152.18ZM104.875 160.898C104.875 163.57 104.352 165.93 103.305 167.977C102.258 170.023 100.758 171.602 98.8047 172.711C96.8672 173.82 94.6641 174.375 92.1953 174.375C89.7109 174.375 87.4922 173.828 85.5391 172.734C83.6016 171.641 82.1016 170.086 81.0391 168.07C79.9766 166.039 79.4375 163.703 79.4219 161.062V159.844C79.4219 157.156 79.9453 154.789 80.9922 152.742C82.0391 150.695 83.5312 149.117 85.4688 148.008C87.4062 146.883 89.6328 146.32 92.1484 146.32C94.6172 146.32 96.8125 146.867 98.7344 147.961C100.672 149.055 102.172 150.625 103.234 152.672C104.312 154.703 104.859 157.047 104.875 159.703V160.898ZM98.0781 159.82C98.0781 157.227 97.5547 155.234 96.5078 153.844C95.4766 152.453 94.0234 151.758 92.1484 151.758C90.2109 151.758 88.7344 152.453 87.7188 153.844C86.7188 155.234 86.2188 157.227 86.2188 159.82V160.898C86.2188 163.445 86.7344 165.43 87.7656 166.852C88.7969 168.273 90.2734 168.984 92.1953 168.984C94.0078 168.984 95.4375 168.281 96.4844 166.875C97.5469 165.469 98.0781 163.453 98.0781 160.828V159.82ZM133.375 160.898C133.375 163.57 132.852 165.93 131.805 167.977C130.758 170.023 129.258 171.602 127.305 172.711C125.367 173.82 123.164 174.375 120.695 174.375C118.211 174.375 115.992 173.828 114.039 172.734C112.102 171.641 110.602 170.086 109.539 168.07C108.477 166.039 107.938 163.703 107.922 161.062V159.844C107.922 157.156 108.445 154.789 109.492 152.742C110.539 150.695 112.031 149.117 113.969 148.008C115.906 146.883 118.133 146.32 120.648 146.32C123.117 146.32 125.312 146.867 127.234 147.961C129.172 149.055 130.672 150.625 131.734 152.672C132.812 154.703 133.359 157.047 133.375 159.703V160.898ZM126.578 159.82C126.578 157.227 126.055 155.234 125.008 153.844C123.977 152.453 122.523 151.758 120.648 151.758C118.711 151.758 117.234 152.453 116.219 153.844C115.219 155.234 114.719 157.227 114.719 159.82V160.898C114.719 163.445 115.234 165.43 116.266 166.852C117.297 168.273 118.773 168.984 120.695 168.984C122.508 168.984 123.938 168.281 124.984 166.875C126.047 165.469 126.578 163.453 126.578 160.828V159.82ZM144.039 168.562H156.484V174H137.242V146.695H144.039V168.562ZM174.789 166.664C174.789 165.758 174.406 165.031 173.641 164.484C172.875 163.938 171.57 163.445 169.727 163.008C167.883 162.57 166.328 162.109 165.062 161.625C163.812 161.125 162.781 160.539 161.969 159.867C161.156 159.195 160.555 158.422 160.164 157.547C159.773 156.656 159.578 155.602 159.578 154.383C159.578 152.039 160.555 150.109 162.508 148.594C164.461 147.078 166.977 146.32 170.055 146.32C173.414 146.32 176.125 147.086 178.188 148.617C180.266 150.133 181.305 152.211 181.305 154.852H174.531C174.531 153.852 174.125 153.016 173.312 152.344C172.516 151.672 171.438 151.336 170.078 151.336C168.875 151.336 167.898 151.602 167.148 152.133C166.398 152.664 166.023 153.328 166.023 154.125C166.023 154.922 166.414 155.57 167.195 156.07C167.977 156.555 169.273 157.023 171.086 157.477C174.727 158.273 177.328 159.375 178.891 160.781C180.469 162.188 181.258 164.086 181.258 166.477C181.258 168.914 180.297 170.844 178.375 172.266C176.453 173.672 173.828 174.375 170.5 174.375C168.234 174.375 166.188 174.008 164.359 173.273C162.531 172.539 161.117 171.492 160.117 170.133C159.133 168.773 158.641 167.164 158.641 165.305H165.438C165.438 166.758 165.883 167.805 166.773 168.445C167.68 169.086 169.031 169.406 170.828 169.406C172.047 169.406 173.008 169.156 173.711 168.656C174.43 168.156 174.789 167.492 174.789 166.664ZM185.945 170.672C185.945 169.594 186.305 168.719 187.023 168.047C187.758 167.375 188.672 167.039 189.766 167.039C190.875 167.039 191.789 167.375 192.508 168.047C193.242 168.719 193.609 169.594 193.609 170.672C193.609 171.734 193.25 172.602 192.531 173.273C191.812 173.93 190.891 174.258 189.766 174.258C188.656 174.258 187.742 173.93 187.023 173.273C186.305 172.602 185.945 171.734 185.945 170.672ZM185.945 151.477C185.945 150.398 186.305 149.523 187.023 148.852C187.758 148.18 188.672 147.844 189.766 147.844C190.875 147.844 191.789 148.18 192.508 148.852C193.242 149.523 193.609 150.398 193.609 151.477C193.609 152.539 193.25 153.406 192.531 154.078C191.812 154.734 190.891 155.062 189.766 155.062C188.656 155.062 187.742 154.734 187.023 154.078C186.305 153.406 185.945 152.539 185.945 151.477Z" fill="#FF005C"/>
<path d="M222.346 163.98V174H218.971V148.406H228.41C231.211 148.406 233.402 149.121 234.984 150.551C236.578 151.98 237.375 153.873 237.375 156.229C237.375 158.713 236.596 160.629 235.037 161.977C233.49 163.312 231.27 163.98 228.375 163.98H222.346ZM222.346 161.221H228.41C230.215 161.221 231.598 160.799 232.559 159.955C233.52 159.1 234 157.869 234 156.264C234 154.74 233.52 153.521 232.559 152.607C231.598 151.693 230.279 151.219 228.604 151.184H222.346V161.221ZM247.676 169.236L252.105 154.98H255.586L247.939 176.936C246.756 180.1 244.875 181.682 242.297 181.682L241.682 181.629L240.469 181.4V178.764L241.348 178.834C242.449 178.834 243.305 178.611 243.914 178.166C244.535 177.721 245.045 176.906 245.443 175.723L246.164 173.789L239.379 154.98H242.93L247.676 169.236ZM277.84 165.879C277.523 168.586 276.521 170.678 274.834 172.154C273.158 173.619 270.926 174.352 268.137 174.352C265.113 174.352 262.688 173.268 260.859 171.1C259.043 168.932 258.135 166.031 258.135 162.398V159.938C258.135 157.559 258.557 155.467 259.4 153.662C260.256 151.857 261.463 150.475 263.021 149.514C264.58 148.541 266.385 148.055 268.436 148.055C271.154 148.055 273.334 148.816 274.975 150.34C276.615 151.852 277.57 153.949 277.84 156.633H274.447C274.154 154.594 273.516 153.117 272.531 152.203C271.559 151.289 270.193 150.832 268.436 150.832C266.279 150.832 264.586 151.629 263.355 153.223C262.137 154.816 261.527 157.084 261.527 160.025V162.504C261.527 165.281 262.107 167.49 263.268 169.131C264.428 170.771 266.051 171.592 268.137 171.592C270.012 171.592 271.447 171.17 272.443 170.326C273.451 169.471 274.119 167.988 274.447 165.879H277.84ZM285.205 157.283C286.646 155.514 288.521 154.629 290.83 154.629C294.85 154.629 296.877 156.896 296.912 161.432V174H293.66V161.414C293.648 160.043 293.332 159.029 292.711 158.373C292.102 157.717 291.146 157.389 289.846 157.389C288.791 157.389 287.865 157.67 287.068 158.232C286.271 158.795 285.65 159.533 285.205 160.447V174H281.953V147H285.205V157.283ZM313.523 174C313.336 173.625 313.184 172.957 313.066 171.996C311.555 173.566 309.75 174.352 307.652 174.352C305.777 174.352 304.236 173.824 303.029 172.77C301.834 171.703 301.236 170.355 301.236 168.727C301.236 166.746 301.986 165.211 303.486 164.121C304.998 163.02 307.119 162.469 309.85 162.469H313.014V160.975C313.014 159.838 312.674 158.936 311.994 158.268C311.314 157.588 310.312 157.248 308.988 157.248C307.828 157.248 306.855 157.541 306.07 158.127C305.285 158.713 304.893 159.422 304.893 160.254H301.623C301.623 159.305 301.957 158.391 302.625 157.512C303.305 156.621 304.219 155.918 305.367 155.402C306.527 154.887 307.799 154.629 309.182 154.629C311.373 154.629 313.09 155.18 314.332 156.281C315.574 157.371 316.219 158.877 316.266 160.799V169.553C316.266 171.299 316.488 172.688 316.934 173.719V174H313.523ZM308.127 171.521C309.146 171.521 310.113 171.258 311.027 170.73C311.941 170.203 312.604 169.518 313.014 168.674V164.771H310.465C306.48 164.771 304.488 165.938 304.488 168.27C304.488 169.289 304.828 170.086 305.508 170.66C306.188 171.234 307.061 171.521 308.127 171.521ZM330.557 157.898C330.064 157.816 329.531 157.775 328.957 157.775C326.824 157.775 325.377 158.684 324.615 160.5V174H321.363V154.98H324.527L324.58 157.178C325.646 155.479 327.158 154.629 329.115 154.629C329.748 154.629 330.229 154.711 330.557 154.875V157.898ZM336.621 154.98L336.709 157.09C338.104 155.449 339.984 154.629 342.352 154.629C345.012 154.629 346.822 155.648 347.783 157.688C348.416 156.773 349.236 156.035 350.244 155.473C351.264 154.91 352.465 154.629 353.848 154.629C358.02 154.629 360.141 156.838 360.211 161.256V174H356.959V161.449C356.959 160.09 356.648 159.076 356.027 158.408C355.406 157.729 354.363 157.389 352.898 157.389C351.691 157.389 350.689 157.752 349.893 158.479C349.096 159.193 348.633 160.16 348.504 161.379V174H345.234V161.537C345.234 158.771 343.881 157.389 341.174 157.389C339.041 157.389 337.582 158.297 336.797 160.113V174H333.545V154.98H336.621ZM365.027 179.098L363.182 177.832C364.283 176.297 364.857 174.715 364.904 173.086V170.15H368.086V172.699C368.086 173.883 367.793 175.066 367.207 176.25C366.633 177.434 365.906 178.383 365.027 179.098ZM395.771 167.32H385.049L382.641 174H379.16L388.934 148.406H391.887L401.678 174H398.215L395.771 167.32ZM386.068 164.543H394.77L390.41 152.572L386.068 164.543ZM408.709 150.375V154.98H412.26V157.494H408.709V169.289C408.709 170.051 408.867 170.625 409.184 171.012C409.5 171.387 410.039 171.574 410.801 171.574C411.176 171.574 411.691 171.504 412.348 171.363V174C411.492 174.234 410.66 174.352 409.852 174.352C408.398 174.352 407.303 173.912 406.564 173.033C405.826 172.154 405.457 170.906 405.457 169.289V157.494H401.994V154.98H405.457V150.375H408.709ZM414.861 164.314C414.861 162.451 415.225 160.775 415.951 159.287C416.689 157.799 417.709 156.65 419.01 155.842C420.322 155.033 421.816 154.629 423.492 154.629C426.082 154.629 428.174 155.525 429.768 157.318C431.373 159.111 432.176 161.496 432.176 164.473V164.701C432.176 166.553 431.818 168.217 431.104 169.693C430.4 171.158 429.387 172.301 428.062 173.121C426.75 173.941 425.238 174.352 423.527 174.352C420.949 174.352 418.857 173.455 417.252 171.662C415.658 169.869 414.861 167.496 414.861 164.543V164.314ZM418.131 164.701C418.131 166.811 418.617 168.504 419.59 169.781C420.574 171.059 421.887 171.697 423.527 171.697C425.18 171.697 426.492 171.053 427.465 169.764C428.438 168.463 428.924 166.646 428.924 164.314C428.924 162.229 428.426 160.541 427.43 159.252C426.445 157.951 425.133 157.301 423.492 157.301C421.887 157.301 420.592 157.939 419.607 159.217C418.623 160.494 418.131 162.322 418.131 164.701ZM439.312 154.98L439.4 157.09C440.795 155.449 442.676 154.629 445.043 154.629C447.703 154.629 449.514 155.648 450.475 157.688C451.107 156.773 451.928 156.035 452.936 155.473C453.955 154.91 455.156 154.629 456.539 154.629C460.711 154.629 462.832 156.838 462.902 161.256V174H459.65V161.449C459.65 160.09 459.34 159.076 458.719 158.408C458.098 157.729 457.055 157.389 455.59 157.389C454.383 157.389 453.381 157.752 452.584 158.479C451.787 159.193 451.324 160.16 451.195 161.379V174H447.926V161.537C447.926 158.771 446.572 157.389 443.865 157.389C441.732 157.389 440.273 158.297 439.488 160.113V174H436.236V154.98H439.312ZM467.719 179.098L465.873 177.832C466.975 176.297 467.549 174.715 467.596 173.086V170.15H470.777V172.699C470.777 173.883 470.484 175.066 469.898 176.25C469.324 177.434 468.598 178.383 467.719 179.098ZM495.053 148.406H498.445V166.529C498.445 168.979 497.707 170.895 496.23 172.277C494.766 173.66 492.809 174.352 490.359 174.352C487.816 174.352 485.836 173.701 484.418 172.4C483 171.1 482.291 169.277 482.291 166.934H485.666C485.666 168.398 486.064 169.541 486.861 170.361C487.67 171.182 488.836 171.592 490.359 171.592C491.754 171.592 492.879 171.152 493.734 170.273C494.602 169.395 495.041 168.164 495.053 166.582V148.406ZM511.576 174.352C508.998 174.352 506.9 173.508 505.283 171.82C503.666 170.121 502.857 167.854 502.857 165.018V164.42C502.857 162.533 503.215 160.852 503.93 159.375C504.656 157.887 505.664 156.727 506.953 155.895C508.254 155.051 509.66 154.629 511.172 154.629C513.645 154.629 515.566 155.443 516.938 157.072C518.309 158.701 518.994 161.033 518.994 164.068V165.422H506.109C506.156 167.297 506.701 168.814 507.744 169.975C508.799 171.123 510.135 171.697 511.752 171.697C512.9 171.697 513.873 171.463 514.67 170.994C515.467 170.525 516.164 169.904 516.762 169.131L518.748 170.678C517.154 173.127 514.764 174.352 511.576 174.352ZM511.172 157.301C509.859 157.301 508.758 157.781 507.867 158.742C506.977 159.691 506.426 161.027 506.215 162.75H515.742V162.504C515.648 160.852 515.203 159.574 514.406 158.672C513.609 157.758 512.531 157.301 511.172 157.301ZM527.186 150.375V154.98H530.736V157.494H527.186V169.289C527.186 170.051 527.344 170.625 527.66 171.012C527.977 171.387 528.516 171.574 529.277 171.574C529.652 171.574 530.168 171.504 530.824 171.363V174C529.969 174.234 529.137 174.352 528.328 174.352C526.875 174.352 525.779 173.912 525.041 173.033C524.303 172.154 523.934 170.906 523.934 169.289V157.494H520.471V154.98H523.934V150.375H527.186ZM535.061 174V148.406H543.428C546.205 148.406 548.291 148.98 549.686 150.129C551.092 151.277 551.795 152.977 551.795 155.227C551.795 156.422 551.455 157.482 550.775 158.408C550.096 159.322 549.17 160.031 547.998 160.535C549.381 160.922 550.471 161.66 551.268 162.75C552.076 163.828 552.48 165.117 552.48 166.617C552.48 168.914 551.736 170.719 550.248 172.031C548.76 173.344 546.656 174 543.938 174H535.061ZM538.436 162.029V171.24H544.008C545.578 171.24 546.814 170.836 547.717 170.027C548.631 169.207 549.088 168.082 549.088 166.652C549.088 163.57 547.412 162.029 544.061 162.029H538.436ZM538.436 159.322H543.533C545.01 159.322 546.188 158.953 547.066 158.215C547.957 157.477 548.402 156.475 548.402 155.209C548.402 153.803 547.992 152.783 547.172 152.15C546.352 151.506 545.104 151.184 543.428 151.184H538.436V159.322ZM566.174 157.898C565.682 157.816 565.148 157.775 564.574 157.775C562.441 157.775 560.994 158.684 560.232 160.5V174H556.98V154.98H560.145L560.197 157.178C561.264 155.479 562.775 154.629 564.732 154.629C565.365 154.629 565.846 154.711 566.174 154.875V157.898ZM580.219 174C580.031 173.625 579.879 172.957 579.762 171.996C578.25 173.566 576.445 174.352 574.348 174.352C572.473 174.352 570.932 173.824 569.725 172.77C568.529 171.703 567.932 170.355 567.932 168.727C567.932 166.746 568.682 165.211 570.182 164.121C571.693 163.02 573.814 162.469 576.545 162.469H579.709V160.975C579.709 159.838 579.369 158.936 578.689 158.268C578.01 157.588 577.008 157.248 575.684 157.248C574.523 157.248 573.551 157.541 572.766 158.127C571.98 158.713 571.588 159.422 571.588 160.254H568.318C568.318 159.305 568.652 158.391 569.32 157.512C570 156.621 570.914 155.918 572.062 155.402C573.223 154.887 574.494 154.629 575.877 154.629C578.068 154.629 579.785 155.18 581.027 156.281C582.27 157.371 582.914 158.877 582.961 160.799V169.553C582.961 171.299 583.184 172.688 583.629 173.719V174H580.219ZM574.822 171.521C575.842 171.521 576.809 171.258 577.723 170.73C578.637 170.203 579.299 169.518 579.709 168.674V164.771H577.16C573.176 164.771 571.184 165.938 571.184 168.27C571.184 169.289 571.523 170.086 572.203 170.66C572.883 171.234 573.756 171.521 574.822 171.521ZM591.592 174H588.34V154.98H591.592V174ZM588.076 149.936C588.076 149.408 588.234 148.963 588.551 148.6C588.879 148.236 589.359 148.055 589.992 148.055C590.625 148.055 591.105 148.236 591.434 148.6C591.762 148.963 591.926 149.408 591.926 149.936C591.926 150.463 591.762 150.902 591.434 151.254C591.105 151.605 590.625 151.781 589.992 151.781C589.359 151.781 588.879 151.605 588.551 151.254C588.234 150.902 588.076 150.463 588.076 149.936ZM599.889 154.98L599.994 157.371C601.447 155.543 603.346 154.629 605.689 154.629C609.709 154.629 611.736 156.896 611.771 161.432V174H608.52V161.414C608.508 160.043 608.191 159.029 607.57 158.373C606.961 157.717 606.006 157.389 604.705 157.389C603.65 157.389 602.725 157.67 601.928 158.232C601.131 158.795 600.51 159.533 600.064 160.447V174H596.812V154.98H599.889ZM627.75 168.955C627.75 168.076 627.416 167.396 626.748 166.916C626.092 166.424 624.938 166.002 623.285 165.65C621.645 165.299 620.338 164.877 619.365 164.385C618.404 163.893 617.689 163.307 617.221 162.627C616.764 161.947 616.535 161.139 616.535 160.201C616.535 158.643 617.191 157.324 618.504 156.246C619.828 155.168 621.516 154.629 623.566 154.629C625.723 154.629 627.469 155.186 628.805 156.299C630.152 157.412 630.826 158.836 630.826 160.57H627.557C627.557 159.68 627.176 158.912 626.414 158.268C625.664 157.623 624.715 157.301 623.566 157.301C622.383 157.301 621.457 157.559 620.789 158.074C620.121 158.59 619.787 159.264 619.787 160.096C619.787 160.881 620.098 161.473 620.719 161.871C621.34 162.27 622.459 162.65 624.076 163.014C625.705 163.377 627.023 163.811 628.031 164.314C629.039 164.818 629.783 165.428 630.264 166.143C630.756 166.846 631.002 167.707 631.002 168.727C631.002 170.426 630.322 171.791 628.963 172.822C627.604 173.842 625.84 174.352 623.672 174.352C622.148 174.352 620.801 174.082 619.629 173.543C618.457 173.004 617.537 172.254 616.869 171.293C616.213 170.32 615.885 169.271 615.885 168.146H619.137C619.195 169.236 619.629 170.104 620.438 170.748C621.258 171.381 622.336 171.697 623.672 171.697C624.902 171.697 625.887 171.451 626.625 170.959C627.375 170.455 627.75 169.787 627.75 168.955ZM652.219 162.592C649.324 161.76 647.215 160.74 645.891 159.533C644.578 158.314 643.922 156.814 643.922 155.033C643.922 153.018 644.725 151.354 646.33 150.041C647.947 148.717 650.045 148.055 652.623 148.055C654.381 148.055 655.945 148.395 657.316 149.074C658.699 149.754 659.766 150.691 660.516 151.887C661.277 153.082 661.658 154.389 661.658 155.807H658.266C658.266 154.26 657.773 153.047 656.789 152.168C655.805 151.277 654.416 150.832 652.623 150.832C650.959 150.832 649.658 151.201 648.721 151.939C647.795 152.666 647.332 153.68 647.332 154.98C647.332 156.023 647.771 156.908 648.65 157.635C649.541 158.35 651.047 159.006 653.168 159.604C655.301 160.201 656.965 160.863 658.16 161.59C659.367 162.305 660.258 163.143 660.832 164.104C661.418 165.064 661.711 166.195 661.711 167.496C661.711 169.57 660.902 171.234 659.285 172.488C657.668 173.73 655.506 174.352 652.799 174.352C651.041 174.352 649.4 174.018 647.877 173.35C646.354 172.67 645.176 171.744 644.344 170.572C643.523 169.4 643.113 168.07 643.113 166.582H646.506C646.506 168.129 647.074 169.354 648.211 170.256C649.359 171.146 650.889 171.592 652.799 171.592C654.58 171.592 655.945 171.229 656.895 170.502C657.844 169.775 658.318 168.785 658.318 167.531C658.318 166.277 657.879 165.311 657 164.631C656.121 163.939 654.527 163.26 652.219 162.592ZM681.609 164.701C681.609 167.596 680.947 169.928 679.623 171.697C678.299 173.467 676.506 174.352 674.244 174.352C671.936 174.352 670.119 173.619 668.795 172.154V181.312H665.543V154.98H668.514L668.672 157.09C669.996 155.449 671.836 154.629 674.191 154.629C676.477 154.629 678.281 155.49 679.605 157.213C680.941 158.936 681.609 161.332 681.609 164.402V164.701ZM678.357 164.332C678.357 162.188 677.9 160.494 676.986 159.252C676.072 158.01 674.818 157.389 673.225 157.389C671.256 157.389 669.779 158.262 668.795 160.008V169.096C669.768 170.83 671.256 171.697 673.26 171.697C674.818 171.697 676.055 171.082 676.969 169.852C677.895 168.609 678.357 166.77 678.357 164.332ZM697.5 174C697.312 173.625 697.16 172.957 697.043 171.996C695.531 173.566 693.727 174.352 691.629 174.352C689.754 174.352 688.213 173.824 687.006 172.77C685.811 171.703 685.213 170.355 685.213 168.727C685.213 166.746 685.963 165.211 687.463 164.121C688.975 163.02 691.096 162.469 693.826 162.469H696.99V160.975C696.99 159.838 696.65 158.936 695.971 158.268C695.291 157.588 694.289 157.248 692.965 157.248C691.805 157.248 690.832 157.541 690.047 158.127C689.262 158.713 688.869 159.422 688.869 160.254H685.6C685.6 159.305 685.934 158.391 686.602 157.512C687.281 156.621 688.195 155.918 689.344 155.402C690.504 154.887 691.775 154.629 693.158 154.629C695.35 154.629 697.066 155.18 698.309 156.281C699.551 157.371 700.195 158.877 700.242 160.799V169.553C700.242 171.299 700.465 172.688 700.91 173.719V174H697.5ZM692.104 171.521C693.123 171.521 694.09 171.258 695.004 170.73C695.918 170.203 696.58 169.518 696.99 168.674V164.771H694.441C690.457 164.771 688.465 165.938 688.465 168.27C688.465 169.289 688.805 170.086 689.484 170.66C690.164 171.234 691.037 171.521 692.104 171.521ZM712.969 171.697C714.129 171.697 715.143 171.346 716.01 170.643C716.877 169.939 717.357 169.061 717.451 168.006H720.527C720.469 169.096 720.094 170.133 719.402 171.117C718.711 172.102 717.785 172.887 716.625 173.473C715.477 174.059 714.258 174.352 712.969 174.352C710.379 174.352 708.316 173.49 706.781 171.768C705.258 170.033 704.496 167.666 704.496 164.666V164.121C704.496 162.27 704.836 160.623 705.516 159.182C706.195 157.74 707.168 156.621 708.434 155.824C709.711 155.027 711.217 154.629 712.951 154.629C715.084 154.629 716.854 155.268 718.26 156.545C719.678 157.822 720.434 159.48 720.527 161.52H717.451C717.357 160.289 716.889 159.281 716.045 158.496C715.213 157.699 714.182 157.301 712.951 157.301C711.299 157.301 710.016 157.898 709.102 159.094C708.199 160.277 707.748 161.994 707.748 164.244V164.859C707.748 167.051 708.199 168.738 709.102 169.922C710.004 171.105 711.293 171.697 712.969 171.697ZM732.076 174.352C729.498 174.352 727.4 173.508 725.783 171.82C724.166 170.121 723.357 167.854 723.357 165.018V164.42C723.357 162.533 723.715 160.852 724.43 159.375C725.156 157.887 726.164 156.727 727.453 155.895C728.754 155.051 730.16 154.629 731.672 154.629C734.145 154.629 736.066 155.443 737.438 157.072C738.809 158.701 739.494 161.033 739.494 164.068V165.422H726.609C726.656 167.297 727.201 168.814 728.244 169.975C729.299 171.123 730.635 171.697 732.252 171.697C733.4 171.697 734.373 171.463 735.17 170.994C735.967 170.525 736.664 169.904 737.262 169.131L739.248 170.678C737.654 173.127 735.264 174.352 732.076 174.352ZM731.672 157.301C730.359 157.301 729.258 157.781 728.367 158.742C727.477 159.691 726.926 161.027 726.715 162.75H736.242V162.504C736.148 160.852 735.703 159.574 734.906 158.672C734.109 157.758 733.031 157.301 731.672 157.301ZM743.168 179.098L741.322 177.832C742.424 176.297 742.998 174.715 743.045 173.086V170.15H746.227V172.699C746.227 173.883 745.934 175.066 745.348 176.25C744.773 177.434 744.047 178.383 743.168 179.098ZM233.086 204.697H222.346V216H218.971V190.406H234.826V193.184H222.346V201.938H233.086V204.697ZM241.893 216H238.641V196.98H241.893V216ZM238.377 191.936C238.377 191.408 238.535 190.963 238.852 190.6C239.18 190.236 239.66 190.055 240.293 190.055C240.926 190.055 241.406 190.236 241.734 190.6C242.062 190.963 242.227 191.408 242.227 191.936C242.227 192.463 242.062 192.902 241.734 193.254C241.406 193.605 240.926 193.781 240.293 193.781C239.66 193.781 239.18 193.605 238.852 193.254C238.535 192.902 238.377 192.463 238.377 191.936ZM246.34 206.332C246.34 203.367 247.025 201.012 248.396 199.266C249.768 197.508 251.584 196.629 253.846 196.629C256.166 196.629 257.977 197.449 259.277 199.09L259.436 196.98H262.406V215.543C262.406 218.004 261.674 219.943 260.209 221.361C258.756 222.779 256.799 223.488 254.338 223.488C252.967 223.488 251.625 223.195 250.312 222.609C249 222.023 247.998 221.221 247.307 220.201L248.994 218.25C250.389 219.973 252.094 220.834 254.109 220.834C255.691 220.834 256.922 220.389 257.801 219.498C258.691 218.607 259.137 217.354 259.137 215.736V214.102C257.836 215.602 256.061 216.352 253.811 216.352C251.584 216.352 249.779 215.455 248.396 213.662C247.025 211.869 246.34 209.426 246.34 206.332ZM249.609 206.701C249.609 208.846 250.049 210.533 250.928 211.764C251.807 212.982 253.037 213.592 254.619 213.592C256.67 213.592 258.176 212.66 259.137 210.797V202.113C258.141 200.297 256.646 199.389 254.654 199.389C253.072 199.389 251.836 200.004 250.945 201.234C250.055 202.465 249.609 204.287 249.609 206.701ZM270.387 196.98L270.475 199.09C271.869 197.449 273.75 196.629 276.117 196.629C278.777 196.629 280.588 197.648 281.549 199.688C282.182 198.773 283.002 198.035 284.01 197.473C285.029 196.91 286.23 196.629 287.613 196.629C291.785 196.629 293.906 198.838 293.977 203.256V216H290.725V203.449C290.725 202.09 290.414 201.076 289.793 200.408C289.172 199.729 288.129 199.389 286.664 199.389C285.457 199.389 284.455 199.752 283.658 200.479C282.861 201.193 282.398 202.16 282.27 203.379V216H279V203.537C279 200.771 277.646 199.389 274.939 199.389C272.807 199.389 271.348 200.297 270.562 202.113V216H267.311V196.98H270.387ZM310.641 216C310.453 215.625 310.301 214.957 310.184 213.996C308.672 215.566 306.867 216.352 304.77 216.352C302.895 216.352 301.354 215.824 300.146 214.77C298.951 213.703 298.354 212.355 298.354 210.727C298.354 208.746 299.104 207.211 300.604 206.121C302.115 205.02 304.236 204.469 306.967 204.469H310.131V202.975C310.131 201.838 309.791 200.936 309.111 200.268C308.432 199.588 307.43 199.248 306.105 199.248C304.945 199.248 303.973 199.541 303.188 200.127C302.402 200.713 302.01 201.422 302.01 202.254H298.74C298.74 201.305 299.074 200.391 299.742 199.512C300.422 198.621 301.336 197.918 302.484 197.402C303.645 196.887 304.916 196.629 306.299 196.629C308.49 196.629 310.207 197.18 311.449 198.281C312.691 199.371 313.336 200.877 313.383 202.799V211.553C313.383 213.299 313.605 214.688 314.051 215.719V216H310.641ZM305.244 213.521C306.264 213.521 307.23 213.258 308.145 212.73C309.059 212.203 309.721 211.518 310.131 210.674V206.771H307.582C303.598 206.771 301.605 207.938 301.605 210.27C301.605 211.289 301.945 212.086 302.625 212.66C303.305 213.234 304.178 213.521 305.244 213.521ZM318.375 221.098L316.529 219.832C317.631 218.297 318.205 216.715 318.252 215.086V212.15H321.434V214.699C321.434 215.883 321.141 217.066 320.555 218.25C319.98 219.434 319.254 220.383 318.375 221.098ZM342.527 204.592C339.633 203.76 337.523 202.74 336.199 201.533C334.887 200.314 334.23 198.814 334.23 197.033C334.23 195.018 335.033 193.354 336.639 192.041C338.256 190.717 340.354 190.055 342.932 190.055C344.689 190.055 346.254 190.395 347.625 191.074C349.008 191.754 350.074 192.691 350.824 193.887C351.586 195.082 351.967 196.389 351.967 197.807H348.574C348.574 196.26 348.082 195.047 347.098 194.168C346.113 193.277 344.725 192.832 342.932 192.832C341.268 192.832 339.967 193.201 339.029 193.939C338.104 194.666 337.641 195.68 337.641 196.98C337.641 198.023 338.08 198.908 338.959 199.635C339.85 200.35 341.355 201.006 343.477 201.604C345.609 202.201 347.273 202.863 348.469 203.59C349.676 204.305 350.566 205.143 351.141 206.104C351.727 207.064 352.02 208.195 352.02 209.496C352.02 211.57 351.211 213.234 349.594 214.488C347.977 215.73 345.814 216.352 343.107 216.352C341.35 216.352 339.709 216.018 338.186 215.35C336.662 214.67 335.484 213.744 334.652 212.572C333.832 211.4 333.422 210.07 333.422 208.582H336.814C336.814 210.129 337.383 211.354 338.52 212.256C339.668 213.146 341.197 213.592 343.107 213.592C344.889 213.592 346.254 213.229 347.203 212.502C348.152 211.775 348.627 210.785 348.627 209.531C348.627 208.277 348.188 207.311 347.309 206.631C346.43 205.939 344.836 205.26 342.527 204.592ZM354.99 206.314C354.99 204.451 355.354 202.775 356.08 201.287C356.818 199.799 357.838 198.65 359.139 197.842C360.451 197.033 361.945 196.629 363.621 196.629C366.211 196.629 368.303 197.525 369.896 199.318C371.502 201.111 372.305 203.496 372.305 206.473V206.701C372.305 208.553 371.947 210.217 371.232 211.693C370.529 213.158 369.516 214.301 368.191 215.121C366.879 215.941 365.367 216.352 363.656 216.352C361.078 216.352 358.986 215.455 357.381 213.662C355.787 211.869 354.99 209.496 354.99 206.543V206.314ZM358.26 206.701C358.26 208.811 358.746 210.504 359.719 211.781C360.703 213.059 362.016 213.697 363.656 213.697C365.309 213.697 366.621 213.053 367.594 211.764C368.566 210.463 369.053 208.646 369.053 206.314C369.053 204.229 368.555 202.541 367.559 201.252C366.574 199.951 365.262 199.301 363.621 199.301C362.016 199.301 360.721 199.939 359.736 201.217C358.752 202.494 358.26 204.322 358.26 206.701ZM379.916 216H376.664V189H379.916V216ZM396.879 216C396.691 215.625 396.539 214.957 396.422 213.996C394.91 215.566 393.105 216.352 391.008 216.352C389.133 216.352 387.592 215.824 386.385 214.77C385.189 213.703 384.592 212.355 384.592 210.727C384.592 208.746 385.342 207.211 386.842 206.121C388.354 205.02 390.475 204.469 393.205 204.469H396.369V202.975C396.369 201.838 396.029 200.936 395.35 200.268C394.67 199.588 393.668 199.248 392.344 199.248C391.184 199.248 390.211 199.541 389.426 200.127C388.641 200.713 388.248 201.422 388.248 202.254H384.979C384.979 201.305 385.312 200.391 385.98 199.512C386.66 198.621 387.574 197.918 388.723 197.402C389.883 196.887 391.154 196.629 392.537 196.629C394.729 196.629 396.445 197.18 397.688 198.281C398.93 199.371 399.574 200.877 399.621 202.799V211.553C399.621 213.299 399.844 214.688 400.289 215.719V216H396.879ZM391.482 213.521C392.502 213.521 393.469 213.258 394.383 212.73C395.297 212.203 395.959 211.518 396.369 210.674V206.771H393.82C389.836 206.771 387.844 207.938 387.844 210.27C387.844 211.289 388.184 212.086 388.863 212.66C389.543 213.234 390.416 213.521 391.482 213.521ZM413.912 199.898C413.42 199.816 412.887 199.775 412.312 199.775C410.18 199.775 408.732 200.684 407.971 202.5V216H404.719V196.98H407.883L407.936 199.178C409.002 197.479 410.514 196.629 412.471 196.629C413.104 196.629 413.584 196.711 413.912 196.875V199.898ZM423.686 206.455H415.107V203.801H423.686V206.455ZM430.752 205.98V216H427.377V190.406H436.816C439.617 190.406 441.809 191.121 443.391 192.551C444.984 193.98 445.781 195.873 445.781 198.229C445.781 200.713 445.002 202.629 443.443 203.977C441.896 205.312 439.676 205.98 436.781 205.98H430.752ZM430.752 203.221H436.816C438.621 203.221 440.004 202.799 440.965 201.955C441.926 201.1 442.406 199.869 442.406 198.264C442.406 196.74 441.926 195.521 440.965 194.607C440.004 193.693 438.686 193.219 437.01 193.184H430.752V203.221ZM461.32 214.119C460.055 215.607 458.197 216.352 455.748 216.352C453.721 216.352 452.174 215.766 451.107 214.594C450.053 213.41 449.52 211.664 449.508 209.355V196.98H452.76V209.268C452.76 212.15 453.932 213.592 456.275 213.592C458.76 213.592 460.412 212.666 461.232 210.814V196.98H464.484V216H461.391L461.32 214.119ZM487.635 193.184H479.408V216H476.051V193.184H467.842V190.406H487.635V193.184ZM509.396 193.184H501.17V216H497.812V193.184H489.604V190.406H509.396V193.184ZM521.279 203.256L527.959 190.406H531.791L522.967 206.455V216H519.592V206.455L510.768 190.406H514.635L521.279 203.256ZM530.754 221.098L528.908 219.832C530.01 218.297 530.584 216.715 530.631 215.086V212.15H533.812V214.699C533.812 215.883 533.52 217.066 532.934 218.25C532.359 219.434 531.633 220.383 530.754 221.098ZM554.906 204.592C552.012 203.76 549.902 202.74 548.578 201.533C547.266 200.314 546.609 198.814 546.609 197.033C546.609 195.018 547.412 193.354 549.018 192.041C550.635 190.717 552.732 190.055 555.311 190.055C557.068 190.055 558.633 190.395 560.004 191.074C561.387 191.754 562.453 192.691 563.203 193.887C563.965 195.082 564.346 196.389 564.346 197.807H560.953C560.953 196.26 560.461 195.047 559.477 194.168C558.492 193.277 557.104 192.832 555.311 192.832C553.646 192.832 552.346 193.201 551.408 193.939C550.482 194.666 550.02 195.68 550.02 196.98C550.02 198.023 550.459 198.908 551.338 199.635C552.229 200.35 553.734 201.006 555.855 201.604C557.988 202.201 559.652 202.863 560.848 203.59C562.055 204.305 562.945 205.143 563.52 206.104C564.105 207.064 564.398 208.195 564.398 209.496C564.398 211.57 563.59 213.234 561.973 214.488C560.355 215.73 558.193 216.352 555.486 216.352C553.729 216.352 552.088 216.018 550.564 215.35C549.041 214.67 547.863 213.744 547.031 212.572C546.211 211.4 545.801 210.07 545.801 208.582H549.193C549.193 210.129 549.762 211.354 550.898 212.256C552.047 213.146 553.576 213.592 555.486 213.592C557.268 213.592 558.633 213.229 559.582 212.502C560.531 211.775 561.006 210.785 561.006 209.531C561.006 208.277 560.566 207.311 559.688 206.631C558.809 205.939 557.215 205.26 554.906 204.592ZM571.764 216H568.512V196.98H571.764V216ZM568.248 191.936C568.248 191.408 568.406 190.963 568.723 190.6C569.051 190.236 569.531 190.055 570.164 190.055C570.797 190.055 571.277 190.236 571.605 190.6C571.934 190.963 572.098 191.408 572.098 191.936C572.098 192.463 571.934 192.902 571.605 193.254C571.277 193.605 570.797 193.781 570.164 193.781C569.531 193.781 569.051 193.605 568.723 193.254C568.406 192.902 568.248 192.463 568.248 191.936ZM580.043 196.98L580.131 199.09C581.525 197.449 583.406 196.629 585.773 196.629C588.434 196.629 590.244 197.648 591.205 199.688C591.838 198.773 592.658 198.035 593.666 197.473C594.686 196.91 595.887 196.629 597.27 196.629C601.441 196.629 603.562 198.838 603.633 203.256V216H600.381V203.449C600.381 202.09 600.07 201.076 599.449 200.408C598.828 199.729 597.785 199.389 596.32 199.389C595.113 199.389 594.111 199.752 593.314 200.479C592.518 201.193 592.055 202.16 591.926 203.379V216H588.656V203.537C588.656 200.771 587.303 199.389 584.596 199.389C582.463 199.389 581.004 200.297 580.219 202.113V216H576.967V196.98H580.043ZM624.621 206.701C624.621 209.596 623.959 211.928 622.635 213.697C621.311 215.467 619.518 216.352 617.256 216.352C614.947 216.352 613.131 215.619 611.807 214.154V223.312H608.555V196.98H611.525L611.684 199.09C613.008 197.449 614.848 196.629 617.203 196.629C619.488 196.629 621.293 197.49 622.617 199.213C623.953 200.936 624.621 203.332 624.621 206.402V206.701ZM621.369 206.332C621.369 204.188 620.912 202.494 619.998 201.252C619.084 200.01 617.83 199.389 616.236 199.389C614.268 199.389 612.791 200.262 611.807 202.008V211.096C612.779 212.83 614.268 213.697 616.271 213.697C617.83 213.697 619.066 213.082 619.98 211.852C620.906 210.609 621.369 208.77 621.369 206.332ZM632.303 216H629.051V189H632.303V216ZM645.416 216.352C642.838 216.352 640.74 215.508 639.123 213.82C637.506 212.121 636.697 209.854 636.697 207.018V206.42C636.697 204.533 637.055 202.852 637.77 201.375C638.496 199.887 639.504 198.727 640.793 197.895C642.094 197.051 643.5 196.629 645.012 196.629C647.484 196.629 649.406 197.443 650.777 199.072C652.148 200.701 652.834 203.033 652.834 206.068V207.422H639.949C639.996 209.297 640.541 210.814 641.584 211.975C642.639 213.123 643.975 213.697 645.592 213.697C646.74 213.697 647.713 213.463 648.51 212.994C649.307 212.525 650.004 211.904 650.602 211.131L652.588 212.678C650.994 215.127 648.604 216.352 645.416 216.352ZM645.012 199.301C643.699 199.301 642.598 199.781 641.707 200.742C640.816 201.691 640.266 203.027 640.055 204.75H649.582V204.504C649.488 202.852 649.043 201.574 648.246 200.672C647.449 199.758 646.371 199.301 645.012 199.301ZM676.793 216H673.4L660.516 196.277V216H657.123V190.406H660.516L673.436 210.217V190.406H676.793V216ZM681.416 206.314C681.416 204.451 681.779 202.775 682.506 201.287C683.244 199.799 684.264 198.65 685.564 197.842C686.877 197.033 688.371 196.629 690.047 196.629C692.637 196.629 694.729 197.525 696.322 199.318C697.928 201.111 698.73 203.496 698.73 206.473V206.701C698.73 208.553 698.373 210.217 697.658 211.693C696.955 213.158 695.941 214.301 694.617 215.121C693.305 215.941 691.793 216.352 690.082 216.352C687.504 216.352 685.412 215.455 683.807 213.662C682.213 211.869 681.416 209.496 681.416 206.543V206.314ZM684.686 206.701C684.686 208.811 685.172 210.504 686.145 211.781C687.129 213.059 688.441 213.697 690.082 213.697C691.734 213.697 693.047 213.053 694.02 211.764C694.992 210.463 695.479 208.646 695.479 206.314C695.479 204.229 694.98 202.541 693.984 201.252C693 199.951 691.688 199.301 690.047 199.301C688.441 199.301 687.146 199.939 686.162 201.217C685.178 202.494 684.686 204.322 684.686 206.701ZM707.221 192.375V196.98H710.771V199.494H707.221V211.289C707.221 212.051 707.379 212.625 707.695 213.012C708.012 213.387 708.551 213.574 709.312 213.574C709.688 213.574 710.203 213.504 710.859 213.363V216C710.004 216.234 709.172 216.352 708.363 216.352C706.91 216.352 705.814 215.912 705.076 215.033C704.338 214.154 703.969 212.906 703.969 211.289V199.494H700.506V196.98H703.969V192.375H707.221ZM722.479 216.352C719.9 216.352 717.803 215.508 716.186 213.82C714.568 212.121 713.76 209.854 713.76 207.018V206.42C713.76 204.533 714.117 202.852 714.832 201.375C715.559 199.887 716.566 198.727 717.855 197.895C719.156 197.051 720.562 196.629 722.074 196.629C724.547 196.629 726.469 197.443 727.84 199.072C729.211 200.701 729.896 203.033 729.896 206.068V207.422H717.012C717.059 209.297 717.604 210.814 718.646 211.975C719.701 213.123 721.037 213.697 722.654 213.697C723.803 213.697 724.775 213.463 725.572 212.994C726.369 212.525 727.066 211.904 727.664 211.131L729.65 212.678C728.057 215.127 725.666 216.352 722.479 216.352ZM722.074 199.301C720.762 199.301 719.66 199.781 718.77 200.742C717.879 201.691 717.328 203.027 717.117 204.75H726.645V204.504C726.551 202.852 726.105 201.574 725.309 200.672C724.512 199.758 723.434 199.301 722.074 199.301Z" fill="#00FF85"/>
<path d="M129 55.2268L443.472 37" stroke="#FF005C" stroke-width="12" stroke-linecap="round"/>
<path fill-rule="evenodd" clip-rule="evenodd" d="M55.5 20.4583C46.6406 20.4583 39.4583 27.6406 39.4583 36.5C39.4583 45.3594 46.6406 52.5417 55.5 52.5417C64.3594 52.5417 71.5417 45.3594 71.5417 36.5C71.5417 27.6406 64.3594 20.4583 55.5 20.4583ZM54.7708 27.75C54.3841 27.75 54.0131 27.9036 53.7396 28.1771C53.4662 28.4506 53.3125 28.8216 53.3125 29.2083C53.3125 29.5951 53.4662 29.966 53.7396 30.2395C54.0131 30.513 54.3841 30.6667 54.7708 30.6667H55.5C55.8868 30.6667 56.2577 30.513 56.5312 30.2395C56.8047 29.966 56.9583 29.5951 56.9583 29.2083C56.9583 28.8216 56.8047 28.4506 56.5312 28.1771C56.2577 27.9036 55.8868 27.75 55.5 27.75H54.7708ZM52.5833 33.5833C52.1966 33.5833 51.8256 33.737 51.5521 34.0105C51.2787 34.284 51.125 34.6549 51.125 35.0417C51.125 35.4284 51.2787 35.7994 51.5521 36.0729C51.8256 36.3464 52.1966 36.5 52.5833 36.5H54.0417V40.875H52.5833C52.1966 40.875 51.8256 41.0286 51.5521 41.3021C51.2787 41.5756 51.125 41.9466 51.125 42.3333C51.125 42.7201 51.2787 43.091 51.5521 43.3645C51.8256 43.638 52.1966 43.7917 52.5833 43.7917H58.4167C58.8035 43.7917 59.1744 43.638 59.4479 43.3645C59.7214 43.091 59.875 42.7201 59.875 42.3333C59.875 41.9466 59.7214 41.5756 59.4479 41.3021C59.1744 41.0286 58.8035 40.875 58.4167 40.875H56.9583V35.0417C56.9583 34.6549 56.8047 34.284 56.5312 34.0105C56.2577 33.737 55.8868 33.5833 55.5 33.5833H52.5833Z" fill="#FF005C"/>
<path d="M99.5625 50H92.7656V22.6953H99.5625V50ZM129.047 50H122.273L111.492 32.9844V50H104.695V22.6953H111.492L122.273 39.7344V22.6953H129.047V50ZM151.969 39.3594H140.508V50H133.711V22.6953H153.211V28.1797H140.508V33.8984H151.969V39.3594ZM180.938 36.8984C180.938 39.5703 180.414 41.9297 179.367 43.9766C178.32 46.0234 176.82 47.6016 174.867 48.7109C172.93 49.8203 170.727 50.375 168.258 50.375C165.773 50.375 163.555 49.8281 161.602 48.7344C159.664 47.6406 158.164 46.0859 157.102 44.0703C156.039 42.0391 155.5 39.7031 155.484 37.0625V35.8438C155.484 33.1562 156.008 30.7891 157.055 28.7422C158.102 26.6953 159.594 25.1172 161.531 24.0078C163.469 22.8828 165.695 22.3203 168.211 22.3203C170.68 22.3203 172.875 22.8672 174.797 23.9609C176.734 25.0547 178.234 26.625 179.297 28.6719C180.375 30.7031 180.922 33.0469 180.938 35.7031V36.8984ZM174.141 35.8203C174.141 33.2266 173.617 31.2344 172.57 29.8438C171.539 28.4531 170.086 27.7578 168.211 27.7578C166.273 27.7578 164.797 28.4531 163.781 29.8438C162.781 31.2344 162.281 33.2266 162.281 35.8203V36.8984C162.281 39.4453 162.797 41.4297 163.828 42.8516C164.859 44.2734 166.336 44.9844 168.258 44.9844C170.07 44.9844 171.5 44.2812 172.547 42.875C173.609 41.4688 174.141 39.4531 174.141 36.8281V35.8203ZM195.844 40.5781H191.602V50H184.805V22.6953H196.195C199.664 22.6953 202.367 23.4141 204.305 24.8516C206.242 26.2734 207.211 28.2891 207.211 30.8984C207.211 32.8359 206.805 34.4375 205.992 35.7031C205.195 36.9531 203.891 37.9766 202.078 38.7734L208.266 49.7188V50H200.953L195.844 40.5781ZM191.602 35.1172H196.195C199.023 35.1172 200.438 33.9531 200.438 31.625C200.438 29.3281 198.961 28.1797 196.008 28.1797H191.602V35.1172ZM220.5 22.6953L227.32 41.0938L234.094 22.6953H243.07V50H236.25V44.4688L236.953 30.125L229.57 50H225.047L217.688 30.1953L218.391 44.4688V50H211.57V22.6953H220.5ZM264.703 44.7969H254.133L252.211 50H245.414L256.219 22.6953H262.594L273.492 50H266.648L264.703 44.7969ZM255.961 39.8281H262.828L259.383 30.5938L255.961 39.8281ZM297.07 28.1797H288.211V50H281.414V28.1797H272.719V22.6953H297.07V28.1797ZM307.453 50H300.656V22.6953H307.453V50ZM337.219 36.8984C337.219 39.5703 336.695 41.9297 335.648 43.9766C334.602 46.0234 333.102 47.6016 331.148 48.7109C329.211 49.8203 327.008 50.375 324.539 50.375C322.055 50.375 319.836 49.8281 317.883 48.7344C315.945 47.6406 314.445 46.0859 313.383 44.0703C312.32 42.0391 311.781 39.7031 311.766 37.0625V35.8438C311.766 33.1562 312.289 30.7891 313.336 28.7422C314.383 26.6953 315.875 25.1172 317.812 24.0078C319.75 22.8828 321.977 22.3203 324.492 22.3203C326.961 22.3203 329.156 22.8672 331.078 23.9609C333.016 25.0547 334.516 26.625 335.578 28.6719C336.656 30.7031 337.203 33.0469 337.219 35.7031V36.8984ZM330.422 35.8203C330.422 33.2266 329.898 31.2344 328.852 29.8438C327.82 28.4531 326.367 27.7578 324.492 27.7578C322.555 27.7578 321.078 28.4531 320.062 29.8438C319.062 31.2344 318.562 33.2266 318.562 35.8203V36.8984C318.562 39.4453 319.078 41.4297 320.109 42.8516C321.141 44.2734 322.617 44.9844 324.539 44.9844C326.352 44.9844 327.781 44.2812 328.828 42.875C329.891 41.4688 330.422 39.4531 330.422 36.8281V35.8203ZM365.438 50H358.664L347.883 32.9844V50H341.086V22.6953H347.883L358.664 39.7344V22.6953H365.438V50Z" fill="#41E0EA"/>
</svg>
