<svg width="899" height="350" viewBox="0 0 899 350" fill="none" xmlns="http://www.w3.org/2000/svg">
<ellipse cx="709" cy="264.5" rx="86" ry="78.5" fill="#FF005C"/>
<path d="M61.1172 112.562H73.5625V118H54.3203V90.6953H61.1172V112.562ZM93.625 112.797H83.0547L81.1328 118H74.3359L85.1406 90.6953H91.5156L102.414 118H95.5703L93.625 112.797ZM84.8828 107.828H91.75L88.3047 98.5938L84.8828 107.828ZM129.062 118H122.289L111.508 100.984V118H104.711V90.6953H111.508L122.289 107.734V90.6953H129.062V118ZM157.539 114.695C156.477 115.805 154.922 116.695 152.875 117.367C150.844 118.039 148.547 118.375 145.984 118.375C142.078 118.375 138.977 117.234 136.68 114.953C134.383 112.656 133.195 109.5 133.117 105.484V103.656C133.117 99.5312 134.242 96.2812 136.492 93.9062C138.742 91.5156 141.773 90.3203 145.586 90.3203C149.18 90.3203 151.977 91.1094 153.977 92.6875C155.977 94.2656 157.156 96.6328 157.516 99.7891H150.977C150.758 98.4609 150.258 97.4609 149.477 96.7891C148.711 96.1172 147.492 95.7812 145.82 95.7812C143.945 95.7812 142.492 96.4297 141.461 97.7266C140.445 99.0234 139.93 100.945 139.914 103.492V105.086C139.914 107.758 140.453 109.734 141.531 111.016C142.609 112.297 144.242 112.938 146.43 112.938C148.398 112.938 149.828 112.609 150.719 111.953V108.062H145.469V103.258H157.539V114.695ZM162.133 114.672C162.133 113.594 162.492 112.719 163.211 112.047C163.945 111.375 164.859 111.039 165.953 111.039C167.062 111.039 167.977 111.375 168.695 112.047C169.43 112.719 169.797 113.594 169.797 114.672C169.797 115.734 169.438 116.602 168.719 117.273C168 117.93 167.078 118.258 165.953 118.258C164.844 118.258 163.93 117.93 163.211 117.273C162.492 116.602 162.133 115.734 162.133 114.672ZM162.133 95.4766C162.133 94.3984 162.492 93.5234 163.211 92.8516C163.945 92.1797 164.859 91.8438 165.953 91.8438C167.062 91.8438 167.977 92.1797 168.695 92.8516C169.43 93.5234 169.797 94.3984 169.797 95.4766C169.797 96.5391 169.438 97.4062 168.719 98.0781C168 98.7344 167.078 99.0625 165.953 99.0625C164.844 99.0625 163.93 98.7344 163.211 98.0781C162.492 97.4062 162.133 96.5391 162.133 95.4766Z" fill="#FF005C"/>
<path d="M213.346 106.98V117H209.971V91.4062H219.41C222.211 91.4062 224.402 92.1211 225.984 93.5508C227.578 94.9805 228.375 96.873 228.375 99.2285C228.375 101.713 227.596 103.629 226.037 104.977C224.49 106.312 222.27 106.98 219.375 106.98H213.346ZM213.346 104.221H219.41C221.215 104.221 222.598 103.799 223.559 102.955C224.52 102.1 225 100.869 225 99.2637C225 97.7402 224.52 96.5215 223.559 95.6074C222.598 94.6934 221.279 94.2188 219.604 94.1836H213.346V104.221ZM238.676 112.236L243.105 97.9805H246.586L238.939 119.936C237.756 123.1 235.875 124.682 233.297 124.682L232.682 124.629L231.469 124.4V121.764L232.348 121.834C233.449 121.834 234.305 121.611 234.914 121.166C235.535 120.721 236.045 119.906 236.443 118.723L237.164 116.789L230.379 97.9805H233.93L238.676 112.236ZM253.916 93.375V97.9805H257.467V100.494H253.916V112.289C253.916 113.051 254.074 113.625 254.391 114.012C254.707 114.387 255.246 114.574 256.008 114.574C256.383 114.574 256.898 114.504 257.555 114.363V117C256.699 117.234 255.867 117.352 255.059 117.352C253.605 117.352 252.51 116.912 251.771 116.033C251.033 115.154 250.664 113.906 250.664 112.289V100.494H247.201V97.9805H250.664V93.375H253.916ZM264.533 100.283C265.975 98.5137 267.85 97.6289 270.158 97.6289C274.178 97.6289 276.205 99.8965 276.24 104.432V117H272.988V104.414C272.977 103.043 272.66 102.029 272.039 101.373C271.43 100.717 270.475 100.389 269.174 100.389C268.119 100.389 267.193 100.67 266.396 101.232C265.6 101.795 264.979 102.533 264.533 103.447V117H261.281V90H264.533V100.283ZM280.248 107.314C280.248 105.451 280.611 103.775 281.338 102.287C282.076 100.799 283.096 99.6504 284.396 98.8418C285.709 98.0332 287.203 97.6289 288.879 97.6289C291.469 97.6289 293.561 98.5254 295.154 100.318C296.76 102.111 297.562 104.496 297.562 107.473V107.701C297.562 109.553 297.205 111.217 296.49 112.693C295.787 114.158 294.773 115.301 293.449 116.121C292.137 116.941 290.625 117.352 288.914 117.352C286.336 117.352 284.244 116.455 282.639 114.662C281.045 112.869 280.248 110.496 280.248 107.543V107.314ZM283.518 107.701C283.518 109.811 284.004 111.504 284.977 112.781C285.961 114.059 287.273 114.697 288.914 114.697C290.566 114.697 291.879 114.053 292.852 112.764C293.824 111.463 294.311 109.646 294.311 107.314C294.311 105.229 293.812 103.541 292.816 102.252C291.832 100.951 290.52 100.301 288.879 100.301C287.273 100.301 285.979 100.939 284.994 102.217C284.01 103.494 283.518 105.322 283.518 107.701ZM304.717 97.9805L304.822 100.371C306.275 98.543 308.174 97.6289 310.518 97.6289C314.537 97.6289 316.564 99.8965 316.6 104.432V117H313.348V104.414C313.336 103.043 313.02 102.029 312.398 101.373C311.789 100.717 310.834 100.389 309.533 100.389C308.479 100.389 307.553 100.67 306.756 101.232C305.959 101.795 305.338 102.533 304.893 103.447V117H301.641V97.9805H304.717ZM321.398 122.098L319.553 120.832C320.654 119.297 321.229 117.715 321.275 116.086V113.15H324.457V115.699C324.457 116.883 324.164 118.066 323.578 119.25C323.004 120.434 322.277 121.383 321.398 122.098ZM348.732 91.4062H352.125V109.529C352.125 111.979 351.387 113.895 349.91 115.277C348.445 116.66 346.488 117.352 344.039 117.352C341.496 117.352 339.516 116.701 338.098 115.4C336.68 114.1 335.971 112.277 335.971 109.934H339.346C339.346 111.398 339.744 112.541 340.541 113.361C341.35 114.182 342.516 114.592 344.039 114.592C345.434 114.592 346.559 114.152 347.414 113.273C348.281 112.395 348.721 111.164 348.732 109.582V91.4062ZM369.105 117C368.918 116.625 368.766 115.957 368.648 114.996C367.137 116.566 365.332 117.352 363.234 117.352C361.359 117.352 359.818 116.824 358.611 115.77C357.416 114.703 356.818 113.355 356.818 111.727C356.818 109.746 357.568 108.211 359.068 107.121C360.58 106.02 362.701 105.469 365.432 105.469H368.596V103.975C368.596 102.838 368.256 101.936 367.576 101.268C366.896 100.588 365.895 100.248 364.57 100.248C363.41 100.248 362.438 100.541 361.652 101.127C360.867 101.713 360.475 102.422 360.475 103.254H357.205C357.205 102.305 357.539 101.391 358.207 100.512C358.887 99.6211 359.801 98.918 360.949 98.4023C362.109 97.8867 363.381 97.6289 364.764 97.6289C366.955 97.6289 368.672 98.1797 369.914 99.2812C371.156 100.371 371.801 101.877 371.848 103.799V112.553C371.848 114.299 372.07 115.688 372.516 116.719V117H369.105ZM363.709 114.521C364.729 114.521 365.695 114.258 366.609 113.73C367.523 113.203 368.186 112.518 368.596 111.674V107.771H366.047C362.062 107.771 360.07 108.938 360.07 111.27C360.07 112.289 360.41 113.086 361.09 113.66C361.77 114.234 362.643 114.521 363.709 114.521ZM382.939 112.588L387.65 97.9805H390.973L384.152 117H381.674L374.783 97.9805H378.105L382.939 112.588ZM405.562 117C405.375 116.625 405.223 115.957 405.105 114.996C403.594 116.566 401.789 117.352 399.691 117.352C397.816 117.352 396.275 116.824 395.068 115.77C393.873 114.703 393.275 113.355 393.275 111.727C393.275 109.746 394.025 108.211 395.525 107.121C397.037 106.02 399.158 105.469 401.889 105.469H405.053V103.975C405.053 102.838 404.713 101.936 404.033 101.268C403.354 100.588 402.352 100.248 401.027 100.248C399.867 100.248 398.895 100.541 398.109 101.127C397.324 101.713 396.932 102.422 396.932 103.254H393.662C393.662 102.305 393.996 101.391 394.664 100.512C395.344 99.6211 396.258 98.918 397.406 98.4023C398.566 97.8867 399.838 97.6289 401.221 97.6289C403.412 97.6289 405.129 98.1797 406.371 99.2812C407.613 100.371 408.258 101.877 408.305 103.799V112.553C408.305 114.299 408.527 115.688 408.973 116.719V117H405.562ZM400.166 114.521C401.186 114.521 402.152 114.258 403.066 113.73C403.98 113.203 404.643 112.518 405.053 111.674V107.771H402.504C398.52 107.771 396.527 108.938 396.527 111.27C396.527 112.289 396.867 113.086 397.547 113.66C398.227 114.234 399.1 114.521 400.166 114.521ZM421.453 105.592C418.559 104.76 416.449 103.74 415.125 102.533C413.812 101.314 413.156 99.8145 413.156 98.0332C413.156 96.0176 413.959 94.3535 415.564 93.041C417.182 91.7168 419.279 91.0547 421.857 91.0547C423.615 91.0547 425.18 91.3945 426.551 92.0742C427.934 92.7539 429 93.6914 429.75 94.8867C430.512 96.082 430.893 97.3887 430.893 98.8066H427.5C427.5 97.2598 427.008 96.0469 426.023 95.168C425.039 94.2773 423.65 93.832 421.857 93.832C420.193 93.832 418.893 94.2012 417.955 94.9395C417.029 95.666 416.566 96.6797 416.566 97.9805C416.566 99.0234 417.006 99.9082 417.885 100.635C418.775 101.35 420.281 102.006 422.402 102.604C424.535 103.201 426.199 103.863 427.395 104.59C428.602 105.305 429.492 106.143 430.066 107.104C430.652 108.064 430.945 109.195 430.945 110.496C430.945 112.57 430.137 114.234 428.52 115.488C426.902 116.73 424.74 117.352 422.033 117.352C420.275 117.352 418.635 117.018 417.111 116.35C415.588 115.67 414.41 114.744 413.578 113.572C412.758 112.4 412.348 111.07 412.348 109.582H415.74C415.74 111.129 416.309 112.354 417.445 113.256C418.594 114.146 420.123 114.592 422.033 114.592C423.814 114.592 425.18 114.229 426.129 113.502C427.078 112.775 427.553 111.785 427.553 110.531C427.553 109.277 427.113 108.311 426.234 107.631C425.355 106.939 423.762 106.26 421.453 105.592ZM442.406 114.697C443.566 114.697 444.58 114.346 445.447 113.643C446.314 112.939 446.795 112.061 446.889 111.006H449.965C449.906 112.096 449.531 113.133 448.84 114.117C448.148 115.102 447.223 115.887 446.062 116.473C444.914 117.059 443.695 117.352 442.406 117.352C439.816 117.352 437.754 116.49 436.219 114.768C434.695 113.033 433.934 110.666 433.934 107.666V107.121C433.934 105.27 434.273 103.623 434.953 102.182C435.633 100.74 436.605 99.6211 437.871 98.8242C439.148 98.0273 440.654 97.6289 442.389 97.6289C444.521 97.6289 446.291 98.2676 447.697 99.5449C449.115 100.822 449.871 102.48 449.965 104.52H446.889C446.795 103.289 446.326 102.281 445.482 101.496C444.65 100.699 443.619 100.301 442.389 100.301C440.736 100.301 439.453 100.898 438.539 102.094C437.637 103.277 437.186 104.994 437.186 107.244V107.859C437.186 110.051 437.637 111.738 438.539 112.922C439.441 114.105 440.73 114.697 442.406 114.697ZM462.814 100.898C462.322 100.816 461.789 100.775 461.215 100.775C459.082 100.775 457.635 101.684 456.873 103.5V117H453.621V97.9805H456.785L456.838 100.178C457.904 98.4785 459.416 97.6289 461.373 97.6289C462.006 97.6289 462.486 97.7109 462.814 97.875V100.898ZM469.354 117H466.102V97.9805H469.354V117ZM465.838 92.9355C465.838 92.4082 465.996 91.9629 466.312 91.5996C466.641 91.2363 467.121 91.0547 467.754 91.0547C468.387 91.0547 468.867 91.2363 469.195 91.5996C469.523 91.9629 469.688 92.4082 469.688 92.9355C469.688 93.4629 469.523 93.9023 469.195 94.2539C468.867 94.6055 468.387 94.7812 467.754 94.7812C467.121 94.7812 466.641 94.6055 466.312 94.2539C465.996 93.9023 465.838 93.4629 465.838 92.9355ZM490.641 107.701C490.641 110.596 489.979 112.928 488.654 114.697C487.33 116.467 485.537 117.352 483.275 117.352C480.967 117.352 479.15 116.619 477.826 115.154V124.312H474.574V97.9805H477.545L477.703 100.09C479.027 98.4492 480.867 97.6289 483.223 97.6289C485.508 97.6289 487.312 98.4902 488.637 100.213C489.973 101.936 490.641 104.332 490.641 107.402V107.701ZM487.389 107.332C487.389 105.188 486.932 103.494 486.018 102.252C485.104 101.01 483.85 100.389 482.256 100.389C480.287 100.389 478.811 101.262 477.826 103.008V112.096C478.799 113.83 480.287 114.697 482.291 114.697C483.85 114.697 485.086 114.082 486 112.852C486.926 111.609 487.389 109.77 487.389 107.332ZM499.201 93.375V97.9805H502.752V100.494H499.201V112.289C499.201 113.051 499.359 113.625 499.676 114.012C499.992 114.387 500.531 114.574 501.293 114.574C501.668 114.574 502.184 114.504 502.84 114.363V117C501.984 117.234 501.152 117.352 500.344 117.352C498.891 117.352 497.795 116.912 497.057 116.033C496.318 115.154 495.949 113.906 495.949 112.289V100.494H492.486V97.9805H495.949V93.375H499.201ZM506.461 122.098L504.615 120.832C505.717 119.297 506.291 117.715 506.338 116.086V113.15H509.52V115.699C509.52 116.883 509.227 118.066 508.641 119.25C508.066 120.434 507.34 121.383 506.461 122.098ZM541.969 113.643C541.102 114.885 539.889 115.816 538.33 116.438C536.783 117.047 534.979 117.352 532.916 117.352C530.83 117.352 528.979 116.865 527.361 115.893C525.744 114.908 524.49 113.514 523.6 111.709C522.721 109.904 522.27 107.812 522.246 105.434V103.201C522.246 99.3457 523.143 96.3574 524.936 94.2363C526.74 92.1152 529.271 91.0547 532.529 91.0547C535.201 91.0547 537.352 91.7402 538.98 93.1113C540.609 94.4707 541.605 96.4043 541.969 98.9121H538.594C537.961 95.5254 535.945 93.832 532.547 93.832C530.285 93.832 528.568 94.6289 527.396 96.2227C526.236 97.8047 525.65 100.102 525.639 103.113V105.205C525.639 108.076 526.295 110.361 527.607 112.061C528.92 113.748 530.695 114.592 532.934 114.592C534.199 114.592 535.307 114.451 536.256 114.17C537.205 113.889 537.99 113.414 538.611 112.746V106.998H532.688V104.256H541.969V113.643ZM546.24 107.314C546.24 105.451 546.604 103.775 547.33 102.287C548.068 100.799 549.088 99.6504 550.389 98.8418C551.701 98.0332 553.195 97.6289 554.871 97.6289C557.461 97.6289 559.553 98.5254 561.146 100.318C562.752 102.111 563.555 104.496 563.555 107.473V107.701C563.555 109.553 563.197 111.217 562.482 112.693C561.779 114.158 560.766 115.301 559.441 116.121C558.129 116.941 556.617 117.352 554.906 117.352C552.328 117.352 550.236 116.455 548.631 114.662C547.037 112.869 546.24 110.496 546.24 107.543V107.314ZM549.51 107.701C549.51 109.811 549.996 111.504 550.969 112.781C551.953 114.059 553.266 114.697 554.906 114.697C556.559 114.697 557.871 114.053 558.844 112.764C559.816 111.463 560.303 109.646 560.303 107.314C560.303 105.229 559.805 103.541 558.809 102.252C557.824 100.951 556.512 100.301 554.871 100.301C553.266 100.301 551.971 100.939 550.986 102.217C550.002 103.494 549.51 105.322 549.51 107.701ZM571.166 117H567.914V90H571.166V117ZM588.129 117C587.941 116.625 587.789 115.957 587.672 114.996C586.16 116.566 584.355 117.352 582.258 117.352C580.383 117.352 578.842 116.824 577.635 115.77C576.439 114.703 575.842 113.355 575.842 111.727C575.842 109.746 576.592 108.211 578.092 107.121C579.604 106.02 581.725 105.469 584.455 105.469H587.619V103.975C587.619 102.838 587.279 101.936 586.6 101.268C585.92 100.588 584.918 100.248 583.594 100.248C582.434 100.248 581.461 100.541 580.676 101.127C579.891 101.713 579.498 102.422 579.498 103.254H576.229C576.229 102.305 576.562 101.391 577.23 100.512C577.91 99.6211 578.824 98.918 579.973 98.4023C581.133 97.8867 582.404 97.6289 583.787 97.6289C585.979 97.6289 587.695 98.1797 588.938 99.2812C590.18 100.371 590.824 101.877 590.871 103.799V112.553C590.871 114.299 591.094 115.688 591.539 116.719V117H588.129ZM582.732 114.521C583.752 114.521 584.719 114.258 585.633 113.73C586.547 113.203 587.209 112.518 587.619 111.674V107.771H585.07C581.086 107.771 579.094 108.938 579.094 111.27C579.094 112.289 579.434 113.086 580.113 113.66C580.793 114.234 581.666 114.521 582.732 114.521ZM599.045 97.9805L599.15 100.371C600.604 98.543 602.502 97.6289 604.846 97.6289C608.865 97.6289 610.893 99.8965 610.928 104.432V117H607.676V104.414C607.664 103.043 607.348 102.029 606.727 101.373C606.117 100.717 605.162 100.389 603.861 100.389C602.807 100.389 601.881 100.67 601.084 101.232C600.287 101.795 599.666 102.533 599.221 103.447V117H595.969V97.9805H599.045ZM615.059 107.332C615.059 104.367 615.744 102.012 617.115 100.266C618.486 98.5078 620.303 97.6289 622.564 97.6289C624.885 97.6289 626.695 98.4492 627.996 100.09L628.154 97.9805H631.125V116.543C631.125 119.004 630.393 120.943 628.928 122.361C627.475 123.779 625.518 124.488 623.057 124.488C621.686 124.488 620.344 124.195 619.031 123.609C617.719 123.023 616.717 122.221 616.025 121.201L617.713 119.25C619.107 120.973 620.812 121.834 622.828 121.834C624.41 121.834 625.641 121.389 626.52 120.498C627.41 119.607 627.855 118.354 627.855 116.736V115.102C626.555 116.602 624.779 117.352 622.529 117.352C620.303 117.352 618.498 116.455 617.115 114.662C615.744 112.869 615.059 110.426 615.059 107.332ZM618.328 107.701C618.328 109.846 618.768 111.533 619.646 112.764C620.525 113.982 621.756 114.592 623.338 114.592C625.389 114.592 626.895 113.66 627.855 111.797V103.113C626.859 101.297 625.365 100.389 623.373 100.389C621.791 100.389 620.555 101.004 619.664 102.234C618.773 103.465 618.328 105.287 618.328 107.701Z" fill="#00FF85"/>
<path d="M78.9531 263.898C78.9531 266.57 78.4297 268.93 77.3828 270.977C76.3359 273.023 74.8359 274.602 72.8828 275.711C70.9453 276.82 68.7422 277.375 66.2734 277.375C63.7891 277.375 61.5703 276.828 59.6172 275.734C57.6797 274.641 56.1797 273.086 55.1172 271.07C54.0547 269.039 53.5156 266.703 53.5 264.062V262.844C53.5 260.156 54.0234 257.789 55.0703 255.742C56.1172 253.695 57.6094 252.117 59.5469 251.008C61.4844 249.883 63.7109 249.32 66.2266 249.32C68.6953 249.32 70.8906 249.867 72.8125 250.961C74.75 252.055 76.25 253.625 77.3125 255.672C78.3906 257.703 78.9375 260.047 78.9531 262.703V263.898ZM72.1562 262.82C72.1562 260.227 71.6328 258.234 70.5859 256.844C69.5547 255.453 68.1016 254.758 66.2266 254.758C64.2891 254.758 62.8125 255.453 61.7969 256.844C60.7969 258.234 60.2969 260.227 60.2969 262.82V263.898C60.2969 266.445 60.8125 268.43 61.8438 269.852C62.875 271.273 64.3516 271.984 66.2734 271.984C68.0859 271.984 69.5156 271.281 70.5625 269.875C71.625 268.469 72.1562 266.453 72.1562 263.828V262.82ZM98.0078 269.664C98.0078 268.758 97.625 268.031 96.8594 267.484C96.0938 266.938 94.7891 266.445 92.9453 266.008C91.1016 265.57 89.5469 265.109 88.2812 264.625C87.0312 264.125 86 263.539 85.1875 262.867C84.375 262.195 83.7734 261.422 83.3828 260.547C82.9922 259.656 82.7969 258.602 82.7969 257.383C82.7969 255.039 83.7734 253.109 85.7266 251.594C87.6797 250.078 90.1953 249.32 93.2734 249.32C96.6328 249.32 99.3438 250.086 101.406 251.617C103.484 253.133 104.523 255.211 104.523 257.852H97.75C97.75 256.852 97.3438 256.016 96.5312 255.344C95.7344 254.672 94.6562 254.336 93.2969 254.336C92.0938 254.336 91.1172 254.602 90.3672 255.133C89.6172 255.664 89.2422 256.328 89.2422 257.125C89.2422 257.922 89.6328 258.57 90.4141 259.07C91.1953 259.555 92.4922 260.023 94.3047 260.477C97.9453 261.273 100.547 262.375 102.109 263.781C103.688 265.188 104.477 267.086 104.477 269.477C104.477 271.914 103.516 273.844 101.594 275.266C99.6719 276.672 97.0469 277.375 93.7188 277.375C91.4531 277.375 89.4062 277.008 87.5781 276.273C85.75 275.539 84.3359 274.492 83.3359 273.133C82.3516 271.773 81.8594 270.164 81.8594 268.305H88.6562C88.6562 269.758 89.1016 270.805 89.9922 271.445C90.8984 272.086 92.25 272.406 94.0469 272.406C95.2656 272.406 96.2266 272.156 96.9297 271.656C97.6484 271.156 98.0078 270.492 98.0078 269.664ZM109.164 273.672C109.164 272.594 109.523 271.719 110.242 271.047C110.977 270.375 111.891 270.039 112.984 270.039C114.094 270.039 115.008 270.375 115.727 271.047C116.461 271.719 116.828 272.594 116.828 273.672C116.828 274.734 116.469 275.602 115.75 276.273C115.031 276.93 114.109 277.258 112.984 277.258C111.875 277.258 110.961 276.93 110.242 276.273C109.523 275.602 109.164 274.734 109.164 273.672ZM109.164 254.477C109.164 253.398 109.523 252.523 110.242 251.852C110.977 251.18 111.891 250.844 112.984 250.844C114.094 250.844 115.008 251.18 115.727 251.852C116.461 252.523 116.828 253.398 116.828 254.477C116.828 255.539 116.469 256.406 115.75 257.078C115.031 257.734 114.109 258.062 112.984 258.062C111.875 258.062 110.961 257.734 110.242 257.078C109.523 256.406 109.164 255.539 109.164 254.477Z" fill="#FF005C"/>
<path d="M224.086 260.697H213.346V272H209.971V246.406H225.826V249.184H213.346V257.938H224.086V260.697ZM228.111 262.314C228.111 260.451 228.475 258.775 229.201 257.287C229.939 255.799 230.959 254.65 232.26 253.842C233.572 253.033 235.066 252.629 236.742 252.629C239.332 252.629 241.424 253.525 243.018 255.318C244.623 257.111 245.426 259.496 245.426 262.473V262.701C245.426 264.553 245.068 266.217 244.354 267.693C243.65 269.158 242.637 270.301 241.312 271.121C240 271.941 238.488 272.352 236.777 272.352C234.199 272.352 232.107 271.455 230.502 269.662C228.908 267.869 228.111 265.496 228.111 262.543V262.314ZM231.381 262.701C231.381 264.811 231.867 266.504 232.84 267.781C233.824 269.059 235.137 269.697 236.777 269.697C238.43 269.697 239.742 269.053 240.715 267.764C241.688 266.463 242.174 264.646 242.174 262.314C242.174 260.229 241.676 258.541 240.68 257.252C239.695 255.951 238.383 255.301 236.742 255.301C235.137 255.301 233.842 255.939 232.857 257.217C231.873 258.494 231.381 260.322 231.381 262.701ZM258.697 255.898C258.205 255.816 257.672 255.775 257.098 255.775C254.965 255.775 253.518 256.684 252.756 258.5V272H249.504V252.98H252.668L252.721 255.178C253.787 253.479 255.299 252.629 257.256 252.629C257.889 252.629 258.369 252.711 258.697 252.875V255.898ZM287.473 267.518L291.129 252.98H294.381L288.844 272H286.207L281.584 257.586L277.084 272H274.447L268.928 252.98H272.162L275.906 267.219L280.336 252.98H282.955L287.473 267.518ZM296.842 262.314C296.842 260.451 297.205 258.775 297.932 257.287C298.67 255.799 299.689 254.65 300.99 253.842C302.303 253.033 303.797 252.629 305.473 252.629C308.062 252.629 310.154 253.525 311.748 255.318C313.354 257.111 314.156 259.496 314.156 262.473V262.701C314.156 264.553 313.799 266.217 313.084 267.693C312.381 269.158 311.367 270.301 310.043 271.121C308.73 271.941 307.219 272.352 305.508 272.352C302.93 272.352 300.838 271.455 299.232 269.662C297.639 267.869 296.842 265.496 296.842 262.543V262.314ZM300.111 262.701C300.111 264.811 300.598 266.504 301.57 267.781C302.555 269.059 303.867 269.697 305.508 269.697C307.16 269.697 308.473 269.053 309.445 267.764C310.418 266.463 310.904 264.646 310.904 262.314C310.904 260.229 310.406 258.541 309.41 257.252C308.426 255.951 307.113 255.301 305.473 255.301C303.867 255.301 302.572 255.939 301.588 257.217C300.604 258.494 300.111 260.322 300.111 262.701ZM327.428 255.898C326.936 255.816 326.402 255.775 325.828 255.775C323.695 255.775 322.248 256.684 321.486 258.5V272H318.234V252.98H321.398L321.451 255.178C322.518 253.479 324.029 252.629 325.986 252.629C326.619 252.629 327.1 252.711 327.428 252.875V255.898ZM335.742 263.193L333.703 265.32V272H330.451V245H333.703V261.33L335.443 259.238L341.367 252.98H345.322L337.922 260.926L346.184 272H342.369L335.742 263.193ZM364.377 262.455H355.799V259.801H364.377V262.455ZM382.518 263.932L383.01 267.307L383.73 264.266L388.793 246.406H391.641L396.58 264.266L397.283 267.359L397.828 263.914L401.801 246.406H405.193L398.988 272H395.912L390.639 253.35L390.234 251.398L389.83 253.35L384.363 272H381.287L375.1 246.406H378.475L382.518 263.932ZM411.979 272H408.727V252.98H411.979V272ZM408.463 247.936C408.463 247.408 408.621 246.963 408.938 246.6C409.266 246.236 409.746 246.055 410.379 246.055C411.012 246.055 411.492 246.236 411.82 246.6C412.148 246.963 412.312 247.408 412.312 247.936C412.312 248.463 412.148 248.902 411.82 249.254C411.492 249.605 411.012 249.781 410.379 249.781C409.746 249.781 409.266 249.605 408.938 249.254C408.621 248.902 408.463 248.463 408.463 247.936ZM420.275 252.98L420.381 255.371C421.834 253.543 423.732 252.629 426.076 252.629C430.096 252.629 432.123 254.896 432.158 259.432V272H428.906V259.414C428.895 258.043 428.578 257.029 427.957 256.373C427.348 255.717 426.393 255.389 425.092 255.389C424.037 255.389 423.111 255.67 422.314 256.232C421.518 256.795 420.896 257.533 420.451 258.447V272H417.199V252.98H420.275ZM447.416 272H444.146V250.326L437.59 252.734V249.781L446.906 246.283H447.416V272ZM467.631 272H464.361V250.326L457.805 252.734V249.781L467.121 246.283H467.631V272ZM486.932 272V246.406H494.156C496.383 246.406 498.352 246.898 500.062 247.883C501.773 248.867 503.092 250.268 504.018 252.084C504.955 253.9 505.43 255.986 505.441 258.342V259.977C505.441 262.391 504.973 264.506 504.035 266.322C503.109 268.139 501.779 269.533 500.045 270.506C498.322 271.479 496.312 271.977 494.016 272H486.932ZM490.307 249.184V269.24H493.857C496.459 269.24 498.48 268.432 499.922 266.814C501.375 265.197 502.102 262.895 502.102 259.906V258.412C502.102 255.506 501.416 253.25 500.045 251.645C498.686 250.027 496.752 249.207 494.244 249.184H490.307ZM517.939 272.352C515.361 272.352 513.264 271.508 511.646 269.82C510.029 268.121 509.221 265.854 509.221 263.018V262.42C509.221 260.533 509.578 258.852 510.293 257.375C511.02 255.887 512.027 254.727 513.316 253.895C514.617 253.051 516.023 252.629 517.535 252.629C520.008 252.629 521.93 253.443 523.301 255.072C524.672 256.701 525.357 259.033 525.357 262.068V263.422H512.473C512.52 265.297 513.064 266.814 514.107 267.975C515.162 269.123 516.498 269.697 518.115 269.697C519.264 269.697 520.236 269.463 521.033 268.994C521.83 268.525 522.527 267.904 523.125 267.131L525.111 268.678C523.518 271.127 521.127 272.352 517.939 272.352ZM517.535 255.301C516.223 255.301 515.121 255.781 514.23 256.742C513.34 257.691 512.789 259.027 512.578 260.75H522.105V260.504C522.012 258.852 521.566 257.574 520.77 256.672C519.973 255.758 518.895 255.301 517.535 255.301ZM535.166 267.588L539.877 252.98H543.199L536.379 272H533.9L527.01 252.98H530.332L535.166 267.588ZM544.324 277.098L542.479 275.832C543.58 274.297 544.154 272.715 544.201 271.086V268.15H547.383V270.699C547.383 271.883 547.09 273.066 546.504 274.25C545.93 275.434 545.203 276.383 544.324 277.098ZM565.295 246.406L573.662 267.289L582.029 246.406H586.406V272H583.031V262.033L583.348 251.275L574.945 272H572.361L563.977 251.328L564.311 262.033V272H560.936V246.406H565.295ZM603.598 272C603.41 271.625 603.258 270.957 603.141 269.996C601.629 271.566 599.824 272.352 597.727 272.352C595.852 272.352 594.311 271.824 593.104 270.77C591.908 269.703 591.311 268.355 591.311 266.727C591.311 264.746 592.061 263.211 593.561 262.121C595.072 261.02 597.193 260.469 599.924 260.469H603.088V258.975C603.088 257.838 602.748 256.936 602.068 256.268C601.389 255.588 600.387 255.248 599.062 255.248C597.902 255.248 596.93 255.541 596.145 256.127C595.359 256.713 594.967 257.422 594.967 258.254H591.697C591.697 257.305 592.031 256.391 592.699 255.512C593.379 254.621 594.293 253.918 595.441 253.402C596.602 252.887 597.873 252.629 599.256 252.629C601.447 252.629 603.164 253.18 604.406 254.281C605.648 255.371 606.293 256.877 606.34 258.799V267.553C606.34 269.299 606.562 270.688 607.008 271.719V272H603.598ZM598.201 269.521C599.221 269.521 600.188 269.258 601.102 268.73C602.016 268.203 602.678 267.518 603.088 266.674V262.771H600.539C596.555 262.771 594.562 263.938 594.562 266.27C594.562 267.289 594.902 268.086 595.582 268.66C596.262 269.234 597.135 269.521 598.201 269.521ZM614.514 252.98L614.619 255.371C616.072 253.543 617.971 252.629 620.314 252.629C624.334 252.629 626.361 254.896 626.396 259.432V272H623.145V259.414C623.133 258.043 622.816 257.029 622.195 256.373C621.586 255.717 620.631 255.389 619.33 255.389C618.275 255.389 617.35 255.67 616.553 256.232C615.756 256.795 615.135 257.533 614.689 258.447V272H611.438V252.98H614.514ZM634.658 252.98V274.197C634.658 277.854 633 279.682 629.684 279.682C628.969 279.682 628.307 279.576 627.697 279.365V276.764C628.072 276.857 628.564 276.904 629.174 276.904C629.9 276.904 630.451 276.705 630.826 276.307C631.213 275.92 631.406 275.24 631.406 274.268V252.98H634.658ZM631.072 247.936C631.072 247.42 631.23 246.98 631.547 246.617C631.875 246.242 632.35 246.055 632.971 246.055C633.604 246.055 634.084 246.236 634.412 246.6C634.74 246.963 634.904 247.408 634.904 247.936C634.904 248.463 634.74 248.902 634.412 249.254C634.084 249.605 633.604 249.781 632.971 249.781C632.338 249.781 631.863 249.605 631.547 249.254C631.23 248.902 631.072 248.463 631.072 247.936ZM651.656 272C651.469 271.625 651.316 270.957 651.199 269.996C649.688 271.566 647.883 272.352 645.785 272.352C643.91 272.352 642.369 271.824 641.162 270.77C639.967 269.703 639.369 268.355 639.369 266.727C639.369 264.746 640.119 263.211 641.619 262.121C643.131 261.02 645.252 260.469 647.982 260.469H651.146V258.975C651.146 257.838 650.807 256.936 650.127 256.268C649.447 255.588 648.445 255.248 647.121 255.248C645.961 255.248 644.988 255.541 644.203 256.127C643.418 256.713 643.025 257.422 643.025 258.254H639.756C639.756 257.305 640.09 256.391 640.758 255.512C641.438 254.621 642.352 253.918 643.5 253.402C644.66 252.887 645.932 252.629 647.314 252.629C649.506 252.629 651.223 253.18 652.465 254.281C653.707 255.371 654.352 256.877 654.398 258.799V267.553C654.398 269.299 654.621 270.688 655.066 271.719V272H651.656ZM646.26 269.521C647.279 269.521 648.246 269.258 649.16 268.73C650.074 268.203 650.736 267.518 651.146 266.674V262.771H648.598C644.613 262.771 642.621 263.938 642.621 266.27C642.621 267.289 642.961 268.086 643.641 268.66C644.32 269.234 645.193 269.521 646.26 269.521ZM668.689 255.898C668.197 255.816 667.664 255.775 667.09 255.775C664.957 255.775 663.51 256.684 662.748 258.5V272H659.496V252.98H662.66L662.713 255.178C663.779 253.479 665.291 252.629 667.248 252.629C667.881 252.629 668.361 252.711 668.689 252.875V255.898ZM670.482 262.314C670.482 260.451 670.846 258.775 671.572 257.287C672.311 255.799 673.33 254.65 674.631 253.842C675.943 253.033 677.438 252.629 679.113 252.629C681.703 252.629 683.795 253.525 685.389 255.318C686.994 257.111 687.797 259.496 687.797 262.473V262.701C687.797 264.553 687.439 266.217 686.725 267.693C686.021 269.158 685.008 270.301 683.684 271.121C682.371 271.941 680.859 272.352 679.148 272.352C676.57 272.352 674.479 271.455 672.873 269.662C671.279 267.869 670.482 265.496 670.482 262.543V262.314ZM673.752 262.701C673.752 264.811 674.238 266.504 675.211 267.781C676.195 269.059 677.508 269.697 679.148 269.697C680.801 269.697 682.113 269.053 683.086 267.764C684.059 266.463 684.545 264.646 684.545 262.314C684.545 260.229 684.047 258.541 683.051 257.252C682.066 255.951 680.754 255.301 679.113 255.301C677.508 255.301 676.213 255.939 675.229 257.217C674.244 258.494 673.752 260.322 673.752 262.701ZM720.211 268.643C719.344 269.885 718.131 270.816 716.572 271.438C715.025 272.047 713.221 272.352 711.158 272.352C709.072 272.352 707.221 271.865 705.604 270.893C703.986 269.908 702.732 268.514 701.842 266.709C700.963 264.904 700.512 262.812 700.488 260.434V258.201C700.488 254.346 701.385 251.357 703.178 249.236C704.982 247.115 707.514 246.055 710.771 246.055C713.443 246.055 715.594 246.74 717.223 248.111C718.852 249.471 719.848 251.404 720.211 253.912H716.836C716.203 250.525 714.188 248.832 710.789 248.832C708.527 248.832 706.811 249.629 705.639 251.223C704.479 252.805 703.893 255.102 703.881 258.113V260.205C703.881 263.076 704.537 265.361 705.85 267.061C707.162 268.748 708.938 269.592 711.176 269.592C712.441 269.592 713.549 269.451 714.498 269.17C715.447 268.889 716.232 268.414 716.854 267.746V261.998H710.93V259.256H720.211V268.643ZM728.42 252.98L728.525 255.371C729.979 253.543 731.877 252.629 734.221 252.629C738.24 252.629 740.268 254.896 740.303 259.432V272H737.051V259.414C737.039 258.043 736.723 257.029 736.102 256.373C735.492 255.717 734.537 255.389 733.236 255.389C732.182 255.389 731.256 255.67 730.459 256.232C729.662 256.795 729.041 257.533 728.596 258.447V272H725.344V252.98H728.42ZM744.346 262.314C744.346 260.451 744.709 258.775 745.436 257.287C746.174 255.799 747.193 254.65 748.494 253.842C749.807 253.033 751.301 252.629 752.977 252.629C755.566 252.629 757.658 253.525 759.252 255.318C760.857 257.111 761.66 259.496 761.66 262.473V262.701C761.66 264.553 761.303 266.217 760.588 267.693C759.885 269.158 758.871 270.301 757.547 271.121C756.234 271.941 754.723 272.352 753.012 272.352C750.434 272.352 748.342 271.455 746.736 269.662C745.143 267.869 744.346 265.496 744.346 262.543V262.314ZM747.615 262.701C747.615 264.811 748.102 266.504 749.074 267.781C750.059 269.059 751.371 269.697 753.012 269.697C754.664 269.697 755.977 269.053 756.949 267.764C757.922 266.463 758.408 264.646 758.408 262.314C758.408 260.229 757.91 258.541 756.914 257.252C755.93 255.951 754.617 255.301 752.977 255.301C751.371 255.301 750.076 255.939 749.092 257.217C748.107 258.494 747.615 260.322 747.615 262.701ZM768.797 252.98L768.885 255.09C770.279 253.449 772.16 252.629 774.527 252.629C777.188 252.629 778.998 253.648 779.959 255.688C780.592 254.773 781.412 254.035 782.42 253.473C783.439 252.91 784.641 252.629 786.023 252.629C790.195 252.629 792.316 254.838 792.387 259.256V272H789.135V259.449C789.135 258.09 788.824 257.076 788.203 256.408C787.582 255.729 786.539 255.389 785.074 255.389C783.867 255.389 782.865 255.752 782.068 256.479C781.271 257.193 780.809 258.16 780.68 259.379V272H777.41V259.537C777.41 256.771 776.057 255.389 773.35 255.389C771.217 255.389 769.758 256.297 768.973 258.113V272H765.721V252.98H768.797ZM805.201 272.352C802.623 272.352 800.525 271.508 798.908 269.82C797.291 268.121 796.482 265.854 796.482 263.018V262.42C796.482 260.533 796.84 258.852 797.555 257.375C798.281 255.887 799.289 254.727 800.578 253.895C801.879 253.051 803.285 252.629 804.797 252.629C807.27 252.629 809.191 253.443 810.562 255.072C811.934 256.701 812.619 259.033 812.619 262.068V263.422H799.734C799.781 265.297 800.326 266.814 801.369 267.975C802.424 269.123 803.76 269.697 805.377 269.697C806.525 269.697 807.498 269.463 808.295 268.994C809.092 268.525 809.789 267.904 810.387 267.131L812.373 268.678C810.779 271.127 808.389 272.352 805.201 272.352ZM804.797 255.301C803.484 255.301 802.383 255.781 801.492 256.742C800.602 257.691 800.051 259.027 799.84 260.75H809.367V260.504C809.273 258.852 808.828 257.574 808.031 256.672C807.234 255.758 806.156 255.301 804.797 255.301Z" fill="#00FF85"/>
<path d="M224.086 305.697H213.346V317H209.971V291.406H225.826V294.184H213.346V302.938H224.086V305.697ZM228.111 307.314C228.111 305.451 228.475 303.775 229.201 302.287C229.939 300.799 230.959 299.65 232.26 298.842C233.572 298.033 235.066 297.629 236.742 297.629C239.332 297.629 241.424 298.525 243.018 300.318C244.623 302.111 245.426 304.496 245.426 307.473V307.701C245.426 309.553 245.068 311.217 244.354 312.693C243.65 314.158 242.637 315.301 241.312 316.121C240 316.941 238.488 317.352 236.777 317.352C234.199 317.352 232.107 316.455 230.502 314.662C228.908 312.869 228.111 310.496 228.111 307.543V307.314ZM231.381 307.701C231.381 309.811 231.867 311.504 232.84 312.781C233.824 314.059 235.137 314.697 236.777 314.697C238.43 314.697 239.742 314.053 240.715 312.764C241.688 311.463 242.174 309.646 242.174 307.314C242.174 305.229 241.676 303.541 240.68 302.252C239.695 300.951 238.383 300.301 236.742 300.301C235.137 300.301 233.842 300.939 232.857 302.217C231.873 303.494 231.381 305.322 231.381 307.701ZM258.697 300.898C258.205 300.816 257.672 300.775 257.098 300.775C254.965 300.775 253.518 301.684 252.756 303.5V317H249.504V297.98H252.668L252.721 300.178C253.787 298.479 255.299 297.629 257.256 297.629C257.889 297.629 258.369 297.711 258.697 297.875V300.898ZM281.707 311.955C281.707 311.076 281.373 310.396 280.705 309.916C280.049 309.424 278.895 309.002 277.242 308.65C275.602 308.299 274.295 307.877 273.322 307.385C272.361 306.893 271.646 306.307 271.178 305.627C270.721 304.947 270.492 304.139 270.492 303.201C270.492 301.643 271.148 300.324 272.461 299.246C273.785 298.168 275.473 297.629 277.523 297.629C279.68 297.629 281.426 298.186 282.762 299.299C284.109 300.412 284.783 301.836 284.783 303.57H281.514C281.514 302.68 281.133 301.912 280.371 301.268C279.621 300.623 278.672 300.301 277.523 300.301C276.34 300.301 275.414 300.559 274.746 301.074C274.078 301.59 273.744 302.264 273.744 303.096C273.744 303.881 274.055 304.473 274.676 304.871C275.297 305.27 276.416 305.65 278.033 306.014C279.662 306.377 280.98 306.811 281.988 307.314C282.996 307.818 283.74 308.428 284.221 309.143C284.713 309.846 284.959 310.707 284.959 311.727C284.959 313.426 284.279 314.791 282.92 315.822C281.561 316.842 279.797 317.352 277.629 317.352C276.105 317.352 274.758 317.082 273.586 316.543C272.414 316.004 271.494 315.254 270.826 314.293C270.17 313.32 269.842 312.271 269.842 311.146H273.094C273.152 312.236 273.586 313.104 274.395 313.748C275.215 314.381 276.293 314.697 277.629 314.697C278.859 314.697 279.844 314.451 280.582 313.959C281.332 313.455 281.707 312.787 281.707 311.955ZM297.088 317.352C294.51 317.352 292.412 316.508 290.795 314.82C289.178 313.121 288.369 310.854 288.369 308.018V307.42C288.369 305.533 288.727 303.852 289.441 302.375C290.168 300.887 291.176 299.727 292.465 298.895C293.766 298.051 295.172 297.629 296.684 297.629C299.156 297.629 301.078 298.443 302.449 300.072C303.82 301.701 304.506 304.033 304.506 307.068V308.422H291.621C291.668 310.297 292.213 311.814 293.256 312.975C294.311 314.123 295.646 314.697 297.264 314.697C298.412 314.697 299.385 314.463 300.182 313.994C300.979 313.525 301.676 312.904 302.273 312.131L304.26 313.678C302.666 316.127 300.275 317.352 297.088 317.352ZM296.684 300.301C295.371 300.301 294.27 300.781 293.379 301.742C292.488 302.691 291.938 304.027 291.727 305.75H301.254V305.504C301.16 303.852 300.715 302.574 299.918 301.672C299.121 300.758 298.043 300.301 296.684 300.301ZM317.479 300.898C316.986 300.816 316.453 300.775 315.879 300.775C313.746 300.775 312.299 301.684 311.537 303.5V317H308.285V297.98H311.449L311.502 300.178C312.568 298.479 314.08 297.629 316.037 297.629C316.67 297.629 317.15 297.711 317.479 297.875V300.898ZM327.076 312.588L331.787 297.98H335.109L328.289 317H325.811L318.92 297.98H322.242L327.076 312.588ZM345.885 317.352C343.307 317.352 341.209 316.508 339.592 314.82C337.975 313.121 337.166 310.854 337.166 308.018V307.42C337.166 305.533 337.523 303.852 338.238 302.375C338.965 300.887 339.973 299.727 341.262 298.895C342.562 298.051 343.969 297.629 345.48 297.629C347.953 297.629 349.875 298.443 351.246 300.072C352.617 301.701 353.303 304.033 353.303 307.068V308.422H340.418C340.465 310.297 341.01 311.814 342.053 312.975C343.107 314.123 344.443 314.697 346.061 314.697C347.209 314.697 348.182 314.463 348.979 313.994C349.775 313.525 350.473 312.904 351.07 312.131L353.057 313.678C351.463 316.127 349.072 317.352 345.885 317.352ZM345.48 300.301C344.168 300.301 343.066 300.781 342.176 301.742C341.285 302.691 340.734 304.027 340.523 305.75H350.051V305.504C349.957 303.852 349.512 302.574 348.715 301.672C347.918 300.758 346.84 300.301 345.48 300.301ZM366.275 300.898C365.783 300.816 365.25 300.775 364.676 300.775C362.543 300.775 361.096 301.684 360.334 303.5V317H357.082V297.98H360.246L360.299 300.178C361.365 298.479 362.877 297.629 364.834 297.629C365.467 297.629 365.947 297.711 366.275 297.875V300.898ZM380.355 311.955C380.355 311.076 380.021 310.396 379.354 309.916C378.697 309.424 377.543 309.002 375.891 308.65C374.25 308.299 372.943 307.877 371.971 307.385C371.01 306.893 370.295 306.307 369.826 305.627C369.369 304.947 369.141 304.139 369.141 303.201C369.141 301.643 369.797 300.324 371.109 299.246C372.434 298.168 374.121 297.629 376.172 297.629C378.328 297.629 380.074 298.186 381.41 299.299C382.758 300.412 383.432 301.836 383.432 303.57H380.162C380.162 302.68 379.781 301.912 379.02 301.268C378.27 300.623 377.32 300.301 376.172 300.301C374.988 300.301 374.062 300.559 373.395 301.074C372.727 301.59 372.393 302.264 372.393 303.096C372.393 303.881 372.703 304.473 373.324 304.871C373.945 305.27 375.064 305.65 376.682 306.014C378.311 306.377 379.629 306.811 380.637 307.314C381.645 307.818 382.389 308.428 382.869 309.143C383.361 309.846 383.607 310.707 383.607 311.727C383.607 313.426 382.928 314.791 381.568 315.822C380.209 316.842 378.445 317.352 376.277 317.352C374.754 317.352 373.406 317.082 372.234 316.543C371.062 316.004 370.143 315.254 369.475 314.293C368.818 313.32 368.49 312.271 368.49 311.146H371.742C371.801 312.236 372.234 313.104 373.043 313.748C373.863 314.381 374.941 314.697 376.277 314.697C377.508 314.697 378.492 314.451 379.23 313.959C379.98 313.455 380.355 312.787 380.355 311.955ZM403.541 307.455H394.963V304.801H403.541V307.455ZM443.109 291.406V308.809C443.098 311.223 442.336 313.197 440.824 314.732C439.324 316.268 437.285 317.129 434.707 317.316L433.811 317.352C431.01 317.352 428.777 316.596 427.113 315.084C425.449 313.572 424.605 311.492 424.582 308.844V291.406H427.922V308.738C427.922 310.59 428.432 312.031 429.451 313.062C430.471 314.082 431.924 314.592 433.811 314.592C435.721 314.592 437.18 314.082 438.188 313.062C439.207 312.043 439.717 310.607 439.717 308.756V291.406H443.109ZM464.027 307.701C464.027 310.607 463.359 312.945 462.023 314.715C460.688 316.473 458.895 317.352 456.645 317.352C454.242 317.352 452.385 316.502 451.072 314.803L450.914 317H447.926V290H451.178V300.072C452.49 298.443 454.301 297.629 456.609 297.629C458.918 297.629 460.729 298.502 462.041 300.248C463.365 301.994 464.027 304.385 464.027 307.42V307.701ZM460.775 307.332C460.775 305.117 460.348 303.406 459.492 302.199C458.637 300.992 457.406 300.389 455.801 300.389C453.656 300.389 452.115 301.385 451.178 303.377V311.604C452.174 313.596 453.727 314.592 455.836 314.592C457.395 314.592 458.607 313.988 459.475 312.781C460.342 311.574 460.775 309.758 460.775 307.332ZM479.883 315.119C478.617 316.607 476.76 317.352 474.311 317.352C472.283 317.352 470.736 316.766 469.67 315.594C468.615 314.41 468.082 312.664 468.07 310.355V297.98H471.322V310.268C471.322 313.15 472.494 314.592 474.838 314.592C477.322 314.592 478.975 313.666 479.795 311.814V297.98H483.047V317H479.953L479.883 315.119ZM491.08 297.98L491.186 300.371C492.639 298.543 494.537 297.629 496.881 297.629C500.9 297.629 502.928 299.896 502.963 304.432V317H499.711V304.414C499.699 303.043 499.383 302.029 498.762 301.373C498.152 300.717 497.197 300.389 495.896 300.389C494.842 300.389 493.916 300.67 493.119 301.232C492.322 301.795 491.701 302.533 491.256 303.447V317H488.004V297.98H491.08ZM512.279 293.375V297.98H515.83V300.494H512.279V312.289C512.279 313.051 512.438 313.625 512.754 314.012C513.07 314.387 513.609 314.574 514.371 314.574C514.746 314.574 515.262 314.504 515.918 314.363V317C515.062 317.234 514.23 317.352 513.422 317.352C511.969 317.352 510.873 316.912 510.135 316.033C509.396 315.154 509.027 313.906 509.027 312.289V300.494H505.564V297.98H509.027V293.375H512.279ZM531.387 315.119C530.121 316.607 528.264 317.352 525.814 317.352C523.787 317.352 522.24 316.766 521.174 315.594C520.119 314.41 519.586 312.664 519.574 310.355V297.98H522.826V310.268C522.826 313.15 523.998 314.592 526.342 314.592C528.826 314.592 530.479 313.666 531.299 311.814V297.98H534.551V317H531.457L531.387 315.119ZM564.873 317H548.104V314.662L556.963 304.818C558.275 303.33 559.178 302.123 559.67 301.197C560.174 300.26 560.426 299.293 560.426 298.297C560.426 296.961 560.021 295.865 559.213 295.01C558.404 294.154 557.326 293.727 555.979 293.727C554.361 293.727 553.102 294.189 552.199 295.115C551.309 296.029 550.863 297.307 550.863 298.947H547.611C547.611 296.592 548.367 294.688 549.879 293.234C551.402 291.781 553.436 291.055 555.979 291.055C558.357 291.055 560.238 291.682 561.621 292.936C563.004 294.178 563.695 295.836 563.695 297.91C563.695 300.43 562.09 303.43 558.879 306.91L552.023 314.346H564.873V317ZM584.367 306.084C584.367 309.893 583.717 312.723 582.416 314.574C581.115 316.426 579.082 317.352 576.316 317.352C573.586 317.352 571.564 316.449 570.252 314.645C568.939 312.828 568.26 310.121 568.213 306.523V302.182C568.213 298.42 568.863 295.625 570.164 293.797C571.465 291.969 573.504 291.055 576.281 291.055C579.035 291.055 581.062 291.939 582.363 293.709C583.664 295.467 584.332 298.186 584.367 301.865V306.084ZM581.115 301.637C581.115 298.883 580.729 296.879 579.955 295.625C579.182 294.359 577.957 293.727 576.281 293.727C574.617 293.727 573.404 294.354 572.643 295.607C571.881 296.861 571.488 298.789 571.465 301.391V306.594C571.465 309.359 571.863 311.404 572.66 312.729C573.469 314.041 574.688 314.697 576.316 314.697C577.922 314.697 579.111 314.076 579.885 312.834C580.67 311.592 581.08 309.635 581.115 306.963V301.637ZM588.938 315.295C588.938 314.732 589.102 314.264 589.43 313.889C589.77 313.514 590.273 313.326 590.941 313.326C591.609 313.326 592.113 313.514 592.453 313.889C592.805 314.264 592.98 314.732 592.98 315.295C592.98 315.834 592.805 316.285 592.453 316.648C592.113 317.012 591.609 317.193 590.941 317.193C590.273 317.193 589.77 317.012 589.43 316.648C589.102 316.285 588.938 315.834 588.938 315.295ZM614.074 306.084C614.074 309.893 613.424 312.723 612.123 314.574C610.822 316.426 608.789 317.352 606.023 317.352C603.293 317.352 601.271 316.449 599.959 314.645C598.646 312.828 597.967 310.121 597.92 306.523V302.182C597.92 298.42 598.57 295.625 599.871 293.797C601.172 291.969 603.211 291.055 605.988 291.055C608.742 291.055 610.77 291.939 612.07 293.709C613.371 295.467 614.039 298.186 614.074 301.865V306.084ZM610.822 301.637C610.822 298.883 610.436 296.879 609.662 295.625C608.889 294.359 607.664 293.727 605.988 293.727C604.324 293.727 603.111 294.354 602.35 295.607C601.588 296.861 601.195 298.789 601.172 301.391V306.594C601.172 309.359 601.57 311.404 602.367 312.729C603.176 314.041 604.395 314.697 606.023 314.697C607.629 314.697 608.818 314.076 609.592 312.834C610.377 311.592 610.787 309.635 610.822 306.963V301.637ZM631.969 308.404H635.52V311.059H631.969V317H628.699V311.059H617.045V309.143L628.506 291.406H631.969V308.404ZM620.736 308.404H628.699V295.854L628.312 296.557L620.736 308.404ZM652.588 291.406L660.955 312.289L669.322 291.406H673.699V317H670.324V307.033L670.641 296.275L662.238 317H659.654L651.27 296.328L651.604 307.033V317H648.229V291.406H652.588ZM682.682 317H679.43V297.98H682.682V317ZM679.166 292.936C679.166 292.408 679.324 291.963 679.641 291.6C679.969 291.236 680.449 291.055 681.082 291.055C681.715 291.055 682.195 291.236 682.523 291.6C682.852 291.963 683.016 292.408 683.016 292.936C683.016 293.463 682.852 293.902 682.523 294.254C682.195 294.605 681.715 294.781 681.082 294.781C680.449 294.781 679.969 294.605 679.641 294.254C679.324 293.902 679.166 293.463 679.166 292.936ZM690.979 297.98L691.084 300.371C692.537 298.543 694.436 297.629 696.779 297.629C700.799 297.629 702.826 299.896 702.861 304.432V317H699.609V304.414C699.598 303.043 699.281 302.029 698.66 301.373C698.051 300.717 697.096 300.389 695.795 300.389C694.74 300.389 693.814 300.67 693.018 301.232C692.221 301.795 691.6 302.533 691.154 303.447V317H687.902V297.98H690.979ZM711.299 317H708.047V297.98H711.299V317ZM707.783 292.936C707.783 292.408 707.941 291.963 708.258 291.6C708.586 291.236 709.066 291.055 709.699 291.055C710.332 291.055 710.812 291.236 711.141 291.6C711.469 291.963 711.633 292.408 711.633 292.936C711.633 293.463 711.469 293.902 711.141 294.254C710.812 294.605 710.332 294.781 709.699 294.781C709.066 294.781 708.586 294.605 708.258 294.254C707.941 293.902 707.783 293.463 707.783 292.936ZM719.578 297.98L719.666 300.09C721.061 298.449 722.941 297.629 725.309 297.629C727.969 297.629 729.779 298.648 730.74 300.688C731.373 299.773 732.193 299.035 733.201 298.473C734.221 297.91 735.422 297.629 736.805 297.629C740.977 297.629 743.098 299.838 743.168 304.256V317H739.916V304.449C739.916 303.09 739.605 302.076 738.984 301.408C738.363 300.729 737.32 300.389 735.855 300.389C734.648 300.389 733.646 300.752 732.85 301.479C732.053 302.193 731.59 303.16 731.461 304.379V317H728.191V304.537C728.191 301.771 726.838 300.389 724.131 300.389C721.998 300.389 720.539 301.297 719.754 303.113V317H716.502V297.98H719.578ZM759.832 317C759.645 316.625 759.492 315.957 759.375 314.996C757.863 316.566 756.059 317.352 753.961 317.352C752.086 317.352 750.545 316.824 749.338 315.77C748.143 314.703 747.545 313.355 747.545 311.727C747.545 309.746 748.295 308.211 749.795 307.121C751.307 306.02 753.428 305.469 756.158 305.469H759.322V303.975C759.322 302.838 758.982 301.936 758.303 301.268C757.623 300.588 756.621 300.248 755.297 300.248C754.137 300.248 753.164 300.541 752.379 301.127C751.594 301.713 751.201 302.422 751.201 303.254H747.932C747.932 302.305 748.266 301.391 748.934 300.512C749.613 299.621 750.527 298.918 751.676 298.402C752.836 297.887 754.107 297.629 755.49 297.629C757.682 297.629 759.398 298.18 760.641 299.281C761.883 300.371 762.527 301.877 762.574 303.799V312.553C762.574 314.299 762.797 315.688 763.242 316.719V317H759.832ZM754.436 314.521C755.455 314.521 756.422 314.258 757.336 313.73C758.25 313.203 758.912 312.518 759.322 311.674V307.771H756.773C752.789 307.771 750.797 308.938 750.797 311.27C750.797 312.289 751.137 313.086 751.816 313.66C752.496 314.234 753.369 314.521 754.436 314.521ZM771.205 317H767.953V290H771.205V317Z" fill="#00FF85"/>
<path d="M77.1016 152.18H68.2422V174H61.4453V152.18H52.75V146.695H77.1016V152.18ZM104.875 160.898C104.875 163.57 104.352 165.93 103.305 167.977C102.258 170.023 100.758 171.602 98.8047 172.711C96.8672 173.82 94.6641 174.375 92.1953 174.375C89.7109 174.375 87.4922 173.828 85.5391 172.734C83.6016 171.641 82.1016 170.086 81.0391 168.07C79.9766 166.039 79.4375 163.703 79.4219 161.062V159.844C79.4219 157.156 79.9453 154.789 80.9922 152.742C82.0391 150.695 83.5312 149.117 85.4688 148.008C87.4062 146.883 89.6328 146.32 92.1484 146.32C94.6172 146.32 96.8125 146.867 98.7344 147.961C100.672 149.055 102.172 150.625 103.234 152.672C104.312 154.703 104.859 157.047 104.875 159.703V160.898ZM98.0781 159.82C98.0781 157.227 97.5547 155.234 96.5078 153.844C95.4766 152.453 94.0234 151.758 92.1484 151.758C90.2109 151.758 88.7344 152.453 87.7188 153.844C86.7188 155.234 86.2188 157.227 86.2188 159.82V160.898C86.2188 163.445 86.7344 165.43 87.7656 166.852C88.7969 168.273 90.2734 168.984 92.1953 168.984C94.0078 168.984 95.4375 168.281 96.4844 166.875C97.5469 165.469 98.0781 163.453 98.0781 160.828V159.82ZM133.375 160.898C133.375 163.57 132.852 165.93 131.805 167.977C130.758 170.023 129.258 171.602 127.305 172.711C125.367 173.82 123.164 174.375 120.695 174.375C118.211 174.375 115.992 173.828 114.039 172.734C112.102 171.641 110.602 170.086 109.539 168.07C108.477 166.039 107.938 163.703 107.922 161.062V159.844C107.922 157.156 108.445 154.789 109.492 152.742C110.539 150.695 112.031 149.117 113.969 148.008C115.906 146.883 118.133 146.32 120.648 146.32C123.117 146.32 125.312 146.867 127.234 147.961C129.172 149.055 130.672 150.625 131.734 152.672C132.812 154.703 133.359 157.047 133.375 159.703V160.898ZM126.578 159.82C126.578 157.227 126.055 155.234 125.008 153.844C123.977 152.453 122.523 151.758 120.648 151.758C118.711 151.758 117.234 152.453 116.219 153.844C115.219 155.234 114.719 157.227 114.719 159.82V160.898C114.719 163.445 115.234 165.43 116.266 166.852C117.297 168.273 118.773 168.984 120.695 168.984C122.508 168.984 123.938 168.281 124.984 166.875C126.047 165.469 126.578 163.453 126.578 160.828V159.82ZM144.039 168.562H156.484V174H137.242V146.695H144.039V168.562ZM174.789 166.664C174.789 165.758 174.406 165.031 173.641 164.484C172.875 163.938 171.57 163.445 169.727 163.008C167.883 162.57 166.328 162.109 165.062 161.625C163.812 161.125 162.781 160.539 161.969 159.867C161.156 159.195 160.555 158.422 160.164 157.547C159.773 156.656 159.578 155.602 159.578 154.383C159.578 152.039 160.555 150.109 162.508 148.594C164.461 147.078 166.977 146.32 170.055 146.32C173.414 146.32 176.125 147.086 178.188 148.617C180.266 150.133 181.305 152.211 181.305 154.852H174.531C174.531 153.852 174.125 153.016 173.312 152.344C172.516 151.672 171.438 151.336 170.078 151.336C168.875 151.336 167.898 151.602 167.148 152.133C166.398 152.664 166.023 153.328 166.023 154.125C166.023 154.922 166.414 155.57 167.195 156.07C167.977 156.555 169.273 157.023 171.086 157.477C174.727 158.273 177.328 159.375 178.891 160.781C180.469 162.188 181.258 164.086 181.258 166.477C181.258 168.914 180.297 170.844 178.375 172.266C176.453 173.672 173.828 174.375 170.5 174.375C168.234 174.375 166.188 174.008 164.359 173.273C162.531 172.539 161.117 171.492 160.117 170.133C159.133 168.773 158.641 167.164 158.641 165.305H165.438C165.438 166.758 165.883 167.805 166.773 168.445C167.68 169.086 169.031 169.406 170.828 169.406C172.047 169.406 173.008 169.156 173.711 168.656C174.43 168.156 174.789 167.492 174.789 166.664ZM185.945 170.672C185.945 169.594 186.305 168.719 187.023 168.047C187.758 167.375 188.672 167.039 189.766 167.039C190.875 167.039 191.789 167.375 192.508 168.047C193.242 168.719 193.609 169.594 193.609 170.672C193.609 171.734 193.25 172.602 192.531 173.273C191.812 173.93 190.891 174.258 189.766 174.258C188.656 174.258 187.742 173.93 187.023 173.273C186.305 172.602 185.945 171.734 185.945 170.672ZM185.945 151.477C185.945 150.398 186.305 149.523 187.023 148.852C187.758 148.18 188.672 147.844 189.766 147.844C190.875 147.844 191.789 148.18 192.508 148.852C193.242 149.523 193.609 150.398 193.609 151.477C193.609 152.539 193.25 153.406 192.531 154.078C191.812 154.734 190.891 155.062 189.766 155.062C188.656 155.062 187.742 154.734 187.023 154.078C186.305 153.406 185.945 152.539 185.945 151.477Z" fill="#FF005C"/>
<path d="M220.693 147.406H224.086V165.529C224.086 167.979 223.348 169.895 221.871 171.277C220.406 172.66 218.449 173.352 216 173.352C213.457 173.352 211.477 172.701 210.059 171.4C208.641 170.1 207.932 168.277 207.932 165.934H211.307C211.307 167.398 211.705 168.541 212.502 169.361C213.311 170.182 214.477 170.592 216 170.592C217.395 170.592 218.52 170.152 219.375 169.273C220.242 168.395 220.682 167.164 220.693 165.582V147.406ZM237.217 173.352C234.639 173.352 232.541 172.508 230.924 170.82C229.307 169.121 228.498 166.854 228.498 164.018V163.42C228.498 161.533 228.855 159.852 229.57 158.375C230.297 156.887 231.305 155.727 232.594 154.895C233.895 154.051 235.301 153.629 236.812 153.629C239.285 153.629 241.207 154.443 242.578 156.072C243.949 157.701 244.635 160.033 244.635 163.068V164.422H231.75C231.797 166.297 232.342 167.814 233.385 168.975C234.439 170.123 235.775 170.697 237.393 170.697C238.541 170.697 239.514 170.463 240.311 169.994C241.107 169.525 241.805 168.904 242.402 168.131L244.389 169.678C242.795 172.127 240.404 173.352 237.217 173.352ZM236.812 156.301C235.5 156.301 234.398 156.781 233.508 157.742C232.617 158.691 232.066 160.027 231.855 161.75H241.383V161.504C241.289 159.852 240.844 158.574 240.047 157.672C239.25 156.758 238.172 156.301 236.812 156.301ZM252.826 149.375V153.98H256.377V156.494H252.826V168.289C252.826 169.051 252.984 169.625 253.301 170.012C253.617 170.387 254.156 170.574 254.918 170.574C255.293 170.574 255.809 170.504 256.465 170.363V173C255.609 173.234 254.777 173.352 253.969 173.352C252.516 173.352 251.42 172.912 250.682 172.033C249.943 171.154 249.574 169.906 249.574 168.289V156.494H246.111V153.98H249.574V149.375H252.826ZM260.701 173V147.406H269.068C271.846 147.406 273.932 147.98 275.326 149.129C276.732 150.277 277.436 151.977 277.436 154.227C277.436 155.422 277.096 156.482 276.416 157.408C275.736 158.322 274.811 159.031 273.639 159.535C275.021 159.922 276.111 160.66 276.908 161.75C277.717 162.828 278.121 164.117 278.121 165.617C278.121 167.914 277.377 169.719 275.889 171.031C274.4 172.344 272.297 173 269.578 173H260.701ZM264.076 161.029V170.24H269.648C271.219 170.24 272.455 169.836 273.357 169.027C274.271 168.207 274.729 167.082 274.729 165.652C274.729 162.57 273.053 161.029 269.701 161.029H264.076ZM264.076 158.322H269.174C270.65 158.322 271.828 157.953 272.707 157.215C273.598 156.477 274.043 155.475 274.043 154.209C274.043 152.803 273.633 151.783 272.812 151.15C271.992 150.506 270.744 150.184 269.068 150.184H264.076V158.322ZM291.814 156.898C291.322 156.816 290.789 156.775 290.215 156.775C288.082 156.775 286.635 157.684 285.873 159.5V173H282.621V153.98H285.785L285.838 156.178C286.904 154.479 288.416 153.629 290.373 153.629C291.006 153.629 291.486 153.711 291.814 153.875V156.898ZM305.859 173C305.672 172.625 305.52 171.957 305.402 170.996C303.891 172.566 302.086 173.352 299.988 173.352C298.113 173.352 296.572 172.824 295.365 171.77C294.17 170.703 293.572 169.355 293.572 167.727C293.572 165.746 294.322 164.211 295.822 163.121C297.334 162.02 299.455 161.469 302.186 161.469H305.35V159.975C305.35 158.838 305.01 157.936 304.33 157.268C303.65 156.588 302.648 156.248 301.324 156.248C300.164 156.248 299.191 156.541 298.406 157.127C297.621 157.713 297.229 158.422 297.229 159.254H293.959C293.959 158.305 294.293 157.391 294.961 156.512C295.641 155.621 296.555 154.918 297.703 154.402C298.863 153.887 300.135 153.629 301.518 153.629C303.709 153.629 305.426 154.18 306.668 155.281C307.91 156.371 308.555 157.877 308.602 159.799V168.553C308.602 170.299 308.824 171.688 309.27 172.719V173H305.859ZM300.463 170.521C301.482 170.521 302.449 170.258 303.363 169.73C304.277 169.203 304.939 168.518 305.35 167.674V163.771H302.801C298.816 163.771 296.824 164.938 296.824 167.27C296.824 168.289 297.164 169.086 297.844 169.66C298.523 170.234 299.396 170.521 300.463 170.521ZM317.232 173H313.98V153.98H317.232V173ZM313.717 148.936C313.717 148.408 313.875 147.963 314.191 147.6C314.52 147.236 315 147.055 315.633 147.055C316.266 147.055 316.746 147.236 317.074 147.6C317.402 147.963 317.566 148.408 317.566 148.936C317.566 149.463 317.402 149.902 317.074 150.254C316.746 150.605 316.266 150.781 315.633 150.781C315 150.781 314.52 150.605 314.191 150.254C313.875 149.902 313.717 149.463 313.717 148.936ZM325.529 153.98L325.635 156.371C327.088 154.543 328.986 153.629 331.33 153.629C335.35 153.629 337.377 155.896 337.412 160.432V173H334.16V160.414C334.148 159.043 333.832 158.029 333.211 157.373C332.602 156.717 331.646 156.389 330.346 156.389C329.291 156.389 328.365 156.67 327.568 157.232C326.771 157.795 326.15 158.533 325.705 159.447V173H322.453V153.98H325.529ZM353.391 167.955C353.391 167.076 353.057 166.396 352.389 165.916C351.732 165.424 350.578 165.002 348.926 164.65C347.285 164.299 345.979 163.877 345.006 163.385C344.045 162.893 343.33 162.307 342.861 161.627C342.404 160.947 342.176 160.139 342.176 159.201C342.176 157.643 342.832 156.324 344.145 155.246C345.469 154.168 347.156 153.629 349.207 153.629C351.363 153.629 353.109 154.186 354.445 155.299C355.793 156.412 356.467 157.836 356.467 159.57H353.197C353.197 158.68 352.816 157.912 352.055 157.268C351.305 156.623 350.355 156.301 349.207 156.301C348.023 156.301 347.098 156.559 346.43 157.074C345.762 157.59 345.428 158.264 345.428 159.096C345.428 159.881 345.738 160.473 346.359 160.871C346.98 161.27 348.1 161.65 349.717 162.014C351.346 162.377 352.664 162.811 353.672 163.314C354.68 163.818 355.424 164.428 355.904 165.143C356.396 165.846 356.643 166.707 356.643 167.727C356.643 169.426 355.963 170.791 354.604 171.822C353.244 172.842 351.48 173.352 349.312 173.352C347.789 173.352 346.441 173.082 345.27 172.543C344.098 172.004 343.178 171.254 342.51 170.293C341.854 169.32 341.525 168.271 341.525 167.146H344.777C344.836 168.236 345.27 169.104 346.078 169.748C346.898 170.381 347.977 170.697 349.312 170.697C350.543 170.697 351.527 170.451 352.266 169.959C353.016 169.455 353.391 168.787 353.391 167.955ZM373.939 173H370.564V147.406H373.939V173ZM380.127 173V147.406H387.352C389.578 147.406 391.547 147.898 393.258 148.883C394.969 149.867 396.287 151.268 397.213 153.084C398.15 154.9 398.625 156.986 398.637 159.342V160.977C398.637 163.391 398.168 165.506 397.23 167.322C396.305 169.139 394.975 170.533 393.24 171.506C391.518 172.479 389.508 172.977 387.211 173H380.127ZM383.502 150.184V170.24H387.053C389.654 170.24 391.676 169.432 393.117 167.814C394.57 166.197 395.297 163.895 395.297 160.906V159.412C395.297 156.506 394.611 154.25 393.24 152.645C391.881 151.027 389.947 150.207 387.439 150.184H383.502ZM418.219 161.17H407.127V170.24H420.012V173H403.752V147.406H419.836V150.184H407.127V158.41H418.219V161.17ZM448.699 163.701C448.699 166.596 448.037 168.928 446.713 170.697C445.389 172.467 443.596 173.352 441.334 173.352C439.025 173.352 437.209 172.619 435.885 171.154V180.312H432.633V153.98H435.604L435.762 156.09C437.086 154.449 438.926 153.629 441.281 153.629C443.566 153.629 445.371 154.49 446.695 156.213C448.031 157.936 448.699 160.332 448.699 163.402V163.701ZM445.447 163.332C445.447 161.188 444.99 159.494 444.076 158.252C443.162 157.01 441.908 156.389 440.314 156.389C438.346 156.389 436.869 157.262 435.885 159.008V168.096C436.857 169.83 438.346 170.697 440.35 170.697C441.908 170.697 443.145 170.082 444.059 168.852C444.984 167.609 445.447 165.77 445.447 163.332ZM462.041 156.898C461.549 156.816 461.016 156.775 460.441 156.775C458.309 156.775 456.861 157.684 456.1 159.5V173H452.848V153.98H456.012L456.064 156.178C457.131 154.479 458.643 153.629 460.6 153.629C461.232 153.629 461.713 153.711 462.041 153.875V156.898ZM463.834 163.314C463.834 161.451 464.197 159.775 464.924 158.287C465.662 156.799 466.682 155.65 467.982 154.842C469.295 154.033 470.789 153.629 472.465 153.629C475.055 153.629 477.146 154.525 478.74 156.318C480.346 158.111 481.148 160.496 481.148 163.473V163.701C481.148 165.553 480.791 167.217 480.076 168.693C479.373 170.158 478.359 171.301 477.035 172.121C475.723 172.941 474.211 173.352 472.5 173.352C469.922 173.352 467.83 172.455 466.225 170.662C464.631 168.869 463.834 166.496 463.834 163.543V163.314ZM467.104 163.701C467.104 165.811 467.59 167.504 468.562 168.781C469.547 170.059 470.859 170.697 472.5 170.697C474.152 170.697 475.465 170.053 476.438 168.764C477.41 167.463 477.896 165.646 477.896 163.314C477.896 161.229 477.398 159.541 476.402 158.252C475.418 156.951 474.105 156.301 472.465 156.301C470.859 156.301 469.564 156.939 468.58 158.217C467.596 159.494 467.104 161.322 467.104 163.701ZM484.436 163.332C484.436 160.414 485.127 158.07 486.51 156.301C487.893 154.52 489.703 153.629 491.941 153.629C494.168 153.629 495.932 154.391 497.232 155.914V146H500.484V173H497.496L497.338 170.961C496.037 172.555 494.227 173.352 491.906 173.352C489.703 173.352 487.904 172.449 486.51 170.645C485.127 168.84 484.436 166.484 484.436 163.578V163.332ZM487.688 163.701C487.688 165.857 488.133 167.545 489.023 168.764C489.914 169.982 491.145 170.592 492.715 170.592C494.777 170.592 496.283 169.666 497.232 167.814V159.078C496.26 157.285 494.766 156.389 492.75 156.389C491.156 156.389 489.914 157.004 489.023 158.234C488.133 159.465 487.688 161.287 487.688 163.701ZM517.289 171.119C516.023 172.607 514.166 173.352 511.717 173.352C509.689 173.352 508.143 172.766 507.076 171.594C506.021 170.41 505.488 168.664 505.477 166.355V153.98H508.729V166.268C508.729 169.15 509.9 170.592 512.244 170.592C514.729 170.592 516.381 169.666 517.201 167.814V153.98H520.453V173H517.359L517.289 171.119ZM533.039 170.697C534.199 170.697 535.213 170.346 536.08 169.643C536.947 168.939 537.428 168.061 537.521 167.006H540.598C540.539 168.096 540.164 169.133 539.473 170.117C538.781 171.102 537.855 171.887 536.695 172.473C535.547 173.059 534.328 173.352 533.039 173.352C530.449 173.352 528.387 172.49 526.852 170.768C525.328 169.033 524.566 166.666 524.566 163.666V163.121C524.566 161.27 524.906 159.623 525.586 158.182C526.266 156.74 527.238 155.621 528.504 154.824C529.781 154.027 531.287 153.629 533.021 153.629C535.154 153.629 536.924 154.268 538.33 155.545C539.748 156.822 540.504 158.48 540.598 160.52H537.521C537.428 159.289 536.959 158.281 536.115 157.496C535.283 156.699 534.252 156.301 533.021 156.301C531.369 156.301 530.086 156.898 529.172 158.094C528.27 159.277 527.818 160.994 527.818 163.244V163.859C527.818 166.051 528.27 167.738 529.172 168.922C530.074 170.105 531.363 170.697 533.039 170.697ZM548.666 149.375V153.98H552.217V156.494H548.666V168.289C548.666 169.051 548.824 169.625 549.141 170.012C549.457 170.387 549.996 170.574 550.758 170.574C551.133 170.574 551.648 170.504 552.305 170.363V173C551.449 173.234 550.617 173.352 549.809 173.352C548.355 173.352 547.26 172.912 546.521 172.033C545.783 171.154 545.414 169.906 545.414 168.289V156.494H541.951V153.98H545.414V149.375H548.666ZM567.105 167.955C567.105 167.076 566.771 166.396 566.104 165.916C565.447 165.424 564.293 165.002 562.641 164.65C561 164.299 559.693 163.877 558.721 163.385C557.76 162.893 557.045 162.307 556.576 161.627C556.119 160.947 555.891 160.139 555.891 159.201C555.891 157.643 556.547 156.324 557.859 155.246C559.184 154.168 560.871 153.629 562.922 153.629C565.078 153.629 566.824 154.186 568.16 155.299C569.508 156.412 570.182 157.836 570.182 159.57H566.912C566.912 158.68 566.531 157.912 565.77 157.268C565.02 156.623 564.07 156.301 562.922 156.301C561.738 156.301 560.812 156.559 560.145 157.074C559.477 157.59 559.143 158.264 559.143 159.096C559.143 159.881 559.453 160.473 560.074 160.871C560.695 161.27 561.814 161.65 563.432 162.014C565.061 162.377 566.379 162.811 567.387 163.314C568.395 163.818 569.139 164.428 569.619 165.143C570.111 165.846 570.357 166.707 570.357 167.727C570.357 169.426 569.678 170.791 568.318 171.822C566.959 172.842 565.195 173.352 563.027 173.352C561.504 173.352 560.156 173.082 558.984 172.543C557.812 172.004 556.893 171.254 556.225 170.293C555.568 169.32 555.24 168.271 555.24 167.146H558.492C558.551 168.236 558.984 169.104 559.793 169.748C560.613 170.381 561.691 170.697 563.027 170.697C564.258 170.697 565.242 170.451 565.98 169.959C566.73 169.455 567.105 168.787 567.105 167.955ZM574.488 178.098L572.643 176.832C573.744 175.297 574.318 173.715 574.365 172.086V169.15H577.547V171.699C577.547 172.883 577.254 174.066 576.668 175.25C576.094 176.434 575.367 177.383 574.488 178.098ZM601.822 147.406H605.215V165.529C605.215 167.979 604.477 169.895 603 171.277C601.535 172.66 599.578 173.352 597.129 173.352C594.586 173.352 592.605 172.701 591.188 171.4C589.77 170.1 589.061 168.277 589.061 165.934H592.436C592.436 167.398 592.834 168.541 593.631 169.361C594.439 170.182 595.605 170.592 597.129 170.592C598.523 170.592 599.648 170.152 600.504 169.273C601.371 168.395 601.811 167.164 601.822 165.582V147.406ZM618.346 173.352C615.768 173.352 613.67 172.508 612.053 170.82C610.436 169.121 609.627 166.854 609.627 164.018V163.42C609.627 161.533 609.984 159.852 610.699 158.375C611.426 156.887 612.434 155.727 613.723 154.895C615.023 154.051 616.43 153.629 617.941 153.629C620.414 153.629 622.336 154.443 623.707 156.072C625.078 157.701 625.764 160.033 625.764 163.068V164.422H612.879C612.926 166.297 613.471 167.814 614.514 168.975C615.568 170.123 616.904 170.697 618.521 170.697C619.67 170.697 620.643 170.463 621.439 169.994C622.236 169.525 622.934 168.904 623.531 168.131L625.518 169.678C623.924 172.127 621.533 173.352 618.346 173.352ZM617.941 156.301C616.629 156.301 615.527 156.781 614.637 157.742C613.746 158.691 613.195 160.027 612.984 161.75H622.512V161.504C622.418 159.852 621.973 158.574 621.176 157.672C620.379 156.758 619.301 156.301 617.941 156.301ZM633.955 149.375V153.98H637.506V156.494H633.955V168.289C633.955 169.051 634.113 169.625 634.43 170.012C634.746 170.387 635.285 170.574 636.047 170.574C636.422 170.574 636.938 170.504 637.594 170.363V173C636.738 173.234 635.906 173.352 635.098 173.352C633.645 173.352 632.549 172.912 631.811 172.033C631.072 171.154 630.703 169.906 630.703 168.289V156.494H627.24V153.98H630.703V149.375H633.955ZM641.83 173V147.406H650.197C652.975 147.406 655.061 147.98 656.455 149.129C657.861 150.277 658.564 151.977 658.564 154.227C658.564 155.422 658.225 156.482 657.545 157.408C656.865 158.322 655.939 159.031 654.768 159.535C656.15 159.922 657.24 160.66 658.037 161.75C658.846 162.828 659.25 164.117 659.25 165.617C659.25 167.914 658.506 169.719 657.018 171.031C655.529 172.344 653.426 173 650.707 173H641.83ZM645.205 161.029V170.24H650.777C652.348 170.24 653.584 169.836 654.486 169.027C655.4 168.207 655.857 167.082 655.857 165.652C655.857 162.57 654.182 161.029 650.83 161.029H645.205ZM645.205 158.322H650.303C651.779 158.322 652.957 157.953 653.836 157.215C654.727 156.477 655.172 155.475 655.172 154.209C655.172 152.803 654.762 151.783 653.941 151.15C653.121 150.506 651.873 150.184 650.197 150.184H645.205V158.322ZM672.943 156.898C672.451 156.816 671.918 156.775 671.344 156.775C669.211 156.775 667.764 157.684 667.002 159.5V173H663.75V153.98H666.914L666.967 156.178C668.033 154.479 669.545 153.629 671.502 153.629C672.135 153.629 672.615 153.711 672.943 153.875V156.898ZM686.988 173C686.801 172.625 686.648 171.957 686.531 170.996C685.02 172.566 683.215 173.352 681.117 173.352C679.242 173.352 677.701 172.824 676.494 171.77C675.299 170.703 674.701 169.355 674.701 167.727C674.701 165.746 675.451 164.211 676.951 163.121C678.463 162.02 680.584 161.469 683.314 161.469H686.479V159.975C686.479 158.838 686.139 157.936 685.459 157.268C684.779 156.588 683.777 156.248 682.453 156.248C681.293 156.248 680.32 156.541 679.535 157.127C678.75 157.713 678.357 158.422 678.357 159.254H675.088C675.088 158.305 675.422 157.391 676.09 156.512C676.77 155.621 677.684 154.918 678.832 154.402C679.992 153.887 681.264 153.629 682.646 153.629C684.838 153.629 686.555 154.18 687.797 155.281C689.039 156.371 689.684 157.877 689.73 159.799V168.553C689.73 170.299 689.953 171.688 690.398 172.719V173H686.988ZM681.592 170.521C682.611 170.521 683.578 170.258 684.492 169.73C685.406 169.203 686.068 168.518 686.479 167.674V163.771H683.93C679.945 163.771 677.953 164.938 677.953 167.27C677.953 168.289 678.293 169.086 678.973 169.66C679.652 170.234 680.525 170.521 681.592 170.521ZM698.361 173H695.109V153.98H698.361V173ZM694.846 148.936C694.846 148.408 695.004 147.963 695.32 147.6C695.648 147.236 696.129 147.055 696.762 147.055C697.395 147.055 697.875 147.236 698.203 147.6C698.531 147.963 698.695 148.408 698.695 148.936C698.695 149.463 698.531 149.902 698.203 150.254C697.875 150.605 697.395 150.781 696.762 150.781C696.129 150.781 695.648 150.605 695.32 150.254C695.004 149.902 694.846 149.463 694.846 148.936ZM706.658 153.98L706.764 156.371C708.217 154.543 710.115 153.629 712.459 153.629C716.479 153.629 718.506 155.896 718.541 160.432V173H715.289V160.414C715.277 159.043 714.961 158.029 714.34 157.373C713.73 156.717 712.775 156.389 711.475 156.389C710.42 156.389 709.494 156.67 708.697 157.232C707.9 157.795 707.279 158.533 706.834 159.447V173H703.582V153.98H706.658ZM734.52 167.955C734.52 167.076 734.186 166.396 733.518 165.916C732.861 165.424 731.707 165.002 730.055 164.65C728.414 164.299 727.107 163.877 726.135 163.385C725.174 162.893 724.459 162.307 723.99 161.627C723.533 160.947 723.305 160.139 723.305 159.201C723.305 157.643 723.961 156.324 725.273 155.246C726.598 154.168 728.285 153.629 730.336 153.629C732.492 153.629 734.238 154.186 735.574 155.299C736.922 156.412 737.596 157.836 737.596 159.57H734.326C734.326 158.68 733.945 157.912 733.184 157.268C732.434 156.623 731.484 156.301 730.336 156.301C729.152 156.301 728.227 156.559 727.559 157.074C726.891 157.59 726.557 158.264 726.557 159.096C726.557 159.881 726.867 160.473 727.488 160.871C728.109 161.27 729.229 161.65 730.846 162.014C732.475 162.377 733.793 162.811 734.801 163.314C735.809 163.818 736.553 164.428 737.033 165.143C737.525 165.846 737.771 166.707 737.771 167.727C737.771 169.426 737.092 170.791 735.732 171.822C734.373 172.842 732.609 173.352 730.441 173.352C728.918 173.352 727.57 173.082 726.398 172.543C725.227 172.004 724.307 171.254 723.639 170.293C722.982 169.32 722.654 168.271 722.654 167.146H725.906C725.965 168.236 726.398 169.104 727.207 169.748C728.027 170.381 729.105 170.697 730.441 170.697C731.672 170.697 732.656 170.451 733.395 169.959C734.145 169.455 734.52 168.787 734.52 167.955ZM758.988 161.592C756.094 160.76 753.984 159.74 752.66 158.533C751.348 157.314 750.691 155.814 750.691 154.033C750.691 152.018 751.494 150.354 753.1 149.041C754.717 147.717 756.814 147.055 759.393 147.055C761.15 147.055 762.715 147.395 764.086 148.074C765.469 148.754 766.535 149.691 767.285 150.887C768.047 152.082 768.428 153.389 768.428 154.807H765.035C765.035 153.26 764.543 152.047 763.559 151.168C762.574 150.277 761.186 149.832 759.393 149.832C757.729 149.832 756.428 150.201 755.49 150.939C754.564 151.666 754.102 152.68 754.102 153.98C754.102 155.023 754.541 155.908 755.42 156.635C756.311 157.35 757.816 158.006 759.938 158.604C762.07 159.201 763.734 159.863 764.93 160.59C766.137 161.305 767.027 162.143 767.602 163.104C768.188 164.064 768.48 165.195 768.48 166.496C768.48 168.57 767.672 170.234 766.055 171.488C764.438 172.73 762.275 173.352 759.568 173.352C757.811 173.352 756.17 173.018 754.646 172.35C753.123 171.67 751.945 170.744 751.113 169.572C750.293 168.4 749.883 167.07 749.883 165.582H753.275C753.275 167.129 753.844 168.354 754.98 169.256C756.129 170.146 757.658 170.592 759.568 170.592C761.35 170.592 762.715 170.229 763.664 169.502C764.613 168.775 765.088 167.785 765.088 166.531C765.088 165.277 764.648 164.311 763.77 163.631C762.891 162.939 761.297 162.26 758.988 161.592ZM788.379 163.701C788.379 166.596 787.717 168.928 786.393 170.697C785.068 172.467 783.275 173.352 781.014 173.352C778.705 173.352 776.889 172.619 775.564 171.154V180.312H772.312V153.98H775.283L775.441 156.09C776.766 154.449 778.605 153.629 780.961 153.629C783.246 153.629 785.051 154.49 786.375 156.213C787.711 157.936 788.379 160.332 788.379 163.402V163.701ZM785.127 163.332C785.127 161.188 784.67 159.494 783.756 158.252C782.842 157.01 781.588 156.389 779.994 156.389C778.025 156.389 776.549 157.262 775.564 159.008V168.096C776.537 169.83 778.025 170.697 780.029 170.697C781.588 170.697 782.824 170.082 783.738 168.852C784.664 167.609 785.127 165.77 785.127 163.332ZM804.27 173C804.082 172.625 803.93 171.957 803.812 170.996C802.301 172.566 800.496 173.352 798.398 173.352C796.523 173.352 794.982 172.824 793.775 171.77C792.58 170.703 791.982 169.355 791.982 167.727C791.982 165.746 792.732 164.211 794.232 163.121C795.744 162.02 797.865 161.469 800.596 161.469H803.76V159.975C803.76 158.838 803.42 157.936 802.74 157.268C802.061 156.588 801.059 156.248 799.734 156.248C798.574 156.248 797.602 156.541 796.816 157.127C796.031 157.713 795.639 158.422 795.639 159.254H792.369C792.369 158.305 792.703 157.391 793.371 156.512C794.051 155.621 794.965 154.918 796.113 154.402C797.273 153.887 798.545 153.629 799.928 153.629C802.119 153.629 803.836 154.18 805.078 155.281C806.32 156.371 806.965 157.877 807.012 159.799V168.553C807.012 170.299 807.234 171.688 807.68 172.719V173H804.27ZM798.873 170.521C799.893 170.521 800.859 170.258 801.773 169.73C802.688 169.203 803.35 168.518 803.76 167.674V163.771H801.211C797.227 163.771 795.234 164.938 795.234 167.27C795.234 168.289 795.574 169.086 796.254 169.66C796.934 170.234 797.807 170.521 798.873 170.521ZM819.738 170.697C820.898 170.697 821.912 170.346 822.779 169.643C823.646 168.939 824.127 168.061 824.221 167.006H827.297C827.238 168.096 826.863 169.133 826.172 170.117C825.48 171.102 824.555 171.887 823.395 172.473C822.246 173.059 821.027 173.352 819.738 173.352C817.148 173.352 815.086 172.49 813.551 170.768C812.027 169.033 811.266 166.666 811.266 163.666V163.121C811.266 161.27 811.605 159.623 812.285 158.182C812.965 156.74 813.938 155.621 815.203 154.824C816.48 154.027 817.986 153.629 819.721 153.629C821.854 153.629 823.623 154.268 825.029 155.545C826.447 156.822 827.203 158.48 827.297 160.52H824.221C824.127 159.289 823.658 158.281 822.814 157.496C821.982 156.699 820.951 156.301 819.721 156.301C818.068 156.301 816.785 156.898 815.871 158.094C814.969 159.277 814.518 160.994 814.518 163.244V163.859C814.518 166.051 814.969 167.738 815.871 168.922C816.773 170.105 818.062 170.697 819.738 170.697ZM838.846 173.352C836.268 173.352 834.17 172.508 832.553 170.82C830.936 169.121 830.127 166.854 830.127 164.018V163.42C830.127 161.533 830.484 159.852 831.199 158.375C831.926 156.887 832.934 155.727 834.223 154.895C835.523 154.051 836.93 153.629 838.441 153.629C840.914 153.629 842.836 154.443 844.207 156.072C845.578 157.701 846.264 160.033 846.264 163.068V164.422H833.379C833.426 166.297 833.971 167.814 835.014 168.975C836.068 170.123 837.404 170.697 839.021 170.697C840.17 170.697 841.143 170.463 841.939 169.994C842.736 169.525 843.434 168.904 844.031 168.131L846.018 169.678C844.424 172.127 842.033 173.352 838.846 173.352ZM838.441 156.301C837.129 156.301 836.027 156.781 835.137 157.742C834.246 158.691 833.695 160.027 833.484 161.75H843.012V161.504C842.918 159.852 842.473 158.574 841.676 157.672C840.879 156.758 839.801 156.301 838.441 156.301ZM849.938 178.098L848.092 176.832C849.193 175.297 849.768 173.715 849.814 172.086V169.15H852.996V171.699C852.996 172.883 852.703 174.066 852.117 175.25C851.543 176.434 850.816 177.383 849.938 178.098ZM224.086 203.697H213.346V215H209.971V189.406H225.826V192.184H213.346V200.938H224.086V203.697ZM232.893 215H229.641V195.98H232.893V215ZM229.377 190.936C229.377 190.408 229.535 189.963 229.852 189.6C230.18 189.236 230.66 189.055 231.293 189.055C231.926 189.055 232.406 189.236 232.734 189.6C233.062 189.963 233.227 190.408 233.227 190.936C233.227 191.463 233.062 191.902 232.734 192.254C232.406 192.605 231.926 192.781 231.293 192.781C230.66 192.781 230.18 192.605 229.852 192.254C229.535 191.902 229.377 191.463 229.377 190.936ZM237.34 205.332C237.34 202.367 238.025 200.012 239.396 198.266C240.768 196.508 242.584 195.629 244.846 195.629C247.166 195.629 248.977 196.449 250.277 198.09L250.436 195.98H253.406V214.543C253.406 217.004 252.674 218.943 251.209 220.361C249.756 221.779 247.799 222.488 245.338 222.488C243.967 222.488 242.625 222.195 241.312 221.609C240 221.023 238.998 220.221 238.307 219.201L239.994 217.25C241.389 218.973 243.094 219.834 245.109 219.834C246.691 219.834 247.922 219.389 248.801 218.498C249.691 217.607 250.137 216.354 250.137 214.736V213.102C248.836 214.602 247.061 215.352 244.811 215.352C242.584 215.352 240.779 214.455 239.396 212.662C238.025 210.869 237.34 208.426 237.34 205.332ZM240.609 205.701C240.609 207.846 241.049 209.533 241.928 210.764C242.807 211.982 244.037 212.592 245.619 212.592C247.67 212.592 249.176 211.66 250.137 209.797V201.113C249.141 199.297 247.646 198.389 245.654 198.389C244.072 198.389 242.836 199.004 241.945 200.234C241.055 201.465 240.609 203.287 240.609 205.701ZM261.387 195.98L261.475 198.09C262.869 196.449 264.75 195.629 267.117 195.629C269.777 195.629 271.588 196.648 272.549 198.688C273.182 197.773 274.002 197.035 275.01 196.473C276.029 195.91 277.23 195.629 278.613 195.629C282.785 195.629 284.906 197.838 284.977 202.256V215H281.725V202.449C281.725 201.09 281.414 200.076 280.793 199.408C280.172 198.729 279.129 198.389 277.664 198.389C276.457 198.389 275.455 198.752 274.658 199.479C273.861 200.193 273.398 201.16 273.27 202.379V215H270V202.537C270 199.771 268.646 198.389 265.939 198.389C263.807 198.389 262.348 199.297 261.562 201.113V215H258.311V195.98H261.387ZM301.641 215C301.453 214.625 301.301 213.957 301.184 212.996C299.672 214.566 297.867 215.352 295.77 215.352C293.895 215.352 292.354 214.824 291.146 213.77C289.951 212.703 289.354 211.355 289.354 209.727C289.354 207.746 290.104 206.211 291.604 205.121C293.115 204.02 295.236 203.469 297.967 203.469H301.131V201.975C301.131 200.838 300.791 199.936 300.111 199.268C299.432 198.588 298.43 198.248 297.105 198.248C295.945 198.248 294.973 198.541 294.188 199.127C293.402 199.713 293.01 200.422 293.01 201.254H289.74C289.74 200.305 290.074 199.391 290.742 198.512C291.422 197.621 292.336 196.918 293.484 196.402C294.645 195.887 295.916 195.629 297.299 195.629C299.49 195.629 301.207 196.18 302.449 197.281C303.691 198.371 304.336 199.877 304.383 201.799V210.553C304.383 212.299 304.605 213.688 305.051 214.719V215H301.641ZM296.244 212.521C297.264 212.521 298.23 212.258 299.145 211.73C300.059 211.203 300.721 210.518 301.131 209.674V205.771H298.582C294.598 205.771 292.605 206.938 292.605 209.27C292.605 210.289 292.945 211.086 293.625 211.66C294.305 212.234 295.178 212.521 296.244 212.521ZM309.375 220.098L307.529 218.832C308.631 217.297 309.205 215.715 309.252 214.086V211.15H312.434V213.699C312.434 214.883 312.141 216.066 311.555 217.25C310.98 218.434 310.254 219.383 309.375 220.098ZM333.527 203.592C330.633 202.76 328.523 201.74 327.199 200.533C325.887 199.314 325.23 197.814 325.23 196.033C325.23 194.018 326.033 192.354 327.639 191.041C329.256 189.717 331.354 189.055 333.932 189.055C335.689 189.055 337.254 189.395 338.625 190.074C340.008 190.754 341.074 191.691 341.824 192.887C342.586 194.082 342.967 195.389 342.967 196.807H339.574C339.574 195.26 339.082 194.047 338.098 193.168C337.113 192.277 335.725 191.832 333.932 191.832C332.268 191.832 330.967 192.201 330.029 192.939C329.104 193.666 328.641 194.68 328.641 195.98C328.641 197.023 329.08 197.908 329.959 198.635C330.85 199.35 332.355 200.006 334.477 200.604C336.609 201.201 338.273 201.863 339.469 202.59C340.676 203.305 341.566 204.143 342.141 205.104C342.727 206.064 343.02 207.195 343.02 208.496C343.02 210.57 342.211 212.234 340.594 213.488C338.977 214.73 336.814 215.352 334.107 215.352C332.35 215.352 330.709 215.018 329.186 214.35C327.662 213.67 326.484 212.744 325.652 211.572C324.832 210.4 324.422 209.07 324.422 207.582H327.814C327.814 209.129 328.383 210.354 329.52 211.256C330.668 212.146 332.197 212.592 334.107 212.592C335.889 212.592 337.254 212.229 338.203 211.502C339.152 210.775 339.627 209.785 339.627 208.531C339.627 207.277 339.188 206.311 338.309 205.631C337.43 204.939 335.836 204.26 333.527 203.592ZM354.744 215.352C352.166 215.352 350.068 214.508 348.451 212.82C346.834 211.121 346.025 208.854 346.025 206.018V205.42C346.025 203.533 346.383 201.852 347.098 200.375C347.824 198.887 348.832 197.727 350.121 196.895C351.422 196.051 352.828 195.629 354.34 195.629C356.812 195.629 358.734 196.443 360.105 198.072C361.477 199.701 362.162 202.033 362.162 205.068V206.422H349.277C349.324 208.297 349.869 209.814 350.912 210.975C351.967 212.123 353.303 212.697 354.92 212.697C356.068 212.697 357.041 212.463 357.838 211.994C358.635 211.525 359.332 210.904 359.93 210.131L361.916 211.678C360.322 214.127 357.932 215.352 354.744 215.352ZM354.34 198.301C353.027 198.301 351.926 198.781 351.035 199.742C350.145 200.691 349.594 202.027 349.383 203.75H358.91V203.504C358.816 201.852 358.371 200.574 357.574 199.672C356.777 198.758 355.699 198.301 354.34 198.301ZM373.57 212.697C374.73 212.697 375.744 212.346 376.611 211.643C377.479 210.939 377.959 210.061 378.053 209.006H381.129C381.07 210.096 380.695 211.133 380.004 212.117C379.312 213.102 378.387 213.887 377.227 214.473C376.078 215.059 374.859 215.352 373.57 215.352C370.98 215.352 368.918 214.49 367.383 212.768C365.859 211.033 365.098 208.666 365.098 205.666V205.121C365.098 203.27 365.438 201.623 366.117 200.182C366.797 198.74 367.77 197.621 369.035 196.824C370.312 196.027 371.818 195.629 373.553 195.629C375.686 195.629 377.455 196.268 378.861 197.545C380.279 198.822 381.035 200.48 381.129 202.52H378.053C377.959 201.289 377.49 200.281 376.646 199.496C375.814 198.699 374.783 198.301 373.553 198.301C371.9 198.301 370.617 198.898 369.703 200.094C368.801 201.277 368.35 202.994 368.35 205.244V205.859C368.35 208.051 368.801 209.738 369.703 210.922C370.605 212.105 371.895 212.697 373.57 212.697ZM396.527 213.119C395.262 214.607 393.404 215.352 390.955 215.352C388.928 215.352 387.381 214.766 386.314 213.594C385.26 212.41 384.727 210.664 384.715 208.355V195.98H387.967V208.268C387.967 211.15 389.139 212.592 391.482 212.592C393.967 212.592 395.619 211.666 396.439 209.814V195.98H399.691V215H396.598L396.527 213.119ZM413.842 198.898C413.35 198.816 412.816 198.775 412.242 198.775C410.109 198.775 408.662 199.684 407.9 201.5V215H404.648V195.98H407.812L407.865 198.178C408.932 196.479 410.443 195.629 412.4 195.629C413.033 195.629 413.514 195.711 413.842 195.875V198.898ZM424.389 215.352C421.811 215.352 419.713 214.508 418.096 212.82C416.479 211.121 415.67 208.854 415.67 206.018V205.42C415.67 203.533 416.027 201.852 416.742 200.375C417.469 198.887 418.477 197.727 419.766 196.895C421.066 196.051 422.473 195.629 423.984 195.629C426.457 195.629 428.379 196.443 429.75 198.072C431.121 199.701 431.807 202.033 431.807 205.068V206.422H418.922C418.969 208.297 419.514 209.814 420.557 210.975C421.611 212.123 422.947 212.697 424.564 212.697C425.713 212.697 426.686 212.463 427.482 211.994C428.279 211.525 428.977 210.904 429.574 210.131L431.561 211.678C429.967 214.127 427.576 215.352 424.389 215.352ZM423.984 198.301C422.672 198.301 421.57 198.781 420.68 199.742C419.789 200.691 419.238 202.027 419.027 203.75H428.555V203.504C428.461 201.852 428.016 200.574 427.219 199.672C426.422 198.758 425.344 198.301 423.984 198.301ZM454.922 206.879C454.605 209.586 453.604 211.678 451.916 213.154C450.24 214.619 448.008 215.352 445.219 215.352C442.195 215.352 439.77 214.268 437.941 212.1C436.125 209.932 435.217 207.031 435.217 203.398V200.938C435.217 198.559 435.639 196.467 436.482 194.662C437.338 192.857 438.545 191.475 440.104 190.514C441.662 189.541 443.467 189.055 445.518 189.055C448.236 189.055 450.416 189.816 452.057 191.34C453.697 192.852 454.652 194.949 454.922 197.633H451.529C451.236 195.594 450.598 194.117 449.613 193.203C448.641 192.289 447.275 191.832 445.518 191.832C443.361 191.832 441.668 192.629 440.438 194.223C439.219 195.816 438.609 198.084 438.609 201.025V203.504C438.609 206.281 439.189 208.49 440.35 210.131C441.51 211.771 443.133 212.592 445.219 212.592C447.094 212.592 448.529 212.17 449.525 211.326C450.533 210.471 451.201 208.988 451.529 206.879H454.922ZM468.932 204.646H462.92V215H459.527V189.406H468C470.883 189.406 473.098 190.062 474.645 191.375C476.203 192.688 476.982 194.598 476.982 197.105C476.982 198.699 476.549 200.088 475.682 201.271C474.826 202.455 473.631 203.34 472.096 203.926L478.107 214.789V215H474.486L468.932 204.646ZM462.92 201.887H468.105C469.781 201.887 471.111 201.453 472.096 200.586C473.092 199.719 473.59 198.559 473.59 197.105C473.59 195.523 473.115 194.311 472.166 193.467C471.229 192.623 469.869 192.195 468.088 192.184H462.92V201.887ZM498.006 192.184H489.779V215H486.422V192.184H478.213V189.406H498.006V192.184ZM497.355 220.098L495.51 218.832C496.611 217.297 497.186 215.715 497.232 214.086V211.15H500.414V213.699C500.414 214.883 500.121 216.066 499.535 217.25C498.961 218.434 498.234 219.383 497.355 220.098ZM517.342 204.98V215H513.967V189.406H523.406C526.207 189.406 528.398 190.121 529.98 191.551C531.574 192.98 532.371 194.873 532.371 197.229C532.371 199.713 531.592 201.629 530.033 202.977C528.486 204.312 526.266 204.98 523.371 204.98H517.342ZM517.342 202.221H523.406C525.211 202.221 526.594 201.799 527.555 200.955C528.516 200.1 528.996 198.869 528.996 197.264C528.996 195.74 528.516 194.521 527.555 193.607C526.594 192.693 525.275 192.219 523.6 192.184H517.342V202.221ZM535.061 205.314C535.061 203.451 535.424 201.775 536.15 200.287C536.889 198.799 537.908 197.65 539.209 196.842C540.521 196.033 542.016 195.629 543.691 195.629C546.281 195.629 548.373 196.525 549.967 198.318C551.572 200.111 552.375 202.496 552.375 205.473V205.701C552.375 207.553 552.018 209.217 551.303 210.693C550.6 212.158 549.586 213.301 548.262 214.121C546.949 214.941 545.438 215.352 543.727 215.352C541.148 215.352 539.057 214.455 537.451 212.662C535.857 210.869 535.061 208.496 535.061 205.543V205.314ZM538.33 205.701C538.33 207.811 538.816 209.504 539.789 210.781C540.773 212.059 542.086 212.697 543.727 212.697C545.379 212.697 546.691 212.053 547.664 210.764C548.637 209.463 549.123 207.646 549.123 205.314C549.123 203.229 548.625 201.541 547.629 200.252C546.645 198.951 545.332 198.301 543.691 198.301C542.086 198.301 540.791 198.939 539.807 200.217C538.822 201.494 538.33 203.322 538.33 205.701ZM567.527 209.955C567.527 209.076 567.193 208.396 566.525 207.916C565.869 207.424 564.715 207.002 563.062 206.65C561.422 206.299 560.115 205.877 559.143 205.385C558.182 204.893 557.467 204.307 556.998 203.627C556.541 202.947 556.312 202.139 556.312 201.201C556.312 199.643 556.969 198.324 558.281 197.246C559.605 196.168 561.293 195.629 563.344 195.629C565.5 195.629 567.246 196.186 568.582 197.299C569.93 198.412 570.604 199.836 570.604 201.57H567.334C567.334 200.68 566.953 199.912 566.191 199.268C565.441 198.623 564.492 198.301 563.344 198.301C562.16 198.301 561.234 198.559 560.566 199.074C559.898 199.59 559.564 200.264 559.564 201.096C559.564 201.881 559.875 202.473 560.496 202.871C561.117 203.27 562.236 203.65 563.854 204.014C565.482 204.377 566.801 204.811 567.809 205.314C568.816 205.818 569.561 206.428 570.041 207.143C570.533 207.846 570.779 208.707 570.779 209.727C570.779 211.426 570.1 212.791 568.74 213.822C567.381 214.842 565.617 215.352 563.449 215.352C561.926 215.352 560.578 215.082 559.406 214.543C558.234 214.004 557.314 213.254 556.646 212.293C555.99 211.32 555.662 210.271 555.662 209.146H558.914C558.973 210.236 559.406 211.104 560.215 211.748C561.035 212.381 562.113 212.697 563.449 212.697C564.68 212.697 565.664 212.451 566.402 211.959C567.152 211.455 567.527 210.787 567.527 209.955ZM579.428 191.375V195.98H582.979V198.494H579.428V210.289C579.428 211.051 579.586 211.625 579.902 212.012C580.219 212.387 580.758 212.574 581.52 212.574C581.895 212.574 582.41 212.504 583.066 212.363V215C582.211 215.234 581.379 215.352 580.57 215.352C579.117 215.352 578.021 214.912 577.283 214.033C576.545 213.154 576.176 211.906 576.176 210.289V198.494H572.713V195.98H576.176V191.375H579.428ZM589.852 195.98L589.939 198.09C591.334 196.449 593.215 195.629 595.582 195.629C598.242 195.629 600.053 196.648 601.014 198.688C601.646 197.773 602.467 197.035 603.475 196.473C604.494 195.91 605.695 195.629 607.078 195.629C611.25 195.629 613.371 197.838 613.441 202.256V215H610.189V202.449C610.189 201.09 609.879 200.076 609.258 199.408C608.637 198.729 607.594 198.389 606.129 198.389C604.922 198.389 603.92 198.752 603.123 199.479C602.326 200.193 601.863 201.16 601.734 202.379V215H598.465V202.537C598.465 199.771 597.111 198.389 594.404 198.389C592.271 198.389 590.812 199.297 590.027 201.113V215H586.775V195.98H589.852ZM630.105 215C629.918 214.625 629.766 213.957 629.648 212.996C628.137 214.566 626.332 215.352 624.234 215.352C622.359 215.352 620.818 214.824 619.611 213.77C618.416 212.703 617.818 211.355 617.818 209.727C617.818 207.746 618.568 206.211 620.068 205.121C621.58 204.02 623.701 203.469 626.432 203.469H629.596V201.975C629.596 200.838 629.256 199.936 628.576 199.268C627.896 198.588 626.895 198.248 625.57 198.248C624.41 198.248 623.438 198.541 622.652 199.127C621.867 199.713 621.475 200.422 621.475 201.254H618.205C618.205 200.305 618.539 199.391 619.207 198.512C619.887 197.621 620.801 196.918 621.949 196.402C623.109 195.887 624.381 195.629 625.764 195.629C627.955 195.629 629.672 196.18 630.914 197.281C632.156 198.371 632.801 199.877 632.848 201.799V210.553C632.848 212.299 633.07 213.688 633.516 214.719V215H630.105ZM624.709 212.521C625.729 212.521 626.695 212.258 627.609 211.73C628.523 211.203 629.186 210.518 629.596 209.674V205.771H627.047C623.062 205.771 621.07 206.938 621.07 209.27C621.07 210.289 621.41 211.086 622.09 211.66C622.77 212.234 623.643 212.521 624.709 212.521ZM641.021 195.98L641.127 198.371C642.58 196.543 644.479 195.629 646.822 195.629C650.842 195.629 652.869 197.896 652.904 202.432V215H649.652V202.414C649.641 201.043 649.324 200.029 648.703 199.373C648.094 198.717 647.139 198.389 645.838 198.389C644.783 198.389 643.857 198.67 643.061 199.232C642.264 199.795 641.643 200.533 641.197 201.447V215H637.945V195.98H641.021ZM657.703 220.098L655.857 218.832C656.959 217.297 657.533 215.715 657.58 214.086V211.15H660.762V213.699C660.762 214.883 660.469 216.066 659.883 217.25C659.309 218.434 658.582 219.383 657.703 220.098ZM674.314 215V189.406H681.539C683.766 189.406 685.734 189.898 687.445 190.883C689.156 191.867 690.475 193.268 691.4 195.084C692.338 196.9 692.812 198.986 692.824 201.342V202.977C692.824 205.391 692.355 207.506 691.418 209.322C690.492 211.139 689.162 212.533 687.428 213.506C685.705 214.479 683.695 214.977 681.398 215H674.314ZM677.689 192.184V212.24H681.24C683.842 212.24 685.863 211.432 687.305 209.814C688.758 208.197 689.484 205.895 689.484 202.906V201.412C689.484 198.506 688.799 196.25 687.428 194.645C686.068 193.027 684.135 192.207 681.627 192.184H677.689ZM696.568 205.314C696.568 203.451 696.932 201.775 697.658 200.287C698.396 198.799 699.416 197.65 700.717 196.842C702.029 196.033 703.523 195.629 705.199 195.629C707.789 195.629 709.881 196.525 711.475 198.318C713.08 200.111 713.883 202.496 713.883 205.473V205.701C713.883 207.553 713.525 209.217 712.811 210.693C712.107 212.158 711.094 213.301 709.77 214.121C708.457 214.941 706.945 215.352 705.234 215.352C702.656 215.352 700.564 214.455 698.959 212.662C697.365 210.869 696.568 208.496 696.568 205.543V205.314ZM699.838 205.701C699.838 207.811 700.324 209.504 701.297 210.781C702.281 212.059 703.594 212.697 705.234 212.697C706.887 212.697 708.199 212.053 709.172 210.764C710.145 209.463 710.631 207.646 710.631 205.314C710.631 203.229 710.133 201.541 709.137 200.252C708.152 198.951 706.84 198.301 705.199 198.301C703.594 198.301 702.299 198.939 701.314 200.217C700.33 201.494 699.838 203.322 699.838 205.701ZM725.59 212.697C726.75 212.697 727.764 212.346 728.631 211.643C729.498 210.939 729.979 210.061 730.072 209.006H733.148C733.09 210.096 732.715 211.133 732.023 212.117C731.332 213.102 730.406 213.887 729.246 214.473C728.098 215.059 726.879 215.352 725.59 215.352C723 215.352 720.938 214.49 719.402 212.768C717.879 211.033 717.117 208.666 717.117 205.666V205.121C717.117 203.27 717.457 201.623 718.137 200.182C718.816 198.74 719.789 197.621 721.055 196.824C722.332 196.027 723.838 195.629 725.572 195.629C727.705 195.629 729.475 196.268 730.881 197.545C732.299 198.822 733.055 200.48 733.148 202.52H730.072C729.979 201.289 729.51 200.281 728.666 199.496C727.834 198.699 726.803 198.301 725.572 198.301C723.92 198.301 722.637 198.898 721.723 200.094C720.82 201.277 720.369 202.994 720.369 205.244V205.859C720.369 208.051 720.82 209.738 721.723 210.922C722.625 212.105 723.914 212.697 725.59 212.697ZM742.113 206.193L740.074 208.32V215H736.822V188H740.074V204.33L741.814 202.238L747.738 195.98H751.693L744.293 203.926L752.555 215H748.74L742.113 206.193ZM762.592 215.352C760.014 215.352 757.916 214.508 756.299 212.82C754.682 211.121 753.873 208.854 753.873 206.018V205.42C753.873 203.533 754.23 201.852 754.945 200.375C755.672 198.887 756.68 197.727 757.969 196.895C759.27 196.051 760.676 195.629 762.188 195.629C764.66 195.629 766.582 196.443 767.953 198.072C769.324 199.701 770.01 202.033 770.01 205.068V206.422H757.125C757.172 208.297 757.717 209.814 758.76 210.975C759.814 212.123 761.15 212.697 762.768 212.697C763.916 212.697 764.889 212.463 765.686 211.994C766.482 211.525 767.18 210.904 767.777 210.131L769.764 211.678C768.17 214.127 765.779 215.352 762.592 215.352ZM762.188 198.301C760.875 198.301 759.773 198.781 758.883 199.742C757.992 200.691 757.441 202.027 757.23 203.75H766.758V203.504C766.664 201.852 766.219 200.574 765.422 199.672C764.625 198.758 763.547 198.301 762.188 198.301ZM782.982 198.898C782.49 198.816 781.957 198.775 781.383 198.775C779.25 198.775 777.803 199.684 777.041 201.5V215H773.789V195.98H776.953L777.006 198.178C778.072 196.479 779.584 195.629 781.541 195.629C782.174 195.629 782.654 195.711 782.982 195.875V198.898Z" fill="#00FF85"/>
<path d="M129 55.2268L443.472 37" stroke="#FF005C" stroke-width="12" stroke-linecap="round"/>
<path fill-rule="evenodd" clip-rule="evenodd" d="M55.5 20.4583C46.6406 20.4583 39.4583 27.6406 39.4583 36.5C39.4583 45.3594 46.6406 52.5417 55.5 52.5417C64.3594 52.5417 71.5417 45.3594 71.5417 36.5C71.5417 27.6406 64.3594 20.4583 55.5 20.4583ZM54.7708 27.75C54.3841 27.75 54.0131 27.9036 53.7396 28.1771C53.4662 28.4506 53.3125 28.8216 53.3125 29.2083C53.3125 29.5951 53.4662 29.966 53.7396 30.2395C54.0131 30.513 54.3841 30.6667 54.7708 30.6667H55.5C55.8868 30.6667 56.2577 30.513 56.5312 30.2395C56.8047 29.966 56.9583 29.5951 56.9583 29.2083C56.9583 28.8216 56.8047 28.4506 56.5312 28.1771C56.2577 27.9036 55.8868 27.75 55.5 27.75H54.7708ZM52.5833 33.5833C52.1966 33.5833 51.8256 33.737 51.5521 34.0105C51.2787 34.284 51.125 34.6549 51.125 35.0417C51.125 35.4284 51.2787 35.7994 51.5521 36.0729C51.8256 36.3464 52.1966 36.5 52.5833 36.5H54.0417V40.875H52.5833C52.1966 40.875 51.8256 41.0286 51.5521 41.3021C51.2787 41.5756 51.125 41.9466 51.125 42.3333C51.125 42.7201 51.2787 43.091 51.5521 43.3645C51.8256 43.638 52.1966 43.7917 52.5833 43.7917H58.4167C58.8035 43.7917 59.1744 43.638 59.4479 43.3645C59.7214 43.091 59.875 42.7201 59.875 42.3333C59.875 41.9466 59.7214 41.5756 59.4479 41.3021C59.1744 41.0286 58.8035 40.875 58.4167 40.875H56.9583V35.0417C56.9583 34.6549 56.8047 34.284 56.5312 34.0105C56.2577 33.737 55.8868 33.5833 55.5 33.5833H52.5833Z" fill="#FF005C"/>
<path d="M99.5625 50H92.7656V22.6953H99.5625V50ZM129.047 50H122.273L111.492 32.9844V50H104.695V22.6953H111.492L122.273 39.7344V22.6953H129.047V50ZM151.969 39.3594H140.508V50H133.711V22.6953H153.211V28.1797H140.508V33.8984H151.969V39.3594ZM180.938 36.8984C180.938 39.5703 180.414 41.9297 179.367 43.9766C178.32 46.0234 176.82 47.6016 174.867 48.7109C172.93 49.8203 170.727 50.375 168.258 50.375C165.773 50.375 163.555 49.8281 161.602 48.7344C159.664 47.6406 158.164 46.0859 157.102 44.0703C156.039 42.0391 155.5 39.7031 155.484 37.0625V35.8438C155.484 33.1562 156.008 30.7891 157.055 28.7422C158.102 26.6953 159.594 25.1172 161.531 24.0078C163.469 22.8828 165.695 22.3203 168.211 22.3203C170.68 22.3203 172.875 22.8672 174.797 23.9609C176.734 25.0547 178.234 26.625 179.297 28.6719C180.375 30.7031 180.922 33.0469 180.938 35.7031V36.8984ZM174.141 35.8203C174.141 33.2266 173.617 31.2344 172.57 29.8438C171.539 28.4531 170.086 27.7578 168.211 27.7578C166.273 27.7578 164.797 28.4531 163.781 29.8438C162.781 31.2344 162.281 33.2266 162.281 35.8203V36.8984C162.281 39.4453 162.797 41.4297 163.828 42.8516C164.859 44.2734 166.336 44.9844 168.258 44.9844C170.07 44.9844 171.5 44.2812 172.547 42.875C173.609 41.4688 174.141 39.4531 174.141 36.8281V35.8203ZM195.844 40.5781H191.602V50H184.805V22.6953H196.195C199.664 22.6953 202.367 23.4141 204.305 24.8516C206.242 26.2734 207.211 28.2891 207.211 30.8984C207.211 32.8359 206.805 34.4375 205.992 35.7031C205.195 36.9531 203.891 37.9766 202.078 38.7734L208.266 49.7188V50H200.953L195.844 40.5781ZM191.602 35.1172H196.195C199.023 35.1172 200.438 33.9531 200.438 31.625C200.438 29.3281 198.961 28.1797 196.008 28.1797H191.602V35.1172ZM220.5 22.6953L227.32 41.0938L234.094 22.6953H243.07V50H236.25V44.4688L236.953 30.125L229.57 50H225.047L217.688 30.1953L218.391 44.4688V50H211.57V22.6953H220.5ZM264.703 44.7969H254.133L252.211 50H245.414L256.219 22.6953H262.594L273.492 50H266.648L264.703 44.7969ZM255.961 39.8281H262.828L259.383 30.5938L255.961 39.8281ZM297.07 28.1797H288.211V50H281.414V28.1797H272.719V22.6953H297.07V28.1797ZM307.453 50H300.656V22.6953H307.453V50ZM337.219 36.8984C337.219 39.5703 336.695 41.9297 335.648 43.9766C334.602 46.0234 333.102 47.6016 331.148 48.7109C329.211 49.8203 327.008 50.375 324.539 50.375C322.055 50.375 319.836 49.8281 317.883 48.7344C315.945 47.6406 314.445 46.0859 313.383 44.0703C312.32 42.0391 311.781 39.7031 311.766 37.0625V35.8438C311.766 33.1562 312.289 30.7891 313.336 28.7422C314.383 26.6953 315.875 25.1172 317.812 24.0078C319.75 22.8828 321.977 22.3203 324.492 22.3203C326.961 22.3203 329.156 22.8672 331.078 23.9609C333.016 25.0547 334.516 26.625 335.578 28.6719C336.656 30.7031 337.203 33.0469 337.219 35.7031V36.8984ZM330.422 35.8203C330.422 33.2266 329.898 31.2344 328.852 29.8438C327.82 28.4531 326.367 27.7578 324.492 27.7578C322.555 27.7578 321.078 28.4531 320.062 29.8438C319.062 31.2344 318.562 33.2266 318.562 35.8203V36.8984C318.562 39.4453 319.078 41.4297 320.109 42.8516C321.141 44.2734 322.617 44.9844 324.539 44.9844C326.352 44.9844 327.781 44.2812 328.828 42.875C329.891 41.4688 330.422 39.4531 330.422 36.8281V35.8203ZM365.438 50H358.664L347.883 32.9844V50H341.086V22.6953H347.883L358.664 39.7344V22.6953H365.438V50Z" fill="#41E0EA"/>
</svg>
