<svg width="155" height="35" viewBox="0 0 155 35" fill="none" xmlns="http://www.w3.org/2000/svg">
<path d="M29.8156 28.1223H24.6389V20.4635C24.6389 18.6372 24.5984 16.2901 21.9319 16.2901C19.2325 16.2901 18.8213 18.2711 18.8213 20.3284V28.1213H13.638V12.3736H18.6167V14.5216H18.6834C19.3791 13.2811 21.0711 11.9766 23.5955 11.9766C28.8466 11.9766 29.8211 15.2362 29.8211 19.4745V28.1213L29.8156 28.1223ZM7.78203 10.2214C7.38639 10.2216 6.99462 10.1481 6.62914 10.0053C6.26366 9.86243 5.93166 9.65301 5.65216 9.38901C5.37265 9.12501 5.15114 8.81161 5.0003 8.46677C4.84946 8.12192 4.77226 7.75241 4.77312 7.3794C4.77377 6.81795 4.95098 6.26929 5.28233 5.80279C5.61369 5.33629 6.08431 4.9729 6.6347 4.75856C7.18509 4.54423 7.79053 4.48857 8.37447 4.59863C8.95841 4.70868 9.49462 4.97951 9.91531 5.37688C10.336 5.77424 10.6223 6.28029 10.738 6.83104C10.8536 7.38179 10.7935 7.95251 10.5652 8.47105C10.3368 8.98958 9.95055 9.43264 9.45516 9.7442C8.95977 10.0558 8.37752 10.2218 7.78203 10.2214ZM10.3786 28.1223H5.18437V12.3746H10.3786V28.1223ZM32.4144 0H2.58125C1.15609 0 0 1.06319 0 2.37902V30.621C0 31.9368 1.15609 33 2.58125 33H32.4089C33.8319 33 35 31.9368 35 30.621V2.37902C35 1.06319 33.8319 0 32.4089 0H32.4144Z" fill="#FFD233"/>
<path d="M49.0391 8.9375V26H45.5234V8.9375H49.0391ZM55.8359 16.2266V18.9688H48.0781V16.2266H55.8359ZM56.6562 8.9375V11.6914H48.0781V8.9375H56.6562ZM62.0469 13.3203V26H58.6602V13.3203H62.0469ZM58.4492 10.0156C58.4492 9.52344 58.6211 9.11719 58.9648 8.79688C59.3086 8.47656 59.7695 8.31641 60.3477 8.31641C60.918 8.31641 61.375 8.47656 61.7188 8.79688C62.0703 9.11719 62.2461 9.52344 62.2461 10.0156C62.2461 10.5078 62.0703 10.9141 61.7188 11.2344C61.375 11.5547 60.918 11.7148 60.3477 11.7148C59.7695 11.7148 59.3086 11.5547 58.9648 11.2344C58.6211 10.9141 58.4492 10.5078 58.4492 10.0156ZM68.2109 16.0859V26H64.8359V13.3203H68.0117L68.2109 16.0859ZM72.0312 13.2383L71.9727 16.3672C71.8086 16.3438 71.6094 16.3242 71.375 16.3086C71.1484 16.2852 70.9414 16.2734 70.7539 16.2734C70.2773 16.2734 69.8633 16.3359 69.5117 16.4609C69.168 16.5781 68.8789 16.7539 68.6445 16.9883C68.418 17.2227 68.2461 17.5078 68.1289 17.8438C68.0195 18.1797 67.957 18.5625 67.9414 18.9922L67.2617 18.7812C67.2617 17.9609 67.3438 17.207 67.5078 16.5195C67.6719 15.8242 67.9102 15.2188 68.2227 14.7031C68.543 14.1875 68.9336 13.7891 69.3945 13.5078C69.8555 13.2266 70.3828 13.0859 70.9766 13.0859C71.1641 13.0859 71.3555 13.1016 71.5508 13.1328C71.7461 13.1562 71.9062 13.1914 72.0312 13.2383ZM77.1875 13.3203V26H73.8008V13.3203H77.1875ZM73.5898 10.0156C73.5898 9.52344 73.7617 9.11719 74.1055 8.79688C74.4492 8.47656 74.9102 8.31641 75.4883 8.31641C76.0586 8.31641 76.5156 8.47656 76.8594 8.79688C77.2109 9.11719 77.3867 9.52344 77.3867 10.0156C77.3867 10.5078 77.2109 10.9141 76.8594 11.2344C76.5156 11.5547 76.0586 11.7148 75.4883 11.7148C74.9102 11.7148 74.4492 11.5547 74.1055 11.2344C73.7617 10.9141 73.5898 10.5078 73.5898 10.0156ZM83.2812 16.0273V26H79.9062V13.3203H83.0703L83.2812 16.0273ZM82.7891 19.2148H81.875C81.875 18.2773 81.9961 17.4336 82.2383 16.6836C82.4805 15.9258 82.8203 15.2812 83.2578 14.75C83.6953 14.2109 84.2148 13.8008 84.8164 13.5195C85.4258 13.2305 86.1055 13.0859 86.8555 13.0859C87.4492 13.0859 87.9922 13.1719 88.4844 13.3438C88.9766 13.5156 89.3984 13.7891 89.75 14.1641C90.1094 14.5391 90.3828 15.0352 90.5703 15.6523C90.7656 16.2695 90.8633 17.0234 90.8633 17.9141V26H87.4648V17.9023C87.4648 17.3398 87.3867 16.9023 87.2305 16.5898C87.0742 16.2773 86.8438 16.0586 86.5391 15.9336C86.2422 15.8008 85.875 15.7344 85.4375 15.7344C84.9844 15.7344 84.5898 15.8242 84.2539 16.0039C83.9258 16.1836 83.6523 16.4336 83.4336 16.7539C83.2227 17.0664 83.0625 17.4336 82.9531 17.8555C82.8438 18.2773 82.7891 18.7305 82.7891 19.2148ZM97.1562 8.9375V26H93.6406V8.9375H97.1562ZM107.375 8.9375L100.613 17.3633L96.7109 21.5586L96.0781 18.2305L98.7148 14.6211L103.062 8.9375H107.375ZM103.379 26L98.3516 18.1133L100.953 15.9336L107.539 26H103.379ZM112.25 13.3203V26H108.863V13.3203H112.25ZM108.652 10.0156C108.652 9.52344 108.824 9.11719 109.168 8.79688C109.512 8.47656 109.973 8.31641 110.551 8.31641C111.121 8.31641 111.578 8.47656 111.922 8.79688C112.273 9.11719 112.449 9.52344 112.449 10.0156C112.449 10.5078 112.273 10.9141 111.922 11.2344C111.578 11.5547 111.121 11.7148 110.551 11.7148C109.973 11.7148 109.512 11.5547 109.168 11.2344C108.824 10.9141 108.652 10.5078 108.652 10.0156ZM118.344 16.0273V26H114.969V13.3203H118.133L118.344 16.0273ZM117.852 19.2148H116.938C116.938 18.2773 117.059 17.4336 117.301 16.6836C117.543 15.9258 117.883 15.2812 118.32 14.75C118.758 14.2109 119.277 13.8008 119.879 13.5195C120.488 13.2305 121.168 13.0859 121.918 13.0859C122.512 13.0859 123.055 13.1719 123.547 13.3438C124.039 13.5156 124.461 13.7891 124.812 14.1641C125.172 14.5391 125.445 15.0352 125.633 15.6523C125.828 16.2695 125.926 17.0234 125.926 17.9141V26H122.527V17.9023C122.527 17.3398 122.449 16.9023 122.293 16.5898C122.137 16.2773 121.906 16.0586 121.602 15.9336C121.305 15.8008 120.938 15.7344 120.5 15.7344C120.047 15.7344 119.652 15.8242 119.316 16.0039C118.988 16.1836 118.715 16.4336 118.496 16.7539C118.285 17.0664 118.125 17.4336 118.016 17.8555C117.906 18.2773 117.852 18.7305 117.852 19.2148ZM135.992 22.9648V13.3203H139.367V26H136.191L135.992 22.9648ZM136.367 20.3633L137.363 20.3398C137.363 21.1836 137.266 21.9688 137.07 22.6953C136.875 23.4141 136.582 24.0391 136.191 24.5703C135.801 25.0938 135.309 25.5039 134.715 25.8008C134.121 26.0898 133.422 26.2344 132.617 26.2344C132 26.2344 131.43 26.1484 130.906 25.9766C130.391 25.7969 129.945 25.5195 129.57 25.1445C129.203 24.7617 128.914 24.2734 128.703 23.6797C128.5 23.0781 128.398 22.3555 128.398 21.5117V13.3203H131.773V21.5352C131.773 21.9102 131.816 22.2266 131.902 22.4844C131.996 22.7422 132.125 22.9531 132.289 23.1172C132.453 23.2812 132.645 23.3984 132.863 23.4688C133.09 23.5391 133.34 23.5742 133.613 23.5742C134.309 23.5742 134.855 23.4336 135.254 23.1523C135.66 22.8711 135.945 22.4883 136.109 22.0039C136.281 21.5117 136.367 20.9648 136.367 20.3633ZM141.406 19.7891V19.543C141.406 18.6133 141.539 17.7578 141.805 16.9766C142.07 16.1875 142.457 15.5039 142.965 14.9258C143.473 14.3477 144.098 13.8984 144.84 13.5781C145.582 13.25 146.434 13.0859 147.395 13.0859C148.355 13.0859 149.211 13.25 149.961 13.5781C150.711 13.8984 151.34 14.3477 151.848 14.9258C152.363 15.5039 152.754 16.1875 153.02 16.9766C153.285 17.7578 153.418 18.6133 153.418 19.543V19.7891C153.418 20.7109 153.285 21.5664 153.02 22.3555C152.754 23.1367 152.363 23.8203 151.848 24.4062C151.34 24.9844 150.715 25.4336 149.973 25.7539C149.23 26.0742 148.379 26.2344 147.418 26.2344C146.457 26.2344 145.602 26.0742 144.852 25.7539C144.109 25.4336 143.48 24.9844 142.965 24.4062C142.457 23.8203 142.07 23.1367 141.805 22.3555C141.539 21.5664 141.406 20.7109 141.406 19.7891ZM144.781 19.543V19.7891C144.781 20.3203 144.828 20.8164 144.922 21.2773C145.016 21.7383 145.164 22.1445 145.367 22.4961C145.578 22.8398 145.852 23.1094 146.188 23.3047C146.523 23.5 146.934 23.5977 147.418 23.5977C147.887 23.5977 148.289 23.5 148.625 23.3047C148.961 23.1094 149.23 22.8398 149.434 22.4961C149.637 22.1445 149.785 21.7383 149.879 21.2773C149.98 20.8164 150.031 20.3203 150.031 19.7891V19.543C150.031 19.0273 149.98 18.543 149.879 18.0898C149.785 17.6289 149.633 17.2227 149.422 16.8711C149.219 16.5117 148.949 16.2305 148.613 16.0273C148.277 15.8242 147.871 15.7227 147.395 15.7227C146.918 15.7227 146.512 15.8242 146.176 16.0273C145.848 16.2305 145.578 16.5117 145.367 16.8711C145.164 17.2227 145.016 17.6289 144.922 18.0898C144.828 18.543 144.781 19.0273 144.781 19.543Z" fill="#00FF85"/>
</svg>
