<svg width="303" height="144" viewBox="0 0 303 144" fill="none" xmlns="http://www.w3.org/2000/svg">
<path d="M87.1545 19.5077L86.7629 59.4656L124.644 72.1857L86.5209 84.161L86.1293 124.119L62.9594 91.5621L24.8362 103.537L48.6396 71.4409L25.4698 38.8841L63.351 51.6042L87.1545 19.5077Z" fill="#FF005C"/>
<path d="M32.5625 44H25.7656V16.6953H32.5625V44ZM39.9219 20.3516L36.7344 18.5C38.0781 16.3906 38.7734 14.2109 38.8203 11.9609V8H44.2109V11.6328C44.2109 13.0391 43.8203 14.5625 43.0391 16.2031C42.2578 17.8438 41.2188 19.2266 39.9219 20.3516ZM57.6406 16.6953L64.4609 35.0938L71.2344 16.6953H80.2109V44H73.3906V38.4688L74.0938 24.125L66.7109 44H62.1875L54.8281 24.1953L55.5312 38.4688V44H48.7109V16.6953H57.6406ZM103.648 38.5625H116.094V44H96.8516V16.6953H103.648V38.5625ZM126.453 44H119.656V16.6953H126.453V44ZM146.773 36.6641C146.773 35.7578 146.391 35.0312 145.625 34.4844C144.859 33.9375 143.555 33.4453 141.711 33.0078C139.867 32.5703 138.312 32.1094 137.047 31.625C135.797 31.125 134.766 30.5391 133.953 29.8672C133.141 29.1953 132.539 28.4219 132.148 27.5469C131.758 26.6562 131.562 25.6016 131.562 24.3828C131.562 22.0391 132.539 20.1094 134.492 18.5938C136.445 17.0781 138.961 16.3203 142.039 16.3203C145.398 16.3203 148.109 17.0859 150.172 18.6172C152.25 20.1328 153.289 22.2109 153.289 24.8516H146.516C146.516 23.8516 146.109 23.0156 145.297 22.3438C144.5 21.6719 143.422 21.3359 142.062 21.3359C140.859 21.3359 139.883 21.6016 139.133 22.1328C138.383 22.6641 138.008 23.3281 138.008 24.125C138.008 24.9219 138.398 25.5703 139.18 26.0703C139.961 26.5547 141.258 27.0234 143.07 27.4766C146.711 28.2734 149.312 29.375 150.875 30.7812C152.453 32.1875 153.242 34.0859 153.242 36.4766C153.242 38.9141 152.281 40.8438 150.359 42.2656C148.438 43.6719 145.812 44.375 142.484 44.375C140.219 44.375 138.172 44.0078 136.344 43.2734C134.516 42.5391 133.102 41.4922 132.102 40.1328C131.117 38.7734 130.625 37.1641 130.625 35.3047H137.422C137.422 36.7578 137.867 37.8047 138.758 38.4453C139.664 39.0859 141.016 39.4062 142.812 39.4062C144.031 39.4062 144.992 39.1562 145.695 38.6562C146.414 38.1562 146.773 37.4922 146.773 36.6641ZM180.102 22.1797H171.242V44H164.445V22.1797H155.75V16.6953H180.102V22.1797ZM201.312 32.6328H190.039V38.5625H203.305V44H183.242V16.6953H203.328V22.1797H190.039V27.1719H201.312V32.6328ZM230.75 44H223.977L213.195 26.9844V44H206.398V16.6953H213.195L223.977 33.7344V16.6953H230.75V44ZM242.656 44H235.859V16.6953H242.656V44ZM272.141 44H265.367L254.586 26.9844V44H247.789V16.6953H254.586L265.367 33.7344V16.6953H272.141V44ZM300.617 40.6953C299.555 41.8047 298 42.6953 295.953 43.3672C293.922 44.0391 291.625 44.375 289.062 44.375C285.156 44.375 282.055 43.2344 279.758 40.9531C277.461 38.6562 276.273 35.5 276.195 31.4844V29.6562C276.195 25.5312 277.32 22.2812 279.57 19.9062C281.82 17.5156 284.852 16.3203 288.664 16.3203C292.258 16.3203 295.055 17.1094 297.055 18.6875C299.055 20.2656 300.234 22.6328 300.594 25.7891H294.055C293.836 24.4609 293.336 23.4609 292.555 22.7891C291.789 22.1172 290.57 21.7812 288.898 21.7812C287.023 21.7812 285.57 22.4297 284.539 23.7266C283.523 25.0234 283.008 26.9453 282.992 29.4922V31.0859C282.992 33.7578 283.531 35.7344 284.609 37.0156C285.688 38.2969 287.32 38.9375 289.508 38.9375C291.477 38.9375 292.906 38.6094 293.797 37.9531V34.0625H288.547V29.2578H300.617V40.6953ZM49.6719 100H42.8984L32.1172 82.9844V100H25.3203V72.6953H32.1172L42.8984 89.7344V72.6953H49.6719V100ZM78.9688 86.8984C78.9688 89.5703 78.4453 91.9297 77.3984 93.9766C76.3516 96.0234 74.8516 97.6016 72.8984 98.7109C70.9609 99.8203 68.7578 100.375 66.2891 100.375C63.8047 100.375 61.5859 99.8281 59.6328 98.7344C57.6953 97.6406 56.1953 96.0859 55.1328 94.0703C54.0703 92.0391 53.5312 89.7031 53.5156 87.0625V85.8438C53.5156 83.1562 54.0391 80.7891 55.0859 78.7422C56.1328 76.6953 57.625 75.1172 59.5625 74.0078C61.5 72.8828 63.7266 72.3203 66.2422 72.3203C68.7109 72.3203 70.9062 72.8672 72.8281 73.9609C74.7656 75.0547 76.2656 76.625 77.3281 78.6719C78.4062 80.7031 78.9531 83.0469 78.9688 85.7031V86.8984ZM72.1719 85.8203C72.1719 83.2266 71.6484 81.2344 70.6016 79.8438C69.5703 78.4531 68.1172 77.7578 66.2422 77.7578C64.3047 77.7578 62.8281 78.4531 61.8125 79.8438C60.8125 81.2344 60.3125 83.2266 60.3125 85.8203V86.8984C60.3125 89.4453 60.8281 91.4297 61.8594 92.8516C62.8906 94.2734 64.3672 94.9844 66.2891 94.9844C68.1016 94.9844 69.5312 94.2812 70.5781 92.875C71.6406 91.4688 72.1719 89.4531 72.1719 86.8281V85.8203ZM105.664 91.2812L109.133 72.6953H115.648L109.344 100H102.594L98.4219 82.7734L94.3203 100H87.5703L81.2422 72.6953H87.7812L91.25 91.375L95.4688 72.6953H101.422L105.664 91.2812ZM153.523 78.1797H144.664V100H137.867V78.1797H129.172V72.6953H153.523V78.1797ZM181.039 100H174.266V89.3594H163.461V100H156.664V72.6953H163.461V83.8984H174.266V72.6953H181.039V100ZM192.969 100H186.172V72.6953H192.969V100ZM213.289 92.6641C213.289 91.7578 212.906 91.0312 212.141 90.4844C211.375 89.9375 210.07 89.4453 208.227 89.0078C206.383 88.5703 204.828 88.1094 203.562 87.625C202.312 87.125 201.281 86.5391 200.469 85.8672C199.656 85.1953 199.055 84.4219 198.664 83.5469C198.273 82.6562 198.078 81.6016 198.078 80.3828C198.078 78.0391 199.055 76.1094 201.008 74.5938C202.961 73.0781 205.477 72.3203 208.555 72.3203C211.914 72.3203 214.625 73.0859 216.688 74.6172C218.766 76.1328 219.805 78.2109 219.805 80.8516H213.031C213.031 79.8516 212.625 79.0156 211.812 78.3438C211.016 77.6719 209.938 77.3359 208.578 77.3359C207.375 77.3359 206.398 77.6016 205.648 78.1328C204.898 78.6641 204.523 79.3281 204.523 80.125C204.523 80.9219 204.914 81.5703 205.695 82.0703C206.477 82.5547 207.773 83.0234 209.586 83.4766C213.227 84.2734 215.828 85.375 217.391 86.7812C218.969 88.1875 219.758 90.0859 219.758 92.4766C219.758 94.9141 218.797 96.8438 216.875 98.2656C214.953 99.6719 212.328 100.375 209 100.375C206.734 100.375 204.688 100.008 202.859 99.2734C201.031 98.5391 199.617 97.4922 198.617 96.1328C197.633 94.7734 197.141 93.1641 197.141 91.3047H203.938C203.938 92.7578 204.383 93.8047 205.273 94.4453C206.18 95.0859 207.531 95.4062 209.328 95.4062C210.547 95.4062 211.508 95.1562 212.211 94.6562C212.93 94.1562 213.289 93.4922 213.289 92.6641ZM224.445 96.6719C224.445 95.5938 224.805 94.7188 225.523 94.0469C226.258 93.375 227.172 93.0391 228.266 93.0391C229.375 93.0391 230.289 93.375 231.008 94.0469C231.742 94.7188 232.109 95.5938 232.109 96.6719C232.109 97.7344 231.75 98.6016 231.031 99.2734C230.312 99.9297 229.391 100.258 228.266 100.258C227.156 100.258 226.242 99.9297 225.523 99.2734C224.805 98.6016 224.445 97.7344 224.445 96.6719ZM224.445 77.4766C224.445 76.3984 224.805 75.5234 225.523 74.8516C226.258 74.1797 227.172 73.8438 228.266 73.8438C229.375 73.8438 230.289 74.1797 231.008 74.8516C231.742 75.5234 232.109 76.3984 232.109 77.4766C232.109 78.5391 231.75 79.4062 231.031 80.0781C230.312 80.7344 229.391 81.0625 228.266 81.0625C227.156 81.0625 226.242 80.7344 225.523 80.0781C224.805 79.4062 224.445 78.5391 224.445 77.4766Z" fill="#FFD233"/>
</svg>
