<svg width="199" height="35" viewBox="0 0 199 35" fill="none" xmlns="http://www.w3.org/2000/svg">
<g clip-path="url(#clip0_16_59)">
<path d="M16.8963 7.6792C19.5683 7.6792 22.0861 8.86373 23.9313 10.7155V10.7209C23.9313 9.8317 24.5295 9.15904 25.3564 9.15904H25.5664C26.8713 9.15904 27.1327 10.3895 27.1327 10.7778L27.1381 24.5973C27.0473 25.503 28.0733 25.9711 28.6431 25.3892C30.858 23.1109 33.5125 13.6653 27.2639 8.19654C21.4364 3.09201 13.615 3.93529 9.45657 6.80092C5.03672 9.85467 2.21157 16.5998 4.95579 22.9392C7.95266 29.8506 16.52 31.9123 21.6191 29.8561C24.2003 28.8137 25.3903 32.2984 22.7073 33.4392C18.6638 35.164 7.39485 34.9879 2.13172 25.8737C-1.42406 19.717 -1.23593 8.8867 8.19876 3.27576C15.4098 -1.01939 24.9244 0.170607 30.66 6.15889C36.6538 12.425 36.307 24.1489 30.4555 28.7065C27.8053 30.7792 23.87 28.7634 23.8984 25.7436L23.8689 24.7592C22.0238 26.5869 19.5683 27.6587 16.8963 27.6587C11.6102 27.6587 6.95626 23.0037 6.95626 17.7231C6.95626 12.3856 11.6102 7.68139 16.8963 7.68139V7.6792ZM23.5452 17.3414C23.345 13.4728 20.4739 11.1431 17.0045 11.1431H16.8733C12.8745 11.1431 10.6531 14.2931 10.6531 17.8642C10.6531 21.8684 13.3361 24.3972 16.8569 24.3972C20.7867 24.3972 23.3669 21.5217 23.555 18.1201L23.5452 17.3414Z" fill="#FFD233"/>
</g>
<path d="M50.6875 14.9453V25H47.3008V12.3203H50.4766L50.6875 14.9453ZM50.2188 18.2148H49.2812C49.2812 17.332 49.3867 16.5195 49.5977 15.7773C49.8164 15.0273 50.1328 14.3789 50.5469 13.832C50.9688 13.2773 51.4883 12.8477 52.1055 12.543C52.7227 12.2383 53.4375 12.0859 54.25 12.0859C54.8125 12.0859 55.3281 12.1719 55.7969 12.3438C56.2656 12.5078 56.668 12.7695 57.0039 13.1289C57.3477 13.4805 57.6133 13.9414 57.8008 14.5117C57.9883 15.0742 58.082 15.75 58.082 16.5391V25H54.707V16.9141C54.707 16.3359 54.6289 15.8906 54.4727 15.5781C54.3164 15.2656 54.0938 15.0469 53.8047 14.9219C53.5234 14.7969 53.1836 14.7344 52.7852 14.7344C52.3477 14.7344 51.9648 14.8242 51.6367 15.0039C51.3164 15.1836 51.0508 15.4336 50.8398 15.7539C50.6289 16.0664 50.4727 16.4336 50.3711 16.8555C50.2695 17.2773 50.2188 17.7305 50.2188 18.2148ZM57.7656 17.8281L56.5586 17.9805C56.5586 17.1523 56.6602 16.3828 56.8633 15.6719C57.0742 14.9609 57.3828 14.3359 57.7891 13.7969C58.2031 13.2578 58.7148 12.8398 59.3242 12.543C59.9336 12.2383 60.6367 12.0859 61.4336 12.0859C62.043 12.0859 62.5977 12.1758 63.0977 12.3555C63.5977 12.5273 64.0234 12.8047 64.375 13.1875C64.7344 13.5625 65.0078 14.0547 65.1953 14.6641C65.3906 15.2734 65.4883 16.0195 65.4883 16.9023V25H62.1016V16.9023C62.1016 16.3164 62.0234 15.8711 61.8672 15.5664C61.7188 15.2539 61.5 15.0391 61.2109 14.9219C60.9297 14.7969 60.5938 14.7344 60.2031 14.7344C59.7969 14.7344 59.4414 14.8164 59.1367 14.9805C58.832 15.1367 58.5781 15.3555 58.375 15.6367C58.1719 15.918 58.0195 16.2461 57.918 16.6211C57.8164 16.9883 57.7656 17.3906 57.7656 17.8281ZM73.9375 25.2344C72.9531 25.2344 72.0703 25.0781 71.2891 24.7656C70.5078 24.4453 69.8438 24.0039 69.2969 23.4414C68.7578 22.8789 68.3438 22.2266 68.0547 21.4844C67.7656 20.7344 67.6211 19.9375 67.6211 19.0938V18.625C67.6211 17.6641 67.7578 16.7852 68.0312 15.9883C68.3047 15.1914 68.6953 14.5 69.2031 13.9141C69.7188 13.3281 70.3438 12.8789 71.0781 12.5664C71.8125 12.2461 72.6406 12.0859 73.5625 12.0859C74.4609 12.0859 75.2578 12.2344 75.9531 12.5312C76.6484 12.8281 77.2305 13.25 77.6992 13.7969C78.1758 14.3438 78.5352 15 78.7773 15.7656C79.0195 16.5234 79.1406 17.3672 79.1406 18.2969V19.7031H69.0625V17.4531H75.8242V17.1953C75.8242 16.7266 75.7383 16.3086 75.5664 15.9414C75.4023 15.5664 75.1523 15.2695 74.8164 15.0508C74.4805 14.832 74.0508 14.7227 73.5273 14.7227C73.082 14.7227 72.6992 14.8203 72.3789 15.0156C72.0586 15.2109 71.7969 15.4844 71.5938 15.8359C71.3984 16.1875 71.25 16.6016 71.1484 17.0781C71.0547 17.5469 71.0078 18.0625 71.0078 18.625V19.0938C71.0078 19.6016 71.0781 20.0703 71.2188 20.5C71.3672 20.9297 71.5742 21.3008 71.8398 21.6133C72.1133 21.9258 72.4414 22.168 72.8242 22.3398C73.2148 22.5117 73.6562 22.5977 74.1484 22.5977C74.7578 22.5977 75.3242 22.4805 75.8477 22.2461C76.3789 22.0039 76.8359 21.6406 77.2188 21.1562L78.8594 22.9375C78.5938 23.3203 78.2305 23.6875 77.7695 24.0391C77.3164 24.3906 76.7695 24.6797 76.1289 24.9062C75.4883 25.125 74.7578 25.2344 73.9375 25.2344ZM100.246 18.7305C100.215 19.5273 100.098 20.3125 99.8945 21.0859C99.6914 21.8594 99.3828 22.5586 98.9688 23.1836C98.5625 23.8086 98.043 24.3086 97.4102 24.6836C96.7773 25.0586 96.0117 25.2461 95.1133 25.2461C94.6055 25.2461 94.1484 25.1562 93.7422 24.9766C93.3359 24.7969 92.9922 24.543 92.7109 24.2148C92.4297 23.8789 92.2227 23.4766 92.0898 23.0078C91.957 22.5391 91.9102 22.0117 91.9492 21.4258L92.5469 14.6758H94.8906L94.3047 21.4258C94.2578 21.832 94.2617 22.1641 94.3164 22.4219C94.3789 22.6797 94.4727 22.8789 94.5977 23.0195C94.7305 23.1602 94.8789 23.2617 95.043 23.3242C95.2148 23.3789 95.3828 23.4062 95.5469 23.4062C95.9219 23.4062 96.2656 23.2891 96.5781 23.0547C96.8906 22.8203 97.1602 22.4961 97.3867 22.082C97.6133 21.668 97.793 21.1836 97.9258 20.6289C98.0586 20.0664 98.1328 19.4609 98.1484 18.8125C98.2031 17.7734 98.1523 16.8125 97.9961 15.9297C97.8477 15.0469 97.5898 14.2578 97.2227 13.5625C96.8633 12.8594 96.3945 12.2656 95.8164 11.7812C95.2383 11.2891 94.5508 10.9141 93.7539 10.6562C92.957 10.3906 92.0469 10.2578 91.0234 10.2578C90.0625 10.2578 89.1758 10.4062 88.3633 10.7031C87.5586 11 86.8359 11.4258 86.1953 11.9805C85.5625 12.5352 85.0156 13.1992 84.5547 13.9727C84.1016 14.7383 83.7422 15.5938 83.4766 16.5391C83.2188 17.4766 83.0664 18.4844 83.0195 19.5625C82.9648 20.6953 83.0234 21.7266 83.1953 22.6562C83.375 23.5859 83.6602 24.4023 84.0508 25.1055C84.4492 25.8164 84.9453 26.4102 85.5391 26.8867C86.1328 27.3633 86.8242 27.7227 87.6133 27.9648C88.4023 28.207 89.2812 28.3281 90.25 28.3281C90.9297 28.3281 91.6211 28.25 92.3242 28.0938C93.0352 27.9453 93.6328 27.7539 94.1172 27.5195L94.5625 29.2656C94.0156 29.6172 93.332 29.8789 92.5117 30.0508C91.6992 30.2227 90.9297 30.3086 90.2031 30.3086C88.9609 30.3086 87.8281 30.1562 86.8047 29.8516C85.7891 29.5547 84.8906 29.1094 84.1094 28.5156C83.3281 27.9297 82.6758 27.2031 82.1523 26.3359C81.6367 25.4688 81.2539 24.4688 81.0039 23.3359C80.7617 22.2031 80.668 20.9453 80.7227 19.5625C80.7773 18.2812 80.9766 17.0742 81.3203 15.9414C81.6641 14.8086 82.1328 13.7812 82.7266 12.8594C83.3203 11.9375 84.0312 11.1445 84.8594 10.4805C85.6953 9.80859 86.6328 9.29297 87.6719 8.93359C88.7109 8.57422 89.8438 8.39453 91.0703 8.39453C92.2891 8.39453 93.3945 8.55469 94.3867 8.875C95.3867 9.19531 96.2617 9.65625 97.0117 10.2578C97.7617 10.8516 98.3867 11.5742 98.8867 12.4258C99.3867 13.2695 99.75 14.2227 99.9766 15.2852C100.203 16.3477 100.293 17.4961 100.246 18.7305ZM88.4102 19.9609C88.3711 20.4766 88.375 20.9336 88.4219 21.332C88.4688 21.7305 88.5586 22.0664 88.6914 22.3398C88.8242 22.6133 88.9961 22.8203 89.207 22.9609C89.4258 23.0938 89.6836 23.1602 89.9805 23.1602C90.1445 23.1602 90.3242 23.1211 90.5195 23.043C90.7148 22.957 90.9141 22.8164 91.1172 22.6211C91.3203 22.4258 91.5117 22.1562 91.6914 21.8125C91.8789 21.4609 92.0352 21.0195 92.1602 20.4883L93.1562 21.6719C92.9766 22.2578 92.7539 22.7734 92.4883 23.2188C92.2227 23.6562 91.918 24.0234 91.5742 24.3203C91.2383 24.6172 90.8711 24.8398 90.4727 24.9883C90.0742 25.1367 89.6445 25.2109 89.1836 25.2109C88.6133 25.2109 88.1055 25.0898 87.6602 24.8477C87.2148 24.5977 86.8438 24.2422 86.5469 23.7812C86.25 23.3203 86.0352 22.7695 85.9023 22.1289C85.7773 21.4805 85.7539 20.7578 85.832 19.9609C85.918 19.1641 86.0742 18.4258 86.3008 17.7461C86.5273 17.0664 86.8086 16.4609 87.1445 15.9297C87.4805 15.3906 87.8633 14.9336 88.293 14.5586C88.7305 14.1758 89.2031 13.8867 89.7109 13.6914C90.2188 13.4961 90.75 13.3984 91.3047 13.3984C92.2031 13.3984 92.9102 13.5273 93.4258 13.7852C93.9414 14.043 94.4297 14.3398 94.8906 14.6758L93.6953 16.2812C93.4688 16.0781 93.1719 15.8828 92.8047 15.6953C92.4453 15.5 92.0156 15.4023 91.5156 15.4023C91.0547 15.4023 90.6484 15.5 90.2969 15.6953C89.9531 15.8906 89.6523 16.1836 89.3945 16.5742C89.1445 16.957 88.9375 17.4336 88.7734 18.0039C88.6094 18.5664 88.4883 19.2188 88.4102 19.9609ZM106.879 25H103.48V11.1953C103.48 10.2344 103.668 9.42578 104.043 8.76953C104.426 8.10547 104.961 7.60547 105.648 7.26953C106.344 6.92578 107.168 6.75391 108.121 6.75391C108.434 6.75391 108.734 6.77734 109.023 6.82422C109.312 6.86328 109.594 6.91406 109.867 6.97656L109.832 9.51953C109.684 9.48047 109.527 9.45312 109.363 9.4375C109.199 9.42188 109.008 9.41406 108.789 9.41406C108.383 9.41406 108.035 9.48438 107.746 9.625C107.465 9.75781 107.25 9.95703 107.102 10.2227C106.953 10.4883 106.879 10.8125 106.879 11.1953V25ZM109.41 12.3203V14.7109H101.594V12.3203H109.41ZM114.555 6.98828V25H111.18V6.98828H114.555ZM122.547 12.3203L117.039 18.6016L114.086 21.5898L112.855 19.1523L115.199 16.1758L118.492 12.3203H122.547ZM119.043 25L115.293 19.1406L117.625 17.1016L122.934 25H119.043ZM127.562 12.3203V25H124.176V12.3203H127.562ZM123.965 9.01562C123.965 8.52344 124.137 8.11719 124.48 7.79688C124.824 7.47656 125.285 7.31641 125.863 7.31641C126.434 7.31641 126.891 7.47656 127.234 7.79688C127.586 8.11719 127.762 8.52344 127.762 9.01562C127.762 9.50781 127.586 9.91406 127.234 10.2344C126.891 10.5547 126.434 10.7148 125.863 10.7148C125.285 10.7148 124.824 10.5547 124.48 10.2344C124.137 9.91406 123.965 9.50781 123.965 9.01562ZM133.656 15.0273V25H130.281V12.3203H133.445L133.656 15.0273ZM133.164 18.2148H132.25C132.25 17.2773 132.371 16.4336 132.613 15.6836C132.855 14.9258 133.195 14.2812 133.633 13.75C134.07 13.2109 134.59 12.8008 135.191 12.5195C135.801 12.2305 136.48 12.0859 137.23 12.0859C137.824 12.0859 138.367 12.1719 138.859 12.3438C139.352 12.5156 139.773 12.7891 140.125 13.1641C140.484 13.5391 140.758 14.0352 140.945 14.6523C141.141 15.2695 141.238 16.0234 141.238 16.9141V25H137.84V16.9023C137.84 16.3398 137.762 15.9023 137.605 15.5898C137.449 15.2773 137.219 15.0586 136.914 14.9336C136.617 14.8008 136.25 14.7344 135.812 14.7344C135.359 14.7344 134.965 14.8242 134.629 15.0039C134.301 15.1836 134.027 15.4336 133.809 15.7539C133.598 16.0664 133.438 16.4336 133.328 16.8555C133.219 17.2773 133.164 17.7305 133.164 18.2148ZM151.305 21.9648V12.3203H154.68V25H151.504L151.305 21.9648ZM151.68 19.3633L152.676 19.3398C152.676 20.1836 152.578 20.9688 152.383 21.6953C152.188 22.4141 151.895 23.0391 151.504 23.5703C151.113 24.0938 150.621 24.5039 150.027 24.8008C149.434 25.0898 148.734 25.2344 147.93 25.2344C147.312 25.2344 146.742 25.1484 146.219 24.9766C145.703 24.7969 145.258 24.5195 144.883 24.1445C144.516 23.7617 144.227 23.2734 144.016 22.6797C143.812 22.0781 143.711 21.3555 143.711 20.5117V12.3203H147.086V20.5352C147.086 20.9102 147.129 21.2266 147.215 21.4844C147.309 21.7422 147.438 21.9531 147.602 22.1172C147.766 22.2812 147.957 22.3984 148.176 22.4688C148.402 22.5391 148.652 22.5742 148.926 22.5742C149.621 22.5742 150.168 22.4336 150.566 22.1523C150.973 21.8711 151.258 21.4883 151.422 21.0039C151.594 20.5117 151.68 19.9648 151.68 19.3633ZM156.719 18.7891V18.543C156.719 17.6133 156.852 16.7578 157.117 15.9766C157.383 15.1875 157.77 14.5039 158.277 13.9258C158.785 13.3477 159.41 12.8984 160.152 12.5781C160.895 12.25 161.746 12.0859 162.707 12.0859C163.668 12.0859 164.523 12.25 165.273 12.5781C166.023 12.8984 166.652 13.3477 167.16 13.9258C167.676 14.5039 168.066 15.1875 168.332 15.9766C168.598 16.7578 168.73 17.6133 168.73 18.543V18.7891C168.73 19.7109 168.598 20.5664 168.332 21.3555C168.066 22.1367 167.676 22.8203 167.16 23.4062C166.652 23.9844 166.027 24.4336 165.285 24.7539C164.543 25.0742 163.691 25.2344 162.73 25.2344C161.77 25.2344 160.914 25.0742 160.164 24.7539C159.422 24.4336 158.793 23.9844 158.277 23.4062C157.77 22.8203 157.383 22.1367 157.117 21.3555C156.852 20.5664 156.719 19.7109 156.719 18.7891ZM160.094 18.543V18.7891C160.094 19.3203 160.141 19.8164 160.234 20.2773C160.328 20.7383 160.477 21.1445 160.68 21.4961C160.891 21.8398 161.164 22.1094 161.5 22.3047C161.836 22.5 162.246 22.5977 162.73 22.5977C163.199 22.5977 163.602 22.5 163.938 22.3047C164.273 22.1094 164.543 21.8398 164.746 21.4961C164.949 21.1445 165.098 20.7383 165.191 20.2773C165.293 19.8164 165.344 19.3203 165.344 18.7891V18.543C165.344 18.0273 165.293 17.543 165.191 17.0898C165.098 16.6289 164.945 16.2227 164.734 15.8711C164.531 15.5117 164.262 15.2305 163.926 15.0273C163.59 14.8242 163.184 14.7227 162.707 14.7227C162.23 14.7227 161.824 14.8242 161.488 15.0273C161.16 15.2305 160.891 15.5117 160.68 15.8711C160.477 16.2227 160.328 16.6289 160.234 17.0898C160.141 17.543 160.094 18.0273 160.094 18.543ZM170.969 23.3711C170.969 22.8711 171.141 22.4531 171.484 22.1172C171.836 21.7812 172.301 21.6133 172.879 21.6133C173.457 21.6133 173.918 21.7812 174.262 22.1172C174.613 22.4531 174.789 22.8711 174.789 23.3711C174.789 23.8711 174.613 24.2891 174.262 24.625C173.918 24.9609 173.457 25.1289 172.879 25.1289C172.301 25.1289 171.836 24.9609 171.484 24.625C171.141 24.2891 170.969 23.8711 170.969 23.3711ZM181.141 15.0859V25H177.766V12.3203H180.941L181.141 15.0859ZM184.961 12.2383L184.902 15.3672C184.738 15.3438 184.539 15.3242 184.305 15.3086C184.078 15.2852 183.871 15.2734 183.684 15.2734C183.207 15.2734 182.793 15.3359 182.441 15.4609C182.098 15.5781 181.809 15.7539 181.574 15.9883C181.348 16.2227 181.176 16.5078 181.059 16.8438C180.949 17.1797 180.887 17.5625 180.871 17.9922L180.191 17.7812C180.191 16.9609 180.273 16.207 180.438 15.5195C180.602 14.8242 180.84 14.2188 181.152 13.7031C181.473 13.1875 181.863 12.7891 182.324 12.5078C182.785 12.2266 183.312 12.0859 183.906 12.0859C184.094 12.0859 184.285 12.1016 184.48 12.1328C184.676 12.1562 184.836 12.1914 184.961 12.2383ZM194.055 21.9648V12.3203H197.43V25H194.254L194.055 21.9648ZM194.43 19.3633L195.426 19.3398C195.426 20.1836 195.328 20.9688 195.133 21.6953C194.938 22.4141 194.645 23.0391 194.254 23.5703C193.863 24.0938 193.371 24.5039 192.777 24.8008C192.184 25.0898 191.484 25.2344 190.68 25.2344C190.062 25.2344 189.492 25.1484 188.969 24.9766C188.453 24.7969 188.008 24.5195 187.633 24.1445C187.266 23.7617 186.977 23.2734 186.766 22.6797C186.562 22.0781 186.461 21.3555 186.461 20.5117V12.3203H189.836V20.5352C189.836 20.9102 189.879 21.2266 189.965 21.4844C190.059 21.7422 190.188 21.9531 190.352 22.1172C190.516 22.2812 190.707 22.3984 190.926 22.4688C191.152 22.5391 191.402 22.5742 191.676 22.5742C192.371 22.5742 192.918 22.4336 193.316 22.1523C193.723 21.8711 194.008 21.4883 194.172 21.0039C194.344 20.5117 194.43 19.9648 194.43 19.3633Z" fill="#00FF85"/>
<defs>
<clipPath id="clip0_16_59">
<rect width="35" height="35" fill="white"/>
</clipPath>
</defs>
</svg>
