<svg width="224" height="35" viewBox="0 0 224 35" fill="none" xmlns="http://www.w3.org/2000/svg">
<g clip-path="url(#clip0)">
<path d="M16.8962 7.67923C19.5683 7.67923 22.0861 8.86376 23.9312 10.7155V10.7209C23.9312 9.83173 24.5295 9.15907 25.3564 9.15907H25.5664C26.8712 9.15907 27.1327 10.3895 27.1327 10.7778L27.1381 24.5974C27.0473 25.503 28.0733 25.9711 28.6431 25.3892C30.858 23.1109 33.5125 13.6653 27.2639 8.19658C21.4364 3.09204 13.615 3.93533 9.45656 6.80095C5.03672 9.8547 2.21156 16.5999 4.95578 22.9392C7.95265 29.8506 16.52 31.9124 21.6191 29.8561C24.2003 28.8138 25.3903 32.2984 22.7073 33.4392C18.6637 35.1641 7.39484 34.988 2.13172 25.8738C-1.42406 19.717 -1.23594 8.88673 8.19875 3.27579C15.4098 -1.01936 24.9244 0.170638 30.66 6.15892C36.6537 12.425 36.307 24.1489 30.4555 28.7066C27.8053 30.7792 23.87 28.7635 23.8984 25.7436L23.8689 24.7592C22.0237 26.5869 19.5683 27.6588 16.8962 27.6588C11.6102 27.6588 6.95625 23.0038 6.95625 17.7231C6.95625 12.3856 11.6102 7.68142 16.8962 7.68142V7.67923ZM23.5452 17.3414C23.345 13.4728 20.4739 11.1431 17.0045 11.1431H16.8733C12.8745 11.1431 10.6531 14.2931 10.6531 17.8642C10.6531 21.8684 13.3361 24.3972 16.8569 24.3972C20.7867 24.3972 23.3669 21.5217 23.555 18.1202L23.5452 17.3414Z" fill="#FFD233"/>
</g>
<path d="M46.7734 18.5664C46.7734 16.5898 47.2148 15.0156 48.0977 13.8438C48.9883 12.6719 50.2031 12.0859 51.7422 12.0859C52.9766 12.0859 53.9961 12.5469 54.8008 13.4688V7H58.1992V25H55.1406L54.9766 23.6523C54.1328 24.707 53.0469 25.2344 51.7188 25.2344C50.2266 25.2344 49.0273 24.6484 48.1211 23.4766C47.2227 22.2969 46.7734 20.6602 46.7734 18.5664ZM50.1602 18.8125C50.1602 20 50.3672 20.9102 50.7812 21.543C51.1953 22.1758 51.7969 22.4922 52.5859 22.4922C53.6328 22.4922 54.3711 22.0508 54.8008 21.168V16.1641C54.3789 15.2812 53.6484 14.8398 52.6094 14.8398C50.9766 14.8398 50.1602 16.1641 50.1602 18.8125ZM66.6602 25.2344C64.8008 25.2344 63.2852 24.6641 62.1133 23.5234C60.9492 22.3828 60.3672 20.8633 60.3672 18.9648V18.6367C60.3672 17.3633 60.6133 16.2266 61.1055 15.2266C61.5977 14.2188 62.293 13.4453 63.1914 12.9062C64.0977 12.3594 65.1289 12.0859 66.2852 12.0859C68.0195 12.0859 69.3828 12.6328 70.375 13.7266C71.375 14.8203 71.875 16.3711 71.875 18.3789V19.7617H63.8008C63.9102 20.5898 64.2383 21.2539 64.7852 21.7539C65.3398 22.2539 66.0391 22.5039 66.8828 22.5039C68.1875 22.5039 69.207 22.0312 69.9414 21.0859L71.6055 22.9492C71.0977 23.668 70.4102 24.2305 69.543 24.6367C68.6758 25.0352 67.7148 25.2344 66.6602 25.2344ZM66.2734 14.8281C65.6016 14.8281 65.0547 15.0547 64.6328 15.5078C64.2188 15.9609 63.9531 16.6094 63.8359 17.4531H68.5469V17.1836C68.5312 16.4336 68.3281 15.8555 67.9375 15.4492C67.5469 15.0352 66.9922 14.8281 66.2734 14.8281ZM81.1562 25C81 24.6953 80.8867 24.3164 80.8164 23.8633C79.9961 24.7773 78.9297 25.2344 77.6172 25.2344C76.375 25.2344 75.3438 24.875 74.5234 24.1562C73.7109 23.4375 73.3047 22.5312 73.3047 21.4375C73.3047 20.0938 73.8008 19.0625 74.793 18.3438C75.793 17.625 77.2344 17.2617 79.1172 17.2539H80.6758V16.5273C80.6758 15.9414 80.5234 15.4727 80.2188 15.1211C79.9219 14.7695 79.4492 14.5938 78.8008 14.5938C78.2305 14.5938 77.7812 14.7305 77.4531 15.0039C77.1328 15.2773 76.9727 15.6523 76.9727 16.1289H73.5859C73.5859 15.3945 73.8125 14.7148 74.2656 14.0898C74.7188 13.4648 75.3594 12.9766 76.1875 12.625C77.0156 12.2656 77.9453 12.0859 78.9766 12.0859C80.5391 12.0859 81.7773 12.4805 82.6914 13.2695C83.6133 14.0508 84.0742 15.1523 84.0742 16.5742V22.0703C84.082 23.2734 84.25 24.1836 84.5781 24.8008V25H81.1562ZM78.3555 22.6445C78.8555 22.6445 79.3164 22.5352 79.7383 22.3164C80.1602 22.0898 80.4727 21.7891 80.6758 21.4141V19.2344H79.4102C77.7148 19.2344 76.8125 19.8203 76.7031 20.9922L76.6914 21.1914C76.6914 21.6133 76.8398 21.9609 77.1367 22.2344C77.4336 22.5078 77.8398 22.6445 78.3555 22.6445ZM90.25 25H86.8516V7H90.25V25ZM99.918 21.4961C99.918 21.082 99.7109 20.7578 99.2969 20.5234C98.8906 20.2812 98.2344 20.0664 97.3281 19.8789C94.3125 19.2461 92.8047 17.9648 92.8047 16.0352C92.8047 14.9102 93.2695 13.9727 94.1992 13.2227C95.1367 12.4648 96.3594 12.0859 97.8672 12.0859C99.4766 12.0859 100.762 12.4648 101.723 13.2227C102.691 13.9805 103.176 14.9648 103.176 16.1758H99.7891C99.7891 15.6914 99.6328 15.293 99.3203 14.9805C99.0078 14.6602 98.5195 14.5 97.8555 14.5C97.2852 14.5 96.8438 14.6289 96.5312 14.8867C96.2188 15.1445 96.0625 15.4727 96.0625 15.8711C96.0625 16.2461 96.2383 16.5508 96.5898 16.7852C96.9492 17.0117 97.5508 17.2109 98.3945 17.3828C99.2383 17.5469 99.9492 17.7344 100.527 17.9453C102.316 18.6016 103.211 19.7383 103.211 21.3555C103.211 22.5117 102.715 23.4492 101.723 24.168C100.73 24.8789 99.4492 25.2344 97.8789 25.2344C96.8164 25.2344 95.8711 25.0469 95.043 24.6719C94.2227 24.2891 93.5781 23.7695 93.1094 23.1133C92.6406 22.4492 92.4062 21.7344 92.4062 20.9688H95.6172C95.6484 21.5703 95.8711 22.0312 96.2852 22.3516C96.6992 22.6719 97.2539 22.832 97.9492 22.832C98.5977 22.832 99.0859 22.7109 99.4141 22.4688C99.75 22.2188 99.918 21.8945 99.918 21.4961ZM124.598 18.7188C124.512 20.7188 124.016 22.3086 123.109 23.4883C122.211 24.6602 121 25.2461 119.477 25.2461C118.805 25.2461 118.223 25.1016 117.73 24.8125C117.246 24.5234 116.879 24.1094 116.629 23.5703C115.848 24.6641 114.828 25.2109 113.57 25.2109C112.43 25.2109 111.547 24.7305 110.922 23.7695C110.297 22.8086 110.062 21.5391 110.219 19.9609C110.359 18.6719 110.684 17.5273 111.191 16.5273C111.707 15.5195 112.355 14.7461 113.137 14.207C113.918 13.668 114.762 13.3984 115.668 13.3984C116.785 13.3984 117.738 13.6562 118.527 14.1719L119.266 14.6758L118.668 21.4492C118.59 22.0664 118.656 22.5391 118.867 22.8672C119.086 23.1953 119.43 23.3594 119.898 23.3594C120.617 23.3594 121.219 22.9414 121.703 22.1055C122.188 21.2617 122.453 20.1602 122.5 18.8008C122.633 16.0742 122.082 13.9805 120.848 12.5195C119.621 11.0508 117.801 10.3164 115.387 10.3164C113.879 10.3164 112.535 10.6992 111.355 11.4648C110.176 12.2305 109.246 13.3203 108.566 14.7344C107.887 16.1406 107.504 17.7539 107.418 19.5742C107.293 22.3398 107.848 24.4766 109.082 25.9844C110.316 27.5 112.164 28.2578 114.625 28.2578C115.273 28.2578 115.953 28.1836 116.664 28.0352C117.375 27.8945 117.988 27.7031 118.504 27.4609L118.949 29.2656C118.473 29.5781 117.828 29.8281 117.016 30.0156C116.211 30.2109 115.398 30.3086 114.578 30.3086C112.516 30.3086 110.758 29.8906 109.305 29.0547C107.852 28.2266 106.766 27 106.047 25.375C105.336 23.7578 105.027 21.8242 105.121 19.5742C105.215 17.418 105.707 15.4844 106.598 13.7734C107.488 12.0625 108.699 10.7422 110.23 9.8125C111.77 8.875 113.504 8.40625 115.434 8.40625C117.395 8.40625 119.082 8.82812 120.496 9.67188C121.91 10.5078 122.969 11.707 123.672 13.2695C124.375 14.832 124.684 16.6484 124.598 18.7188ZM112.82 19.9609C112.734 20.9922 112.824 21.7773 113.09 22.3164C113.355 22.8477 113.785 23.1133 114.379 23.1133C114.762 23.1133 115.125 22.9453 115.469 22.6094C115.812 22.2734 116.098 21.7891 116.324 21.1562L116.816 15.6133C116.512 15.5117 116.199 15.4609 115.879 15.4609C114.98 15.4609 114.281 15.8438 113.781 16.6094C113.289 17.375 112.969 18.4922 112.82 19.9609ZM127.82 25V14.8047H125.934V12.3203H127.82V11.2422C127.82 9.82031 128.227 8.71875 129.039 7.9375C129.859 7.14844 131.004 6.75391 132.473 6.75391C132.941 6.75391 133.516 6.83203 134.195 6.98828L134.16 9.61328C133.879 9.54297 133.535 9.50781 133.129 9.50781C131.855 9.50781 131.219 10.1055 131.219 11.3008V12.3203H133.738V14.8047H131.219V25H127.82ZM140.102 19.9141L138.883 21.1328V25H135.496V7H138.883V16.9727L139.539 16.1289L142.785 12.3203H146.852L142.27 17.6055L147.25 25H143.359L140.102 19.9141ZM151.891 25H148.492V12.3203H151.891V25ZM148.293 9.03906C148.293 8.53125 148.461 8.11328 148.797 7.78516C149.141 7.45703 149.605 7.29297 150.191 7.29297C150.77 7.29297 151.23 7.45703 151.574 7.78516C151.918 8.11328 152.09 8.53125 152.09 9.03906C152.09 9.55469 151.914 9.97656 151.562 10.3047C151.219 10.6328 150.762 10.7969 150.191 10.7969C149.621 10.7969 149.16 10.6328 148.809 10.3047C148.465 9.97656 148.293 9.55469 148.293 9.03906ZM157.809 12.3203L157.914 13.7852C158.82 12.6523 160.035 12.0859 161.559 12.0859C162.902 12.0859 163.902 12.4805 164.559 13.2695C165.215 14.0586 165.551 15.2383 165.566 16.8086V25H162.18V16.8906C162.18 16.1719 162.023 15.6523 161.711 15.332C161.398 15.0039 160.879 14.8398 160.152 14.8398C159.199 14.8398 158.484 15.2461 158.008 16.0586V25H154.621V12.3203H157.809ZM175.738 23.7109C174.902 24.7266 173.746 25.2344 172.27 25.2344C170.91 25.2344 169.871 24.8438 169.152 24.0625C168.441 23.2812 168.078 22.1367 168.062 20.6289V12.3203H171.449V20.5117C171.449 21.832 172.051 22.4922 173.254 22.4922C174.402 22.4922 175.191 22.0938 175.621 21.2969V12.3203H179.02V25H175.832L175.738 23.7109ZM181.047 18.543C181.047 17.2852 181.289 16.1641 181.773 15.1797C182.258 14.1953 182.953 13.4336 183.859 12.8945C184.773 12.3555 185.832 12.0859 187.035 12.0859C188.746 12.0859 190.141 12.6094 191.219 13.6562C192.305 14.7031 192.91 16.125 193.035 17.9219L193.059 18.7891C193.059 20.7344 192.516 22.2969 191.43 23.4766C190.344 24.6484 188.887 25.2344 187.059 25.2344C185.23 25.2344 183.77 24.6484 182.676 23.4766C181.59 22.3047 181.047 20.7109 181.047 18.6953V18.543ZM184.434 18.7891C184.434 19.9922 184.66 20.9141 185.113 21.5547C185.566 22.1875 186.215 22.5039 187.059 22.5039C187.879 22.5039 188.52 22.1914 188.98 21.5664C189.441 20.9336 189.672 19.9258 189.672 18.543C189.672 17.3633 189.441 16.4492 188.98 15.8008C188.52 15.1523 187.871 14.8281 187.035 14.8281C186.207 14.8281 185.566 15.1523 185.113 15.8008C184.66 16.4414 184.434 17.4375 184.434 18.7891ZM195.32 23.3359C195.32 22.7969 195.5 22.3594 195.859 22.0234C196.227 21.6875 196.684 21.5195 197.23 21.5195C197.785 21.5195 198.242 21.6875 198.602 22.0234C198.969 22.3594 199.152 22.7969 199.152 23.3359C199.152 23.8672 198.973 24.3008 198.613 24.6367C198.254 24.9648 197.793 25.1289 197.23 25.1289C196.676 25.1289 196.219 24.9648 195.859 24.6367C195.5 24.3008 195.32 23.8672 195.32 23.3359ZM209.254 15.4961C208.793 15.4336 208.387 15.4023 208.035 15.4023C206.754 15.4023 205.914 15.8359 205.516 16.7031V25H202.129V12.3203H205.328L205.422 13.832C206.102 12.668 207.043 12.0859 208.246 12.0859C208.621 12.0859 208.973 12.1367 209.301 12.2383L209.254 15.4961ZM218.488 23.7109C217.652 24.7266 216.496 25.2344 215.02 25.2344C213.66 25.2344 212.621 24.8438 211.902 24.0625C211.191 23.2812 210.828 22.1367 210.812 20.6289V12.3203H214.199V20.5117C214.199 21.832 214.801 22.4922 216.004 22.4922C217.152 22.4922 217.941 22.0938 218.371 21.2969V12.3203H221.77V25H218.582L218.488 23.7109Z" fill="#00FF85"/>
<defs>
<clipPath id="clip0">
<rect width="35" height="35" fill="white"/>
</clipPath>
</defs>
</svg>
