<svg width="120" height="35" viewBox="0 0 120 35" fill="none" xmlns="http://www.w3.org/2000/svg">
<path fill-rule="evenodd" clip-rule="evenodd" d="M35 17.5C35 27.1644 27.1644 35 17.5 35C7.83563 35 0 27.1644 0 17.5C0 7.83563 7.83563 0 17.5 0C27.1644 0 35 7.83563 35 17.5ZM18.1271 12.9194C16.4252 13.6267 13.0229 15.0923 7.92167 17.3148C7.09333 17.6444 6.65875 17.9667 6.61938 18.2817C6.55229 18.8154 7.22021 19.0254 8.12729 19.3098C8.25125 19.3492 8.37958 19.3885 8.51083 19.4323C9.40479 19.7225 10.6065 20.0623 11.2306 20.0754C11.7979 20.0871 12.4308 19.8538 13.1294 19.3754C17.8952 16.1569 20.3554 14.5308 20.51 14.4958C20.6194 14.471 20.771 14.439 20.8731 14.5308C20.9752 14.6213 20.965 14.7933 20.9548 14.84C20.8877 15.1215 18.2715 17.5554 16.9152 18.8154C16.4923 19.2077 16.1933 19.4863 16.1321 19.5504C15.995 19.6919 15.855 19.8275 15.7208 19.9573C14.8896 20.7565 14.2683 21.3573 15.7558 22.3373C16.4704 22.8083 17.0421 23.1977 17.6123 23.5856C18.235 24.01 18.8563 24.4329 19.6613 24.9608C19.8654 25.095 20.0608 25.2335 20.2519 25.3692C20.9767 25.8869 21.6285 26.3506 22.4335 26.2777C22.9002 26.234 23.3844 25.795 23.6294 24.484C24.2083 21.3835 25.3488 14.6694 25.6127 11.9015C25.6288 11.6716 25.619 11.4408 25.5835 11.2131C25.5623 11.0293 25.4728 10.8601 25.3327 10.7392C25.1242 10.5685 24.8004 10.5321 24.6546 10.535C23.9969 10.5467 22.9877 10.8981 18.1271 12.9194V12.9194Z" fill="#FFD233"/>
<path d="M46.2266 26V15.8047H44.3398V13.3203H46.2266V12.2422C46.2266 10.8203 46.6328 9.71875 47.4453 8.9375C48.2656 8.14844 49.4102 7.75391 50.8789 7.75391C51.3477 7.75391 51.9219 7.83203 52.6016 7.98828L52.5664 10.6133C52.2852 10.543 51.9414 10.5078 51.5352 10.5078C50.2617 10.5078 49.625 11.1055 49.625 12.3008V13.3203H52.1445V15.8047H49.625V26H46.2266ZM54.0781 24.3359C54.0781 23.7969 54.2578 23.3594 54.6172 23.0234C54.9844 22.6875 55.4414 22.5195 55.9883 22.5195C56.543 22.5195 57 22.6875 57.3594 23.0234C57.7266 23.3594 57.9102 23.7969 57.9102 24.3359C57.9102 24.8672 57.7305 25.3008 57.3711 25.6367C57.0117 25.9648 56.5508 26.1289 55.9883 26.1289C55.4336 26.1289 54.9766 25.9648 54.6172 25.6367C54.2578 25.3008 54.0781 24.8672 54.0781 24.3359ZM65.4922 20.9141L64.2734 22.1328V26H60.8867V8H64.2734V17.9727L64.9297 17.1289L68.1758 13.3203H72.2422L67.6602 18.6055L72.6406 26H68.75L65.4922 20.9141ZM77.2812 26H73.8828V13.3203H77.2812V26ZM73.6836 10.0391C73.6836 9.53125 73.8516 9.11328 74.1875 8.78516C74.5312 8.45703 74.9961 8.29297 75.582 8.29297C76.1602 8.29297 76.6211 8.45703 76.9648 8.78516C77.3086 9.11328 77.4805 9.53125 77.4805 10.0391C77.4805 10.5547 77.3047 10.9766 76.9531 11.3047C76.6094 11.6328 76.1523 11.7969 75.582 11.7969C75.0117 11.7969 74.5508 11.6328 74.1992 11.3047C73.8555 10.9766 73.6836 10.5547 73.6836 10.0391ZM83.1992 13.3203L83.3047 14.7852C84.2109 13.6523 85.4258 13.0859 86.9492 13.0859C88.293 13.0859 89.293 13.4805 89.9492 14.2695C90.6055 15.0586 90.9414 16.2383 90.957 17.8086V26H87.5703V17.8906C87.5703 17.1719 87.4141 16.6523 87.1016 16.332C86.7891 16.0039 86.2695 15.8398 85.543 15.8398C84.5898 15.8398 83.875 16.2461 83.3984 17.0586V26H80.0117V13.3203H83.1992ZM101.129 24.7109C100.293 25.7266 99.1367 26.2344 97.6602 26.2344C96.3008 26.2344 95.2617 25.8438 94.543 25.0625C93.832 24.2812 93.4688 23.1367 93.4531 21.6289V13.3203H96.8398V21.5117C96.8398 22.832 97.4414 23.4922 98.6445 23.4922C99.793 23.4922 100.582 23.0938 101.012 22.2969V13.3203H104.41V26H101.223L101.129 24.7109ZM106.438 19.543C106.438 18.2852 106.68 17.1641 107.164 16.1797C107.648 15.1953 108.344 14.4336 109.25 13.8945C110.164 13.3555 111.223 13.0859 112.426 13.0859C114.137 13.0859 115.531 13.6094 116.609 14.6562C117.695 15.7031 118.301 17.125 118.426 18.9219L118.449 19.7891C118.449 21.7344 117.906 23.2969 116.82 24.4766C115.734 25.6484 114.277 26.2344 112.449 26.2344C110.621 26.2344 109.16 25.6484 108.066 24.4766C106.98 23.3047 106.438 21.7109 106.438 19.6953V19.543ZM109.824 19.7891C109.824 20.9922 110.051 21.9141 110.504 22.5547C110.957 23.1875 111.605 23.5039 112.449 23.5039C113.27 23.5039 113.91 23.1914 114.371 22.5664C114.832 21.9336 115.062 20.9258 115.062 19.543C115.062 18.3633 114.832 17.4492 114.371 16.8008C113.91 16.1523 113.262 15.8281 112.426 15.8281C111.598 15.8281 110.957 16.1523 110.504 16.8008C110.051 17.4414 109.824 18.4375 109.824 19.7891Z" fill="#00FF85"/>
</svg>
